<svg width="38" height="38" viewBox="0 0 38 38" fill="none" xmlns="http://www.w3.org/2000/svg">
<path fill-rule="evenodd" clip-rule="evenodd" d="M19 1.58325C9.38123 1.58325 1.58331 9.38117 1.58331 18.9999C1.58331 28.6187 9.38123 36.4166 19 36.4166C28.6187 36.4166 36.4166 28.6187 36.4166 18.9999C36.4166 9.38117 28.6187 1.58325 19 1.58325ZM20.5833 25.3333C20.5833 25.7532 20.4165 26.1559 20.1196 26.4528C19.8226 26.7498 19.4199 26.9166 19 26.9166C18.5801 26.9166 18.1773 26.7498 17.8804 26.4528C17.5835 26.1559 17.4166 25.7532 17.4166 25.3333V20.5833H12.6666C12.2467 20.5833 11.844 20.4164 11.5471 20.1195C11.2501 19.8226 11.0833 19.4198 11.0833 18.9999C11.0833 18.58 11.2501 18.1773 11.5471 17.8803C11.844 17.5834 12.2467 17.4166 12.6666 17.4166H17.4166V12.6666C17.4166 12.2467 17.5835 11.8439 17.8804 11.547C18.1773 11.2501 18.5801 11.0833 19 11.0833C19.4199 11.0833 19.8226 11.2501 20.1196 11.547C20.4165 11.8439 20.5833 12.2467 20.5833 12.6666V17.4166H25.3333C25.7532 17.4166 26.156 17.5834 26.4529 17.8803C26.7498 18.1773 26.9166 18.58 26.9166 18.9999C26.9166 19.4198 26.7498 19.8226 26.4529 20.1195C26.156 20.4164 25.7532 20.5833 25.3333 20.5833H20.5833V25.3333Z" fill="#F0C000"/>
</svg>
