<svg width="176" height="135" viewBox="0 0 176 135" fill="none" xmlns="http://www.w3.org/2000/svg">
<path fill-rule="evenodd" clip-rule="evenodd" d="M93.5023 53.6787C93.3979 53.4818 93.1477 53.6713 93.2259 53.8138C93.3181 53.7689 93.4102 53.7238 93.5023 53.6787ZM96.8519 55.1034C96.7192 55.0162 96.6579 55.1213 96.5872 55.2423C96.5664 55.2778 96.5449 55.3147 96.5205 55.3486C96.6386 55.4334 96.7118 55.3179 96.7859 55.201C96.8074 55.167 96.8291 55.1328 96.8519 55.1034ZM94.929 50.4479C94.6888 50.0521 94.6536 50.1711 94.5808 50.5809C94.639 50.5587 94.6971 50.5366 94.7552 50.5143C94.8132 50.4923 94.8712 50.4701 94.929 50.4479ZM135.986 35.4905C135.609 35.6152 135.556 35.7322 135.821 35.9714C135.874 35.8162 135.913 35.7025 135.986 35.4905ZM94.0993 47.6111C94.1504 47.8977 94.4886 47.9985 94.5287 47.6623L94.0993 47.6111ZM122.535 36.5476C122.733 36.6377 122.834 36.6839 122.929 36.6737C123.028 36.6632 123.121 36.5916 123.31 36.4455C123.224 36.4569 123.147 36.4672 123.073 36.4768C123.014 36.4847 122.956 36.4921 122.898 36.4998C122.787 36.5145 122.673 36.5295 122.535 36.5476ZM109.607 63.7623C109.506 63.5757 109.405 63.3893 109.304 63.2027C109.248 63.3243 109.192 63.446 109.136 63.5675L109.135 63.5682L109.094 63.6579C109.265 63.6927 109.436 63.7274 109.607 63.7623ZM138.469 31.498C138.393 31.7219 138.355 31.8327 138.393 31.9031C138.43 31.9719 138.538 32.002 138.753 32.0618L138.618 31.795L138.601 31.7615C138.56 31.6801 138.517 31.5949 138.469 31.498ZM136.452 31.9862C136.446 31.9096 136.44 31.8329 136.434 31.7563L136.433 31.7446C136.427 31.6719 136.421 31.5992 136.415 31.5263C136.375 31.6375 136.277 31.6195 136.182 31.6019C136.1 31.5868 136.02 31.5721 135.981 31.6402C135.786 31.9772 136.275 31.9868 136.452 31.9862ZM96.5223 54.1014C96.4414 53.8785 96.42 53.8594 96.1941 53.7878C96.2285 54.0046 96.2088 54.1684 96.1834 54.3783L96.1782 54.4219C96.5623 54.4134 96.6844 54.4 96.7394 53.9983L96.5223 54.1014ZM95.3317 54.7124C95.2595 54.8926 95.1237 54.8308 95.0079 54.7779C94.903 54.73 94.8143 54.6897 94.8044 54.8436C94.8102 54.7546 95.1792 55.3878 95.1565 55.3661C95.3572 55.5589 95.4876 55.5586 95.7604 55.3974C95.4054 55.3413 95.3856 55.158 95.359 54.9119C95.3522 54.8492 95.345 54.7823 95.3317 54.7124ZM139.225 32.1407C139.125 32.3104 139.026 32.4803 138.927 32.65L138.905 32.6876C138.813 32.8449 138.722 33.0022 138.63 33.1593C138.588 33.2307 138.555 33.294 138.526 33.3487C138.39 33.608 138.354 33.6783 137.99 33.5142C138.005 33.4936 138.042 33.4534 138.087 33.403L138.087 33.4029C138.224 33.2512 138.443 33.0073 138.432 32.9242C138.421 32.846 138.246 32.7299 138.088 32.6249C137.99 32.5598 137.898 32.4991 137.855 32.454C137.732 32.3236 137.695 32.2137 137.655 32.0975C137.632 32.0291 137.608 31.9583 137.565 31.8799C137.642 31.7052 137.609 31.6154 137.466 31.6107C137.413 31.7153 137.359 31.8198 137.305 31.9243L137.302 31.9309L137.26 32.0121C137.248 32.1814 137.323 32.2557 137.412 32.3429C137.481 32.4101 137.557 32.4847 137.606 32.6161L137.616 32.6412C137.688 32.8316 137.709 32.8864 137.69 32.9173C137.682 32.9297 137.668 32.9381 137.648 32.9501C137.607 32.9749 137.541 33.0144 137.458 33.1351C137.381 33.2463 137.322 33.3711 137.264 33.4925C137.155 33.7235 137.051 33.9424 136.841 34.0324C136.994 34.1224 137.146 34.2124 137.299 34.3023C136.874 34.6707 137.679 34.5627 137.813 34.5381L137.813 34.5388L137.812 34.5396C137.647 34.8046 137.482 35.0694 137.316 35.3344C137.043 35.1351 136.892 34.84 136.742 34.5463C136.69 34.4431 136.637 34.34 136.579 34.2413C136.334 34.5912 136.088 34.9413 135.843 35.2914C135.935 35.2939 136.028 35.2963 136.12 35.2988C136.23 35.3018 136.339 35.3047 136.449 35.3075C136.441 35.3188 136.42 35.3444 136.392 35.3781L136.392 35.3783C136.295 35.4942 136.118 35.7071 136.128 35.7713C136.15 35.9243 136.306 35.987 136.458 36.0484C136.643 36.1232 136.823 36.1959 136.754 36.4264C136.737 36.4802 136.054 37.0233 135.943 37.0703C136.004 37.1069 136.058 37.134 136.105 37.1574C136.281 37.2448 136.346 37.2773 136.225 37.5529C136.093 37.4499 135.961 37.3467 135.829 37.2436C135.797 37.2884 135.764 37.3328 135.73 37.3774L135.73 37.3775C135.612 37.535 135.493 37.6936 135.411 37.8724C135.407 38.0302 135.362 38.1747 135.274 38.306C135.176 38.421 135.067 38.5264 134.949 38.6219C134.84 38.8314 134.67 40.0259 134.747 40.2332C135.005 39.9705 135.444 40.5411 134.601 40.4404C134.53 40.432 134.474 40.4226 134.429 40.4148C134.237 40.382 134.231 40.381 134.085 40.6305C133.944 40.8731 133.857 41.0892 134.169 41.1513C133.934 41.5041 133.893 41.8098 133.844 42.1732C133.832 42.2621 133.819 42.3544 133.803 42.4517C133.753 42.7623 133.645 43.0646 133.538 43.3642C133.507 43.4518 133.476 43.539 133.446 43.6262C133.49 43.5768 133.534 43.5275 133.578 43.4779C133.622 43.4285 133.666 43.3791 133.71 43.3296C133.833 43.7034 133.722 44.0029 133.595 44.347C133.567 44.4223 133.539 44.4999 133.512 44.5807C133.41 44.4071 133.339 44.4952 133.264 44.5881C133.209 44.657 133.151 44.7285 133.077 44.6975C132.868 44.6099 132.882 44.5587 132.903 44.4781C132.918 44.4224 132.936 44.3526 132.887 44.2469C132.864 44.1983 132.848 44.1574 132.833 44.1216C132.78 43.9935 132.755 43.9313 132.581 43.8096C132.369 43.6617 132.025 43.5826 131.718 43.512C131.596 43.484 131.481 43.4575 131.382 43.4285C130.8 43.2587 130.21 43.162 129.613 43.0643L129.589 43.0603C127.326 42.6898 125.061 42.3938 122.771 42.2476C120.665 42.1131 118.486 42.1512 116.386 42.3046C116.236 42.3155 116.087 42.3264 115.937 42.3372C113.858 42.4874 111.819 42.6347 109.764 43.0682C109.575 43.1083 109.382 43.1781 109.189 43.2478L109.189 43.2479C108.948 43.3349 108.707 43.4219 108.474 43.451C108.31 43.4717 108.147 43.4758 107.983 43.48C107.749 43.4858 107.513 43.4917 107.265 43.546C106.707 43.6684 106.142 43.7647 105.577 43.8609C105.12 43.9387 104.664 44.0166 104.21 44.1081C103.92 44.1668 103.625 44.2207 103.327 44.275C102.503 44.4251 101.665 44.5779 100.888 44.8424C100.655 44.9217 100.43 45.0214 100.205 45.121C99.9859 45.2179 99.7669 45.315 99.5403 45.3934C99.4452 45.4264 99.337 45.4569 99.2229 45.4889C98.817 45.603 98.338 45.7377 98.1265 46.076C98.0209 46.2449 98.0198 46.3764 98.05 46.5682C98.1059 46.9232 98.1848 46.9249 98.423 46.93C98.443 46.9303 98.4641 46.9309 98.4865 46.9315C98.7389 46.9393 99.0505 46.8438 99.3467 46.7531C99.521 46.6997 99.6897 46.648 99.8379 46.6199C100.933 46.4128 102.032 46.2736 103.137 46.1349C103.971 46.0302 104.814 45.8603 105.655 45.6907C106.815 45.4571 107.972 45.224 109.097 45.163C109.675 45.1317 110.249 45.0133 110.823 44.8948C111.392 44.7773 111.962 44.6596 112.538 44.6263C112.621 44.6216 112.758 44.5898 112.911 44.5543C113.228 44.4805 113.616 44.3901 113.744 44.4894C113.778 44.5156 113.827 44.7061 113.867 44.859C113.887 44.9345 113.904 45.0008 113.916 45.0334C114.043 45.3886 114.197 45.7352 114.386 46.0623C114.804 46.7863 115.358 47.4303 115.907 48.0685L115.908 48.0687C116.106 48.2997 116.305 48.53 116.496 48.763C117.098 49.4984 117.629 50.2755 118.161 51.0555L118.161 51.0556C118.355 51.3382 118.548 51.6213 118.745 51.9027C118.791 51.8608 118.837 51.8187 118.883 51.7767L118.999 51.6704C118.86 52.2179 119.188 52.6762 119.49 53.0998C119.503 53.1177 119.516 53.1354 119.528 53.1533C119.542 53.172 119.555 53.1906 119.568 53.209C119.948 53.7486 120.246 54.2487 120.525 54.8456C120.684 55.1848 120.884 55.5014 121.082 55.8146C121.17 55.9533 121.257 56.0915 121.34 56.2306C121.495 56.4901 121.611 56.7739 121.727 57.0592C121.811 57.2646 121.895 57.4707 121.994 57.6693C122.202 58.0847 122.407 58.5026 122.613 58.9205C122.947 59.5997 123.281 60.2787 123.623 60.9457C123.883 61.4528 124.069 62.0108 124.255 62.575C124.3 62.7102 124.376 62.8899 124.459 63.0862L124.459 63.0864C124.652 63.5411 124.882 64.0855 124.848 64.3728C124.825 64.4386 124.843 64.6242 124.862 64.8184C124.899 65.2042 124.939 65.6235 124.674 65.2066C124.649 65.2367 124.624 65.2669 124.599 65.297L124.563 65.3412C124.539 65.3706 124.514 65.3999 124.49 65.4292C124.463 65.4615 124.436 65.4938 124.409 65.526C124.543 65.4876 124.677 65.4493 124.811 65.411C124.541 65.6033 124.726 65.7267 124.898 65.8412C124.999 65.9084 125.095 65.9724 125.092 66.0457C125.059 66.0707 125.027 66.0955 124.994 66.1204L124.877 66.2094C124.74 66.4234 124.593 66.4358 124.437 66.2465C124.356 66.2418 124.304 66.2195 124.254 66.1984C124.186 66.1687 124.122 66.1413 123.991 66.1685C124.064 66.3198 124.16 66.3727 124.25 66.4219C124.366 66.4857 124.472 66.5434 124.501 66.8027C124.537 67.1281 124.349 67.2238 124.099 67.3507C124.032 67.3848 123.96 67.4211 123.887 67.4648L123.887 67.4645L123.879 67.4621C123.926 67.2162 123.827 67.0193 123.623 66.8778L123.565 67.365C123.623 67.383 123.682 67.4011 123.74 67.4192L123.742 67.4197L123.879 67.4621C123.878 67.4649 123.878 67.4679 123.877 67.4707L123.887 67.4648C123.812 67.655 123.667 67.601 123.493 67.5365C123.462 67.5251 123.431 67.5135 123.399 67.5028C123.022 67.377 122.621 67.1917 122.241 67.0163C122.122 66.9613 122.005 66.9073 121.891 66.8563C120.863 66.395 119.819 65.9851 118.742 65.6249C116.913 65.0134 115.059 64.7053 113.19 64.3947L113.19 64.3946C112.547 64.2877 111.903 64.1806 111.257 64.0608C111.262 64.0472 111.267 64.0344 111.271 64.0223C111.319 63.893 111.339 63.8404 111.337 63.7886C111.335 63.7531 111.324 63.7181 111.305 63.659C111.302 63.6505 111.299 63.6414 111.296 63.6317C111.326 63.7245 111.253 63.7235 111.179 63.7223C111.066 63.7206 110.952 63.7191 111.196 64.048C110.452 64.0805 109.686 63.9792 108.926 63.8785C108.455 63.8162 107.987 63.7541 107.526 63.724C107.541 63.6981 107.561 63.6715 107.58 63.6448C107.648 63.5508 107.718 63.4553 107.633 63.3738C107.156 63.9143 106.068 63.7704 105.14 63.6474C104.773 63.5989 104.431 63.5536 104.162 63.5551C103.836 63.5572 103.51 63.5812 103.184 63.6049C102.951 63.6221 102.718 63.6392 102.484 63.6482C102.445 63.6498 102.406 63.6512 102.367 63.6525C102.132 63.6611 101.895 63.6696 101.662 63.7038C101.577 63.7163 101.47 63.75 101.358 63.7856C101.14 63.8545 100.9 63.9304 100.754 63.8711C101.042 63.4296 100.913 63.5517 100.787 63.6698C100.731 63.7227 100.676 63.7747 100.659 63.7752C100.627 63.7761 100.59 63.7776 100.549 63.7794C100.387 63.7862 100.17 63.7953 99.9859 63.7734C100.146 63.3525 100.335 62.9494 100.525 62.5466C100.795 61.9724 101.065 61.3987 101.247 60.7745C101.271 60.694 101.298 60.6079 101.327 60.5176L101.327 60.5175C101.532 59.8642 101.806 58.9934 101.271 58.5029C101.005 58.2597 100.577 58.1287 100.206 58.0151L100.205 58.0151C100.11 57.9858 100.017 57.9576 99.9327 57.9289C99.7919 57.8812 99.6165 57.8394 99.4303 57.795C99.0185 57.697 98.5544 57.5863 98.2982 57.3724C98.1889 57.2811 98.1145 57.1964 98.0432 57.1152C97.9251 56.9805 97.8155 56.8557 97.5698 56.7271C97.48 56.68 97.4001 56.6343 97.326 56.5919C97.0255 56.4195 96.8189 56.3011 96.4191 56.3723C96.4551 56.3369 96.4928 56.3033 96.5294 56.2707C96.7219 56.0996 96.8828 55.9565 96.5854 55.7073C96.5277 55.6589 96.4413 55.6461 96.3566 55.6332C96.2285 55.6139 96.1042 55.5952 96.0871 55.4563C95.8606 55.5792 95.826 55.7039 95.7807 55.8669C95.7641 55.9263 95.7462 55.9908 95.717 56.0622C95.71 56.18 95.7273 56.2952 95.7694 56.4076L95.567 56.4625L95.2952 56.5361C95.3708 56.3889 95.2946 56.3724 95.212 56.3545C95.1562 56.3425 95.0977 56.3299 95.0812 56.2761C95.0361 56.1285 95.0704 55.9349 95.1013 55.7607C95.1122 55.6995 95.1226 55.6407 95.129 55.5871C94.8064 55.6484 94.4667 55.7313 94.2921 56.0392C94.0122 55.8232 94.0499 55.7799 94.1949 55.6133C94.233 55.5695 94.2783 55.5172 94.3274 55.4511C94.0169 55.3372 93.9296 55.4939 93.8494 55.7533C93.7329 55.7014 93.6161 55.6495 93.4994 55.5976L93.4959 55.5959L93.3621 55.5364C93.7425 55.5791 93.8693 55.2925 93.9169 54.9703C93.8508 54.9835 93.7848 54.9967 93.7186 55.0098L93.7164 55.0102C93.6297 55.0275 93.5428 55.0448 93.4559 55.062L93.3088 55.5203C93.0756 55.6748 92.5887 55.3337 92.3638 55.1762L92.3635 55.176C92.3411 55.1603 92.3214 55.1466 92.3047 55.1351L92.2471 55.0959C91.6478 54.6887 91.4293 54.5402 91.6166 53.767C91.6832 53.4918 91.7664 53.218 91.8499 52.9437C91.9689 52.5521 92.0884 52.1599 92.1595 51.7616C92.2782 51.0982 92.2987 50.3816 92.3182 49.6982C92.3209 49.6071 92.3234 49.5166 92.3263 49.4268C92.3433 48.8809 92.3493 48.3364 92.3552 47.7926L92.3552 47.7924C92.3652 46.8661 92.3754 45.9411 92.44 45.0117C92.4549 44.7978 92.4696 44.5839 92.4842 44.3699L92.4841 44.3697C92.5241 43.7847 92.5639 43.1998 92.6106 42.6153C92.6189 42.5106 92.6222 42.4036 92.6255 42.298C92.6422 41.7636 92.6576 41.2663 93.3197 41.2978C93.26 40.9805 93.5902 40.6613 93.9073 40.5293C94.0395 40.3045 94.1556 40.2968 94.2558 40.5066C94.359 40.5531 94.4605 40.5492 94.5605 40.4945C94.8324 40.466 95.1594 40.2481 95.4674 40.0429C95.6634 39.9123 95.8516 39.787 96.0131 39.7187C96.1235 39.6721 96.2681 39.622 96.4261 39.5673L96.4263 39.5673C96.8509 39.4203 97.3745 39.2391 97.6046 38.9958C97.7755 38.8151 97.7248 38.7332 97.6678 38.641C97.6228 38.5681 97.574 38.489 97.6266 38.35C97.779 37.9466 98.0727 38.5222 98.1511 38.6757C98.1563 38.6859 98.1607 38.6945 98.1638 38.7005C98.2116 38.6626 98.2993 38.6174 98.3971 38.5668C98.6054 38.4593 98.8596 38.328 98.8714 38.1944L98.5043 38.0826C98.5472 38.0643 98.606 38.034 98.6718 38.0003C98.8303 37.9188 99.0294 37.8164 99.1443 37.8078C99.2033 37.8034 99.2456 37.7962 99.2772 37.7908C99.316 37.7842 99.3387 37.7802 99.3573 37.7875C99.3836 37.7978 99.4012 37.8309 99.4437 37.911C99.4606 37.9429 99.4814 37.9822 99.5084 38.0304C99.5335 38.0001 99.5697 37.9496 99.6112 37.8915L99.6113 37.8913C99.718 37.7424 99.8614 37.5421 99.9505 37.496C99.9854 37.478 100.113 37.4754 100.227 37.4732C100.307 37.4715 100.379 37.4701 100.409 37.4634C100.614 37.4174 100.704 37.3103 100.791 37.2073C100.86 37.1248 100.928 37.0446 101.051 37.0001C101.122 36.9743 101.197 36.9954 101.267 37.0156C101.329 37.0332 101.388 37.0499 101.439 37.0342C101.533 37.006 101.586 36.9228 101.639 36.8396C101.686 36.7642 101.734 36.6887 101.813 36.6539C101.889 36.6195 102.021 36.6347 102.151 36.6498C102.263 36.6628 102.373 36.6755 102.449 36.6576C102.633 36.6142 102.693 36.5592 102.778 36.4821C102.82 36.4439 102.868 36.4003 102.94 36.3497C103.114 36.2277 103.27 36.1972 103.433 36.1651C103.555 36.1412 103.681 36.1165 103.822 36.0525C103.988 35.9765 104.074 35.8317 104.154 35.6981C104.236 35.5592 104.311 35.4324 104.463 35.4074C104.635 35.3795 104.742 35.4335 104.83 35.4772C104.945 35.535 105.025 35.5749 105.168 35.3838C105.191 35.3536 105.173 35.3118 105.152 35.2653C105.122 35.196 105.086 35.1162 105.176 35.048C105.335 34.9263 105.391 35.06 105.443 35.1848C105.45 35.2037 105.458 35.2225 105.466 35.2402L105.467 35.2393L105.468 35.2384C105.574 35.0848 105.68 34.9311 105.786 34.7775C106.026 34.9486 106.066 34.8964 106.139 34.8027C106.185 34.7431 106.244 34.6668 106.376 34.6203C106.448 34.5949 106.508 34.6167 106.57 34.639C106.637 34.6631 106.706 34.6878 106.792 34.6534C106.865 34.6245 106.907 34.5653 106.948 34.5066C106.977 34.4671 107.005 34.4278 107.041 34.398C107.095 34.3549 107.143 34.3055 107.191 34.2563C107.3 34.143 107.409 34.0307 107.586 33.9975C107.494 34.0145 108.221 34.08 108.16 34.0412C108.102 33.9292 108.044 33.8172 107.985 33.7052C108.062 33.7143 108.137 33.7248 108.21 33.7352L108.21 33.7352C108.499 33.7756 108.768 33.8135 109.071 33.7573L109.077 33.7563C109.212 33.7314 109.418 33.6936 109.534 33.6249L109.544 33.6193C109.687 33.5343 109.75 33.4973 109.78 33.4423C109.804 33.3995 109.808 33.3459 109.816 33.2507C109.82 33.2009 109.825 33.1398 109.834 33.0628C110.213 33.3728 110.745 33.3437 111.185 33.0892C111.283 33.0323 111.368 32.9681 111.453 32.9041C111.566 32.8186 111.679 32.7339 111.821 32.6679C111.926 32.6283 112.033 32.5922 112.141 32.5597C112.285 32.442 112.414 32.4561 112.527 32.6021C112.66 32.5829 112.7 32.5604 112.765 32.5237C112.792 32.5083 112.824 32.4904 112.869 32.4692C112.919 32.3939 112.971 32.3203 113.027 32.2486C113.18 32.2509 113.332 32.2413 113.485 32.2199C113.655 32.1952 113.81 32.1488 113.954 32.1054C114.31 31.9988 114.608 31.9094 114.956 32.195L115.008 32.1152L115.01 32.1124C115.076 32.0093 115.143 31.9062 115.209 31.8031C115.339 32.0727 115.475 31.9912 115.656 31.8825C115.73 31.8377 115.812 31.7883 115.905 31.757C115.973 31.734 116.049 31.724 116.123 31.7142C116.194 31.7047 116.264 31.6955 116.323 31.6752C116.385 31.6979 116.447 31.7208 116.509 31.7436C116.584 31.5822 116.658 31.4207 116.732 31.2592C116.759 31.2739 116.807 31.3044 116.866 31.3414C117.03 31.4452 117.276 31.6005 117.373 31.6028C117.476 31.6053 117.602 31.5194 117.725 31.4349C117.826 31.3653 117.925 31.2967 118.01 31.2795C118.173 31.2465 118.207 31.2674 118.256 31.2979C118.292 31.3211 118.338 31.3495 118.454 31.3642C118.481 31.3676 118.507 31.3714 118.53 31.3749C118.689 31.398 118.783 31.4118 118.958 31.2781C118.469 31.0865 118.92 31.0657 119.238 31.0509C119.303 31.0479 119.363 31.0452 119.407 31.0412C119.521 31.0315 119.618 31.0329 119.705 31.0344C119.934 31.038 120.099 31.0407 120.327 30.8362L120.039 30.8018C120.272 30.6351 120.274 30.6358 120.38 30.6722C120.417 30.6848 120.467 30.702 120.543 30.7177C120.564 30.722 120.599 30.7387 120.641 30.759C120.789 30.8302 121.028 30.9446 121.056 30.7105C121.416 30.985 121.42 30.9859 121.831 30.9305C121.905 30.9205 121.978 30.8926 122.05 30.8647C122.155 30.8243 122.26 30.7835 122.375 30.7951C122.465 30.8043 122.541 30.8323 122.614 30.8592C122.695 30.8889 122.772 30.9172 122.861 30.9181C122.953 30.9193 123.261 30.8464 123.413 30.8102C123.43 30.806 123.445 30.8024 123.458 30.7994C123.554 30.7767 123.638 30.7336 123.719 30.6911C123.806 30.6464 123.89 30.6025 123.987 30.5843C124.097 30.5634 124.218 30.5835 124.339 30.6036C124.446 30.6214 124.553 30.6391 124.654 30.6293C124.863 30.6087 125.047 30.5597 125.223 30.5128C125.587 30.4159 125.917 30.3283 126.355 30.519C126.495 29.9389 127.196 30.1348 127.6 30.248L127.634 30.2576C127.708 30.2783 127.772 30.3028 127.831 30.3257C127.993 30.3883 128.124 30.4388 128.35 30.3628C128.459 30.3261 128.55 30.2747 128.641 30.2235C128.76 30.1569 128.878 30.0906 129.033 30.0576C129.211 30.0199 129.437 30.0016 129.633 29.9855C129.67 29.9824 129.707 29.9795 129.741 29.9764C129.877 29.9506 130.013 29.9532 130.148 29.9846C130.292 30.0227 130.405 30.1035 130.487 30.2269C130.484 30.2328 130.485 30.2364 130.493 30.2367C130.491 30.2334 130.489 30.2302 130.487 30.2269C130.514 30.18 130.862 29.9808 130.821 30.0057C130.903 29.9546 130.97 29.9281 131.028 29.9048C131.156 29.8538 131.246 29.8179 131.377 29.5745C131.294 29.5465 131.211 29.5182 131.128 29.49C131.045 29.4619 130.962 29.4337 130.879 29.4055C130.909 29.407 130.939 29.4085 130.968 29.4097C131.19 29.4194 131.371 29.4274 131.567 29.5427C131.632 29.581 131.71 29.6765 131.791 29.7752C131.901 29.9092 132.016 30.049 132.109 30.0603C132.402 30.0956 132.554 29.6942 132.551 29.4754C132.728 30.0784 132.926 30.199 133.514 29.9716C133.548 29.9582 133.583 29.945 133.617 29.9316L133.621 29.9299C133.655 29.9171 133.688 29.9044 133.721 29.8914C133.868 29.7691 133.999 29.7872 134.112 29.946C134.184 29.9973 134.256 30.0485 134.328 30.0999L134.398 30.0093C134.486 29.8959 134.574 29.7825 134.662 29.6689C134.827 29.9643 135.012 29.9999 135.341 29.9748C135.453 29.9663 135.632 29.8774 135.804 29.7917C135.981 29.7036 136.151 29.6191 136.234 29.629C136.279 29.6344 136.324 29.6931 136.375 29.7599C136.431 29.8333 136.495 29.9166 136.575 29.9501C136.827 30.0564 137.256 29.916 137.379 29.6765C137.416 29.787 137.453 29.8976 137.49 30.0082C137.524 29.9832 137.558 29.958 137.592 29.933C137.695 29.8573 137.799 29.7814 137.901 29.7049C137.9 29.9942 138.118 30.0157 138.308 30.0345C138.448 30.0484 138.573 30.0607 138.584 30.1775C138.596 30.3143 138.173 30.5574 137.921 30.7022C137.854 30.7406 137.799 30.7723 137.768 30.7929C138.107 31.0578 138.604 30.7253 138.969 30.4807C139.043 30.4312 139.111 30.3853 139.172 30.3487C139.32 30.5538 139.366 30.6578 139.184 30.8507C139.018 31.0278 138.958 30.9795 138.887 30.9232C138.822 30.8713 138.749 30.8127 138.577 30.9187C138.664 31.1145 138.768 31.0802 138.897 31.0373C138.931 31.0262 138.966 31.0147 139.003 31.0062C138.928 31.2587 138.965 31.2758 139.03 31.3046C139.075 31.3253 139.135 31.3522 139.176 31.4754C139.236 31.6569 139.232 31.7964 139.228 31.9649C139.226 32.0197 139.224 32.0775 139.225 32.1407ZM86.1158 48.4077C86.2649 48.4126 86.2985 48.4859 86.3286 48.5518C86.3542 48.6076 86.3772 48.6579 86.4655 48.6569C86.5405 48.656 86.6093 48.5849 86.6798 48.5118C86.7411 48.4484 86.8037 48.3836 86.8727 48.3627C87.1865 48.2676 87.622 48.2992 88.0216 48.3283C88.2092 48.342 88.3887 48.3549 88.5442 48.354C88.8005 48.3526 89.047 48.3068 89.2911 48.2616L89.2911 48.2614C89.5202 48.219 89.7469 48.1768 89.9777 48.1721C90.174 48.1682 90.3105 48.22 90.4871 48.2954C90.4999 48.3009 90.5123 48.3061 90.5242 48.3112C90.6892 48.3815 90.7705 48.4162 90.8148 48.4775C90.8577 48.5371 90.8659 48.6221 90.8818 48.7897L90.8824 48.7965C90.9662 49.6824 90.7123 50.5836 90.4583 51.4842C90.1259 52.664 89.7937 53.8425 90.2216 54.9842C87.3567 54.6186 84.4763 54.3329 81.5852 54.3293C81.6153 54.0767 81.6474 53.8246 81.6794 53.5724C81.7851 52.7403 81.8907 51.9091 81.9273 51.0693C81.944 50.6851 81.9496 50.3008 81.9553 49.9163L81.9553 49.9161C81.9568 49.8037 81.9586 49.6911 81.9605 49.5785C81.9708 48.9857 81.9852 48.9845 82.4205 48.9478C82.4482 48.9454 82.4777 48.943 82.509 48.9402C82.6642 48.9264 82.7689 48.8695 82.879 48.8095C82.9632 48.7636 83.0508 48.7159 83.1669 48.6843C83.3017 48.6475 83.3795 48.683 83.4723 48.7253C83.518 48.746 83.5671 48.7684 83.6285 48.7845C83.868 48.8482 83.9406 48.8366 84.0815 48.8144C84.1361 48.8056 84.2009 48.7953 84.2897 48.7872C84.4555 48.7719 84.614 48.7674 84.7673 48.763C85.2451 48.7493 85.673 48.7369 86.1158 48.4077ZM138.642 36.6785C138.603 36.6493 138.565 36.6203 138.526 36.5911C137.912 37.5727 137.462 38.6184 137.005 39.6778C136.939 39.8321 136.872 39.9868 136.805 40.1417C136.53 40.7734 136.257 41.4054 135.984 42.0377C135.934 42.154 135.875 42.2738 135.816 42.3962C135.617 42.8027 135.405 43.2375 135.436 43.662C136.169 42.7799 136.875 41.8748 137.553 40.9496C137.883 40.4985 138.208 40.0428 138.526 39.5832C138.568 39.5236 138.618 39.461 138.669 39.3964C138.781 39.2562 138.901 39.1066 138.956 38.9569C139.026 38.7649 139.08 38.7121 139.071 38.6748C139.062 38.6402 138.999 38.6192 138.843 38.5128C138.994 38.3778 139.075 38.4298 139.143 38.4731C139.182 38.4977 139.216 38.5196 139.256 38.5022C139.355 38.4595 139.501 38.3079 139.616 38.1878C139.663 38.1383 139.706 38.0941 139.738 38.0653C139.663 38.034 139.538 37.9949 139.394 37.9493C139.021 37.832 138.515 37.6732 138.392 37.5001C138.195 37.2235 138.463 37.035 138.727 36.85C138.752 36.8327 138.776 36.8155 138.8 36.7982C138.747 36.7583 138.695 36.7184 138.642 36.6785Z" fill="#EBA06F"/>
<path fill-rule="evenodd" clip-rule="evenodd" d="M68.9028 71.1295C68.7945 71.4673 68.6074 71.6102 68.7452 71.9488C68.8621 72.2364 69.2686 72.4641 69.5637 72.4301L68.9028 71.1295ZM62.5957 57.8998L61.122 58.2171C61.4635 58.6436 61.7845 59.0875 62.1708 59.4762L62.5957 57.8998ZM85.7983 61.9324C85.1639 61.5109 84.4122 61.3821 83.6772 61.25C83.717 61.8723 83.757 62.4948 83.7971 63.1171C84.4641 62.7222 85.1314 62.3273 85.7983 61.9324ZM63.9597 107.13C63.8535 106.874 63.155 104.918 62.9526 104.99C62.8453 105.028 62.7146 106.055 62.6823 106.2C62.5675 106.714 62.4526 107.227 62.3379 107.741C62.9045 107.614 63.5041 107.524 63.9597 107.13ZM59.3211 91.4303C59.4114 91.8551 59.5018 92.2799 59.5921 92.7048C59.635 92.9068 59.6395 93.1977 59.7361 93.3829C59.8616 93.6232 59.7313 93.7402 59.9632 93.5212C60.2123 93.286 60.3606 92.597 60.4934 92.2882C60.6951 91.8192 60.8967 91.3504 61.0983 90.8815C60.4221 90.795 59.9451 91.3044 59.3211 91.4303ZM47.9657 65.6921C47.0653 66.1628 46.1552 66.6276 45.3464 67.2497C45.9883 67.286 46.8229 67.831 47.4476 67.6964C47.7176 67.7887 47.8217 67.6943 47.7603 67.4128L47.8274 66.8513L47.9657 65.6921ZM59.8261 71.1977L59.4289 74.5258C60.2852 73.9551 61.1768 73.4364 62.0078 72.8279C61.2806 72.2845 60.5535 71.7412 59.8261 71.1977ZM86.5789 83.1374C86.1568 84.5898 85.9612 86.1129 85.7151 87.6043C85.6714 87.869 85.5213 88.2575 85.6704 88.5117C85.8201 88.7665 86.3105 88.9564 86.5527 89.1119C87.2341 89.5496 87.9095 89.9968 88.5884 90.4386C87.9186 88.0049 87.2488 85.5711 86.5789 83.1374ZM106.033 76.2179C107.922 75.5519 109.812 74.886 111.701 74.2199C110.04 73.2688 108.379 72.3178 106.718 71.3667C106.489 72.9838 106.261 74.601 106.033 76.2179ZM87.1688 78.1635C87.4922 78.2259 87.6924 76.9873 87.7856 76.6645C87.9629 76.0519 88.1428 75.4401 88.3253 74.8289C88.6903 73.6073 89.0661 72.3888 89.4535 71.1741C90.2284 68.7451 91.0514 66.3313 91.9298 63.9379C91.3153 63.7495 90.7481 63.5991 90.1566 63.3427C89.6789 63.1356 89.0793 63.1457 88.6738 62.7852C88.4786 63.9325 88.6197 65.1939 88.5884 66.3608C88.5523 67.7109 88.46 69.0472 88.289 70.3874C87.9572 72.9845 87.5483 75.5731 87.1688 78.1635ZM41.8873 108.482C42.2064 108.437 42.2924 104.139 42.3467 103.524C42.5047 101.744 42.7061 99.9675 42.9495 98.1971C41.1582 99.0452 39.3381 99.8058 37.4741 100.465C37.8563 101.107 38.2046 101.792 38.6398 102.399C39.0884 103.024 39.6249 103.556 40.0305 104.22C40.8469 105.558 41.3405 107.024 41.8873 108.482ZM84.9846 88.1388C85.2146 86.8703 85.4386 85.6038 85.7193 84.3452C85.8389 83.8096 86.7057 80.9913 85.8604 80.959C85.3795 80.9407 84.4608 81.5393 83.9948 81.732C83.3794 81.9863 82.7633 82.2396 82.1457 82.4887C80.9269 82.9802 79.7021 83.4568 78.4801 83.9404C80.6482 85.3399 82.8164 86.7394 84.9846 88.1388ZM83.1849 60.9768C82.2398 60.7916 81.3264 60.6106 80.407 60.3204C79.9112 60.1639 79.4024 60.1166 78.9002 59.991C78.5404 59.9009 77.8624 59.5152 77.5104 59.5729C77.0681 59.6455 76.6565 61.7738 76.5334 62.3056C76.3351 63.1622 76.1455 64.2075 76.4351 65.069C76.9932 66.7296 79.1489 65.7427 80.2051 65.2002C81.1105 64.7349 82.128 64.2758 82.9531 63.6784C83.6839 63.149 83.2479 61.781 83.1849 60.9768ZM86.0905 78.6578C86.8437 78.4524 86.876 78.0854 86.9972 77.3359C87.1444 76.4253 87.2759 75.5118 87.4113 74.5993C87.6525 72.9734 87.8913 71.3463 88.0716 69.7121C88.2479 68.1158 88.36 66.5144 88.367 64.9079C88.3695 64.3398 88.5478 63.3904 88.3101 62.8772C88.0932 62.4091 87.2589 62.3049 86.8001 62.2775C86.2829 62.2464 85.8085 62.6855 85.3926 62.9492C84.932 63.2415 84.0119 63.6204 83.8822 64.1227C83.737 64.6835 83.9525 65.5342 84.0076 66.1016C84.2096 68.1724 84.51 70.2349 84.8406 72.2884C85.1835 74.4189 85.5319 76.5711 86.0905 78.6578ZM68.4122 71.6486C68.5126 71.2007 68.7262 70.8421 68.5501 70.3831C68.3988 69.9883 68.1249 69.5772 67.9276 69.1971C67.3632 68.1084 66.7104 67.0522 66.0794 66.0012C65.5015 65.0386 64.9057 64.0834 64.2917 63.1435C63.9497 62.6202 63.5942 62.1056 63.2414 61.5895C62.9829 61.2117 62.7566 60.6972 62.3547 60.4676C61.8082 62.3944 61.315 64.3363 60.8777 66.2909C60.6665 67.2358 60.4683 68.1836 60.2835 69.1341C60.2313 69.4023 59.9127 70.2913 60.0165 70.5593C60.1258 70.8409 60.9445 71.2979 61.1887 71.4916C61.8714 72.0333 62.3624 72.7853 63.1522 72.123C63.6959 71.667 64.1709 70.9893 64.7636 70.6055C65.0724 70.4055 65.3356 70.448 65.6673 70.347C66.0529 70.2298 66.083 70.076 66.4947 70.3474C67.1882 70.8044 67.5713 71.4032 68.4122 71.6486ZM30.2767 77.346C30.1144 78.7058 29.8882 79.8126 30.6767 81.0232C31.3658 82.0811 32.1746 82.4034 33.26 82.918C33.8992 83.2209 33.9703 83.0205 34.5548 82.7075C35.1104 82.4103 35.703 82.1894 36.2528 81.88C37.4379 81.2132 38.6252 80.5213 39.7845 79.8094C40.1742 79.5701 40.1102 79.66 40.0965 79.3153C40.0838 79.0012 39.9099 78.5826 39.8242 78.2751C39.6693 77.7188 39.4735 77.175 39.2773 76.6321C39.0547 76.0161 38.8756 75.3545 38.5775 74.7694C38.4538 74.5266 38.2994 74.3018 38.1482 74.0759C37.8299 73.6 37.8411 73.6176 37.3568 73.9176C36.3341 74.5512 35.3691 75.2541 34.2487 75.7112C32.9231 76.2523 31.5999 76.7983 30.2767 77.346ZM59.6875 70.1733C60.0554 68.2372 60.4392 66.3139 60.9047 64.3985C61.1439 63.415 61.4023 62.4366 61.6569 61.4571C61.7607 61.0583 62.0554 60.4033 61.9835 59.9952C61.9129 59.5936 61.4412 59.163 61.1916 58.8488C61.1245 58.7643 60.9284 58.42 60.8296 58.3938C60.7237 58.3659 60.2829 58.6149 60.1581 58.6679C59.7164 58.8561 59.2807 59.0573 58.8499 59.2694C58.0382 59.6692 57.2456 60.1076 56.4663 60.5675C54.8321 61.5318 53.257 62.5914 51.6498 63.5996C52.8521 64.9392 54.3959 66.0525 55.7836 67.1869C56.604 67.8577 57.4298 68.5228 58.2695 69.1692C58.6953 69.4968 59.1771 69.9774 59.6875 70.1733ZM37.1604 102.891C35.9901 103.48 34.8638 104.114 33.5823 104.429C32.3064 104.742 31.0786 104.775 29.784 104.897C29.1312 104.959 28.515 105.038 27.854 105.057C27.4835 105.067 26.9226 104.979 26.5723 105.094C26.2843 104.995 26.167 105.084 26.2206 105.359C26.2139 105.442 26.2072 105.524 26.2006 105.607C26.1474 106.763 26.7179 108.23 27.2479 109.238C27.5572 109.827 27.9737 110.39 28.393 110.904C28.8665 111.484 29.1315 111.885 29.9032 111.757C31.204 111.543 32.4011 110.941 33.7141 110.77C34.7526 110.634 35.654 110.197 36.6701 110.037C37.9233 109.839 39.1696 109.592 40.4329 109.452C40.0106 108.325 39.6516 107.161 39.0648 106.105C38.4631 105.02 37.7827 103.966 37.1604 102.891ZM48.0769 67.9557C50.291 68.6787 52.6994 69.3909 54.5893 70.8064C55.3268 71.3588 56.2466 72.1864 56.3655 73.161C56.5078 74.3259 55.3337 74.8968 54.3807 75.1414C53.2365 75.435 52.0268 75.4555 50.8521 75.4509C50.2303 75.4485 49.6095 75.4136 48.9891 75.375C48.487 75.344 47.6543 75.1333 47.1748 75.2769C46.896 75.1858 46.7832 75.2899 46.8363 75.5895C46.8185 75.6926 46.8009 75.796 46.7833 75.8991L46.6246 76.8266C46.519 77.4442 46.4133 78.062 46.3075 78.6796C46.0775 80.025 45.8473 81.3706 45.6172 82.7161C46.8932 82.1204 47.9767 81.1788 49.2317 80.5306C49.8284 80.2224 50.4212 79.913 51.0154 79.6058C51.2646 79.4771 51.4317 79.2748 51.676 79.1563C51.9999 78.9991 52.2805 78.9148 52.593 78.6955C53.869 77.8001 55.2575 77.0602 56.5932 76.258C57.2 75.8933 57.8553 75.5698 58.4389 75.1707C59.0501 74.7526 59.0211 74.3449 59.0906 73.6473C59.1643 72.9087 59.5435 72.026 59.5031 71.3005C59.637 71.0719 59.5741 70.9122 59.3147 70.8215C59.1503 70.6862 58.986 70.5509 58.8216 70.4156C58.4937 70.1457 58.1659 69.8758 57.8381 69.6061C56.5339 68.5327 55.2299 67.4592 53.9257 66.3858C53.2743 65.8496 52.6228 65.3134 51.9713 64.7772C51.7893 64.6276 51.2148 63.9805 50.9917 63.9709C50.7642 63.9611 50.3203 64.3555 50.1345 64.4757C49.8495 64.6599 49.5708 64.8563 49.2681 65.0112C49.1169 65.0915 48.9608 65.1606 48.7999 65.2187C48.5544 65.2131 48.4542 65.3366 48.4989 65.589C48.204 66.2486 48.2044 67.241 48.0769 67.9557ZM75.6743 104.005C75.4479 101.538 75.1255 98.6105 73.3176 96.735C71.484 94.8328 68.4372 95.1195 66.6152 96.8788C65.7027 97.7601 65.0714 98.8553 64.5622 100.008C64.0393 101.19 63.2939 102.723 63.2404 104.034C63.2169 104.608 63.6306 105.278 63.8495 105.808C64.0753 106.355 64.178 107.113 64.8757 107.016C65.9574 106.866 67.0996 106.36 68.135 106.025C69.1824 105.685 70.2726 105.433 71.3547 105.114C72.0732 104.902 72.8093 104.763 73.5266 104.547C74.2066 104.342 75.0677 104.375 75.6743 104.005ZM107.733 93.2991C109.104 93.9838 109.947 93.2503 111.066 92.4448C112.125 91.6817 113.261 90.9617 114.254 90.1134C115.278 89.2387 116.134 88.1627 116.966 87.1106C117.808 86.0474 118.909 84.9219 119.496 83.6958C119.794 83.0721 119.974 82.3631 120.194 81.7078C120.246 81.5501 120.543 80.975 120.488 80.8304C120.412 80.6316 119.789 80.5371 119.62 80.4894C118.279 80.1096 116.832 79.9259 115.438 79.9559C112.74 80.0138 110.344 81.2396 109.194 83.746C107.846 86.6842 107.913 90.1367 107.733 93.2991ZM101.608 65.6877C101.523 66.2141 102.771 66.5122 103.084 66.6748C103.808 67.0501 104.526 67.4409 105.222 67.8659C106.655 68.7411 108.217 69.3864 109.569 70.399C112.482 72.582 115.727 74.263 118.681 76.371C119.142 76.6996 120.026 77.4642 120.596 77.4764C120.898 77.4829 120.647 77.6975 120.897 77.2444C120.988 77.0813 121.037 76.8612 121.098 76.6822C121.281 76.146 121.438 75.6015 121.635 75.07C121.959 74.1951 122.28 73.3859 122.482 72.4711C122.567 72.0835 122.656 71.6967 122.708 71.3028C122.76 70.9035 122.972 69.9125 122.833 69.5449C122.741 69.301 122.708 69.3769 122.417 69.2765C122.25 69.219 122.08 69.1204 121.921 69.0492C121.548 68.8823 121.175 68.72 120.773 68.6361C120.376 68.553 120.134 68.4002 119.767 68.2843C119.381 68.1627 118.965 68.2046 118.575 68.0527C118.154 67.8886 117.96 67.7613 117.501 67.7501C117.056 67.7392 116.941 67.6265 116.525 67.455C116.178 67.3119 115.741 67.3309 115.37 67.2557C114.921 67.1645 114.476 67.0539 114.027 66.9638C112.006 66.5585 109.914 66.552 107.871 66.289C106.761 66.146 105.653 66.1806 104.549 65.9972C103.584 65.837 102.58 65.7278 101.608 65.6877ZM105.629 77.0927C104.591 77.3529 103.598 77.8581 102.615 78.2779C101.481 78.762 100.388 79.2898 99.3189 79.905C97.5213 80.9396 95.4188 82.1864 94.7277 84.2837C94.0187 86.4361 95.7147 88.4715 97.3993 89.5879C99.3205 90.8609 101.635 91.6769 103.827 92.3372C104.194 87.2311 104.857 82.1519 105.629 77.0927ZM74.5173 85.5033C73.8955 85.5981 73.3432 85.8942 72.7532 86.0916C72.2249 86.2685 71.7195 86.3891 71.2159 86.6378C70.3953 87.0433 69.462 87.3629 68.6202 87.6517C66.5373 88.3661 64.4844 89.3171 62.4088 90.1366C61.8587 90.3539 61.6684 90.5099 61.4248 91.0631C61.1603 91.664 60.9062 92.2705 60.6484 92.8744C60.408 93.4377 60.0609 94.0292 60.0591 94.6539C60.0577 95.1974 60.2741 95.736 60.4243 96.2498C60.8027 97.5428 61.2276 98.8215 61.6726 100.093C62.0719 101.234 62.4171 102.436 62.9765 103.508C63.8318 100.818 64.6726 97.7902 66.9647 95.9365C69.2552 94.0842 72.5136 94.4431 74.2215 96.8413C75.0328 97.9805 75.4468 99.3427 75.7384 100.697C75.8915 101.408 75.966 102.123 76.0328 102.847C76.1041 103.62 76.0166 104.015 76.8741 103.886C77.5549 103.783 78.2711 103.722 78.942 103.592C79.2901 103.525 79.6314 103.443 79.6783 103.18C79.7376 102.847 79.3692 102.107 79.2738 101.776C78.7813 100.066 78.2887 98.3571 77.7961 96.6479C77.2611 94.7919 76.726 92.9358 76.1907 91.08C75.9238 90.1539 75.6566 89.2279 75.3894 88.302C75.1457 87.4578 75.0053 86.2308 74.5173 85.5033ZM105.898 75.3121C106.005 74.51 106.114 73.7082 106.22 72.9059C106.284 72.4278 106.607 71.5274 106.232 71.1357C105.999 70.8929 105.253 70.639 104.944 70.4549C104.334 70.0919 103.652 69.881 103.038 69.5194C100.634 68.1029 98.1043 66.8603 95.5991 65.651C95.059 65.3901 94.5021 65.163 93.9579 64.9047C93.664 64.7653 92.6023 64.0257 92.3002 64.1501C92.0356 64.2588 91.6518 65.8841 91.5316 66.2167C91.2469 67.0041 90.9703 67.7946 90.7005 68.5874C89.653 71.6652 88.7109 74.7781 87.8076 77.9011C89.2603 77.5382 90.7015 76.7812 92.0989 76.2297C93.5505 75.6569 94.9972 75.0853 96.4561 74.5305C96.8679 74.3738 98.3427 73.6041 98.6181 74.0081C99.0598 74.6565 97.758 75.1998 97.4078 75.4132C96.0532 76.2386 94.6436 76.9308 93.2179 77.6216C91.7405 78.3377 90.2196 78.9445 88.737 79.6436C88.2019 79.896 87.3617 80.1807 87.1031 80.6839C86.7705 81.3314 86.8539 82.1764 87.0059 82.851C87.379 84.5086 87.808 86.1531 88.2742 87.7867C88.4862 88.5295 88.7062 89.27 88.9323 90.0085C89.2014 90.8881 89.6644 91.1225 90.4222 91.603C93.6506 93.6498 97.0215 95.629 100.084 97.9172C99.4577 98.4871 98.2408 97.2833 97.7292 96.9542C96.7817 96.3446 95.833 95.7364 94.8864 95.1254C93.123 93.9873 91.3712 92.832 89.5945 91.7146C90.4731 94.6092 91.5811 97.4293 92.8557 100.171C92.4408 100.259 92.5372 100.277 92.3155 100.007C92.1289 99.7797 92.0347 99.3664 91.9223 99.0952C91.6897 98.5351 91.4613 97.9734 91.2264 97.4143C90.7391 96.254 90.2274 95.1074 89.7973 93.9239C89.4737 93.0339 89.3206 91.5274 88.5002 91.0002C87.478 90.3431 86.4397 89.6984 85.4184 89.0339C84.9192 93.2156 84.7311 97.3404 84.6752 101.549C84.6725 101.761 84.7992 102.404 84.4021 102.295C84.223 102.246 84.2984 101.092 84.295 100.848C84.279 99.7331 84.2856 98.6177 84.3152 97.5028C84.3747 95.2782 84.5279 93.0557 84.7774 90.8442C84.2606 92.9615 83.7437 95.0789 83.2268 97.1963L82.4921 100.206C82.3634 100.733 82.2348 101.26 82.1061 101.787C82.0471 102.029 82.0275 102.353 81.9134 102.577C81.7339 102.929 81.7828 102.906 81.3378 103.024C82.078 100.275 82.7878 97.5169 83.4548 94.749C83.7804 93.3984 84.0958 92.0454 84.3996 90.6898C84.4813 90.3253 84.5622 89.9604 84.6423 89.5956C84.683 89.4095 84.9173 88.8236 84.846 88.6565C84.7754 88.491 84.2045 88.2589 84.0439 88.1596C83.6925 87.9421 83.3411 87.7249 82.9901 87.5066C81.8508 86.7974 80.7129 86.0837 79.5902 85.3486C79.099 85.0269 78.5993 84.5609 78.048 84.3548C77.4991 84.1496 77.0409 84.4947 76.5276 84.6877C76.1282 84.8378 75.2109 84.9917 74.9201 85.293C74.6495 85.5734 75.2284 86.8939 75.365 87.3715C75.7499 88.7191 76.135 90.0668 76.52 91.4143C77.3006 94.1466 78.0814 96.8789 78.8621 99.6114C79.053 100.279 79.2438 100.947 79.4346 101.615C79.5569 102.043 79.7036 103.239 80.113 103.334C80.2941 103.376 80.6194 103.212 80.8037 103.175C81.0786 103.121 81.3229 103.152 81.5939 103.138C82.0905 103.114 82.6259 102.922 83.125 102.803C84.4076 102.496 85.7161 102.355 87.0051 102.079C88.3 101.802 89.5809 101.47 90.871 101.192C92.0426 100.939 93.2308 100.634 94.3722 100.26C95.5775 99.8643 96.8045 99.5351 97.9874 99.0783C100.142 98.2462 102.266 97.4824 104.214 96.379C104.672 96.1195 105.158 95.862 105.614 95.5801C106.014 95.3327 106.753 95.0565 107.047 94.7036C107.159 94.569 107.275 94.2925 107.185 94.1062C107.088 93.906 106.561 93.8602 106.319 93.7977C105.556 93.601 104.794 93.4041 104.032 93.2074C104.03 93.7251 104.029 94.2424 104.011 94.7601C103.998 95.1254 104.098 96.1068 103.776 96.3559C103.425 95.9319 103.687 94.8205 103.711 94.3144C103.725 94.0439 103.855 93.527 103.764 93.2747C103.664 92.9982 103.3 92.9584 102.98 92.8478C101.62 92.3788 100.268 91.96 98.9751 91.3196C96.7908 90.2379 94.2275 88.5457 94.0327 85.8486C93.8296 83.0369 96.4477 80.9342 98.5957 79.636C99.8818 78.8588 101.228 78.2137 102.611 77.6305C103.257 77.3582 103.903 77.0856 104.552 76.821C104.788 76.7248 105.546 76.5589 105.688 76.3584C105.834 76.1532 105.843 75.5591 105.898 75.3121ZM52.0605 111.694C51.9433 111.735 51.826 111.776 51.709 111.817C53.3595 108.449 54.9968 105.096 56.4534 101.638C57.1565 99.9685 57.8659 98.302 58.5854 96.6399C58.896 95.923 59.5629 94.9643 59.5035 94.1761C59.4392 93.323 59.1522 92.3896 58.9429 91.5607C56.8513 92.5538 54.7264 93.4791 52.609 94.4127C50.7108 95.25 48.7963 95.9677 46.8869 96.7924C45.9086 97.2149 44.9219 97.4614 43.9151 97.7818C43.0971 98.0423 43.2695 99.1577 43.1946 99.88C42.93 102.43 42.6231 104.985 42.4739 107.545C42.4195 108.478 42.2201 109.533 42.7165 110.374C43.3514 111.449 43.9294 112.537 44.4918 113.656C44.7025 114.075 45.5315 116.308 45.9397 116.31C46.2063 116.312 46.5501 115.489 46.7057 115.302C47.0412 114.901 47.5004 114.576 47.9195 114.27C49.7296 112.95 51.6649 112.099 53.676 111.216C55.7193 110.319 57.7978 109.506 59.8701 108.672C60.3383 108.483 60.8323 108.366 61.2983 108.172C61.4824 108.095 61.8429 107.981 61.9722 107.821C62.1657 107.58 62.1967 106.853 62.2676 106.546C62.4127 105.919 62.616 105.273 62.699 104.634C62.7809 104.003 62.4665 103.414 62.2573 102.83C61.3391 100.266 60.4559 97.6993 59.7034 95.08C58.5296 97.877 57.3162 100.655 56.1578 103.459C55.553 104.922 54.864 106.351 54.1882 107.782C53.8432 108.514 53.4967 109.244 53.152 109.975C52.8835 110.545 52.6772 111.401 52.0605 111.694ZM75.9114 59.1891C75.2706 59.1198 74.7019 58.9563 74.092 58.7478C73.8683 58.6714 73.669 58.6266 73.4387 58.5782C73.1776 58.5234 72.9549 58.3516 72.7269 58.2959C72.5546 58.254 72.2405 58.291 72.0668 58.3272C71.6642 58.4109 71.6844 58.3468 71.6145 58.7951C71.5062 59.4878 71.4041 60.1813 71.2831 60.8718C70.8064 63.5898 70.193 66.2645 69.4722 68.9266C69.3264 69.4647 69.0155 70.1561 69.0744 70.7148C69.1275 71.2185 69.4878 71.7927 69.7179 72.2373C70.1914 73.1517 71.4944 73.7312 72.4175 74.0846C73.3909 74.4575 74.4218 74.675 75.3484 75.0144C75.6051 75.1085 75.9216 75.0345 76.1957 75.1308C76.4492 75.2199 76.6343 75.3872 76.8626 75.5196C77.422 75.8436 78.0751 75.969 78.6607 76.2375C79.8218 76.7699 81.1173 76.901 82.2813 77.4182C82.579 77.5503 82.8172 77.8223 83.1046 77.94C83.3675 78.0476 83.6579 77.9926 83.9374 78.0685C84.5295 78.2293 85.0668 78.5028 85.1285 79.1677C85.5319 78.9194 85.574 79.0024 85.5642 78.5426C85.558 78.2478 85.4391 77.8756 85.3842 77.5856C85.2444 76.8461 85.1033 76.107 84.9637 75.3675C84.6875 73.9043 84.4142 72.4403 84.1741 70.9707C83.9591 69.6562 83.7786 68.3359 83.6413 67.0109C83.5715 66.3372 83.5263 65.6635 83.4781 64.9888C83.4639 64.793 83.5369 64.4932 83.3602 64.3429C83.1999 64.2066 82.744 64.5726 82.5442 64.6842C81.1485 65.463 77.8734 67.8686 76.4617 66.0504C75.7014 65.0714 75.9358 63.5377 76.1648 62.4174C76.3054 61.7287 76.5092 61.0568 76.7272 60.3893C76.7815 60.2227 77.0552 59.6994 76.9935 59.5688C76.9267 59.4282 76.0787 59.2479 75.9114 59.1891ZM119.226 79.7942C119.563 79.8734 119.9 79.9527 120.238 80.032C120.239 79.7515 120.317 79.3386 120.243 79.0684C120.141 78.6948 119.792 78.6128 119.42 78.4186C118.832 78.1117 118.228 77.8338 117.649 77.5098C116.392 76.8068 115.142 76.0968 113.884 75.3937C113.332 75.0854 112.698 74.613 112.045 74.733C111.341 74.8626 110.619 75.2117 109.947 75.4501C109.186 75.7202 108.425 75.991 107.664 76.2619C107.308 76.389 106.951 76.516 106.594 76.6431C106.033 76.8426 105.96 76.8608 105.846 77.4558C105.267 80.4995 104.903 83.6896 104.628 86.7739C104.489 88.3479 104.247 89.9184 104.173 91.4974C104.167 91.6189 104.077 92.2973 104.141 92.399C104.231 92.5422 104.972 92.6753 105.146 92.7293C105.826 92.9395 106.521 93.0653 107.215 93.212C107.476 89.6225 107.372 85.3299 109.591 82.283C111.821 79.2219 115.834 78.9803 119.226 79.7942ZM91.4684 40.8612C91.7306 40.4156 92.1328 40.0609 92.4853 39.6846C92.6759 39.4811 92.9914 39.2483 93.1276 38.9999C93.3213 38.6464 93.311 38.7258 93.1266 38.3739C92.9522 38.0414 92.9592 38.0187 92.6394 37.9248C92.3701 37.8457 92.0681 37.8894 91.7934 37.8055C91.5157 37.7206 90.7642 37.388 90.9971 36.9568C90.987 36.9757 91.4649 36.8067 91.5046 36.7722C91.6327 36.662 91.7001 36.4025 91.7739 36.2596C92.0114 35.8017 92.1117 35.4989 91.9718 34.9645C91.7627 34.1664 90.6034 33.7992 89.8344 33.9676C89.4499 34.0515 89.207 34.298 89.0004 34.6194C88.869 34.8236 88.8071 35.1339 88.6483 35.3063C88.4088 35.5658 88.4 35.5328 87.9798 35.4317C87.4449 35.3031 87.0249 35.0412 86.5282 34.8342C85.9873 34.6086 85.5846 34.888 85.0643 35.0899C84.1249 35.4547 83.2523 35.5161 82.254 35.4726C81.1423 35.4243 80.1529 35.0362 79.0703 34.8374C79.1974 36.1774 79.8027 37.3253 80.2466 38.578C80.3245 38.7983 80.4653 39.0308 80.4406 39.2719C80.4176 39.4991 80.0532 39.7685 80.0676 39.9604C80.0987 40.37 80.9395 40.7953 81.2591 40.9477C82.163 41.3784 83.1612 42.1296 84.2277 42.003C84.8125 41.9336 85.2257 41.0709 85.7685 41.0687C86.4967 41.0653 85.8493 41.9271 85.678 42.2296C86.678 42.5063 87.9846 42.5289 89.0007 42.2992C89.51 42.1842 89.9548 41.9749 90.4313 41.7716C91.0248 41.5185 91.1507 41.4445 91.4684 40.8612ZM71.3251 58.1749C69.5058 57.9884 67.6948 57.5066 65.8462 57.53C65.418 57.5353 64.9913 57.5753 64.5657 57.6212C64.2597 57.6543 63.3071 57.5994 63.082 57.7975C62.877 57.9782 62.7645 58.9095 62.6959 59.1676C62.5431 59.7423 62.5411 59.9467 62.8592 60.4432C63.9059 62.0766 65.0086 63.6718 66.0354 65.3196C67.0216 66.9025 67.7801 68.6301 68.7813 70.194C69.6246 68.4444 69.9234 66.2595 70.3235 64.3671C70.5368 63.3581 70.7419 62.3472 70.9421 61.3357C71.1326 60.3721 71.5366 59.1404 71.3251 58.1749ZM45.5286 74.5963C45.7386 74.6213 46.0657 74.7272 46.2777 74.6857C46.5476 74.8087 46.654 74.7143 46.597 74.4029C46.614 74.2984 46.631 74.1937 46.6481 74.0891C46.7583 73.4149 46.8714 72.7413 46.9836 72.0675C47.0863 71.4514 47.1882 70.8352 47.2866 70.2184C47.3538 69.7974 47.6923 68.7742 47.5673 68.3719C47.4833 68.1014 47.2048 68.1273 46.879 68.0503C46.5691 67.9772 46.2579 67.9066 45.9512 67.8205C45.5621 67.7112 45.1395 67.5165 44.7253 67.5574C44.3092 67.5985 43.9697 67.9383 43.6231 68.1389C43.0746 68.456 42.5169 68.7579 41.9648 69.0687C40.9614 69.6338 39.9659 70.2123 38.969 70.7886C38.5573 71.0265 38.4964 70.9196 38.6321 71.3484C38.7161 71.6133 38.9413 71.9286 39.072 72.1745C39.3322 72.6641 39.5634 73.3869 39.9226 73.8019C40.4454 74.4058 42.1131 74.261 42.8926 74.3502C43.7814 74.4518 44.6362 74.5678 45.5286 74.5963ZM47.8333 74.8265C48.6127 74.8429 49.3871 74.9684 50.1651 74.9561C51.0109 74.9425 51.8572 74.8739 52.703 74.8478C53.5461 74.822 56.126 74.6181 56.0251 73.3498C55.9186 72.0092 54.0833 70.9947 53.0685 70.4272C51.4836 69.5408 49.7873 68.965 48.0803 68.3671C47.7202 69.5145 47.6014 70.7783 47.4193 71.9628C47.3204 72.6061 47.224 73.2506 47.1472 73.8971C47.1286 74.0527 47.0368 74.3692 47.0829 74.5215C47.1912 74.8797 47.3798 74.7724 47.8333 74.8265ZM45.2328 75.0865L40.3158 74.4996C40.8633 76.0957 41.3676 77.7152 41.9753 79.2895C42.5806 80.8578 43.4206 82.3676 44.1381 83.8892C44.3918 83.6712 44.7817 83.4484 44.969 83.1753C45.1765 82.8732 45.2284 82.3984 45.3006 82.0286C45.488 81.0689 45.6373 80.0959 45.7775 79.1283C45.9003 78.2808 46.0384 77.441 46.2048 76.6009C46.2412 76.4166 46.5613 75.4751 46.4631 75.3023C46.3754 75.1485 45.4476 75.1136 45.2328 75.0865ZM69.0197 47.8711C69.8493 47.97 70.681 48.0587 71.5087 48.1716C72.2598 48.2743 73.2561 48.26 73.8992 48.7306C75.2094 49.6891 72.1591 51.3852 71.5287 51.8285C72.4094 52.2727 73.9255 51.7807 74.863 51.5843C76.0224 51.3415 77.1889 51.2247 78.3608 51.0661C78.6535 51.0265 79.8898 51.028 80.0699 50.8284C80.2484 50.6303 80.062 49.2848 80.0605 49.0055C80.0593 48.743 80.1345 48.3428 80.056 48.0866C80.1569 47.8022 80.0666 47.6875 79.7853 47.7429C79.6917 47.7314 79.5985 47.7198 79.5049 47.7083C78.8126 47.6313 78.1165 47.5808 77.4226 47.5213C75.0376 47.317 72.707 47.146 70.3073 47.2363C69.1917 47.2783 68.0617 47.3589 66.9471 47.4409C66.0089 47.5098 66.1453 47.6779 67.0014 47.7824C67.671 47.8641 68.347 47.8437 69.0197 47.8711ZM139.256 38.5022C139.417 38.3566 139.577 38.2109 139.738 38.0652C139.406 37.9258 139.074 37.7862 138.741 37.6467C138.388 37.4985 138.188 37.4989 138.4 37.109C138.665 36.6204 139.602 36.6727 140.052 36.7068C141.599 36.8238 143.158 37.5077 144.569 38.1147C145.257 38.4109 145.778 38.8042 146.33 39.3105C146.571 39.5316 146.854 39.746 147.058 40.0014C147.269 40.2667 147.333 40.5818 147.539 40.8471C147.877 41.2821 148.345 41.5346 148.467 42.1187C148.606 42.7892 148.26 43.4964 147.873 44.0203C147.48 44.552 146.946 44.9258 146.492 45.3974C146.132 45.7716 145.348 46.8178 146.379 46.8087C146.924 46.8039 147.729 45.97 148.159 45.6507C148.775 45.1929 149.384 44.7219 150.028 44.3039C150.6 43.9333 151.252 43.5612 151.956 43.5682C152.698 43.5754 153.008 44.089 153.297 44.7031C153.57 45.2823 153.561 45.8149 153.732 46.3949C153.815 46.6745 153.942 46.8402 153.975 47.1381C154.025 47.5964 153.978 48.0842 153.976 48.5452C153.974 49.2692 153.985 49.84 153.763 50.5231C153.556 51.1625 153.437 51.8538 153.249 52.507C153.035 53.2467 152.842 53.9924 152.631 54.7326C152.451 55.3598 151.951 56.2237 152.264 56.8641C153.017 58.4032 154.375 56.4319 154.761 55.6809C155.438 54.3612 155.879 52.8828 156.5 51.5276C156.832 50.8028 157.134 50.0673 157.366 49.3036C157.558 48.672 157.596 47.8791 158.017 47.3465C158.345 46.9328 158.873 46.652 159.392 46.8521C160.042 47.1028 160.184 48.104 160.311 48.7176C160.645 50.3358 160.286 51.7144 159.885 53.2761C159.699 53.9992 159.518 54.724 159.263 55.4265C159.091 55.9004 158.503 56.8309 159.171 57.1795C160.118 57.674 161.51 54.9475 161.87 54.3372C162.812 52.7388 163.295 51.0998 163.816 49.3288C163.935 48.9216 164.04 48.5036 164.193 48.1076C164.327 47.763 164.643 47.4362 164.709 47.0836C164.776 46.7307 164.571 46.4544 164.854 46.1338C165.089 45.867 165.453 45.8927 165.781 45.9292C166.55 46.015 167.245 46.441 167.931 46.7718C168.569 47.0795 169.494 47.698 170.231 47.6224C168.253 45.0632 166.278 42.5307 163.805 40.4264C162.657 39.4491 161.504 38.504 160.237 37.6676C158.953 36.8204 157.444 36.1715 156.031 35.583C155.263 35.2628 154.503 34.9131 153.748 34.561C153.077 34.2475 152.378 34.12 151.725 33.7773C150.305 33.0331 148.67 32.6152 147.178 32.0296C146.519 31.7712 145.85 31.537 145.188 31.2914C144.493 31.0332 143.522 30.6132 142.789 30.5552C142.163 30.5057 141.867 31.1962 141.508 31.6582C140.986 32.3288 140.525 33.0354 140.091 33.7653C139.201 35.2608 138.267 36.804 137.568 38.394C137.185 39.267 136.804 40.1414 136.426 41.0165C136.098 41.774 135.377 42.8372 135.436 43.6619C136.802 42.019 138.097 40.2979 139.256 38.5022ZM83.6495 48.1719C83.0344 48.1267 82.4191 48.0814 81.804 48.0363C82.1743 50.118 81.8339 52.247 81.5853 54.3292C84.4763 54.3328 87.3568 54.6185 90.2217 54.9841C89.8164 53.9028 90.1784 52.6061 90.4587 51.5335C90.6228 50.9057 90.7452 50.2966 90.8093 49.6511C90.8693 49.0456 91.1037 48.5584 90.4872 48.2953C89.9981 48.0867 89.6483 48.2953 89.1521 48.3503C88.5578 48.4161 87.926 48.3573 87.3286 48.3604C86.0851 48.3667 84.8929 48.3152 83.6495 48.1719ZM66.7554 50.1233C68.6535 49.832 70.5834 50.2533 72.4761 50.0855C72.102 49.6513 71.2836 49.7844 70.7221 49.7498C70.0837 49.7103 69.4469 49.6611 68.8092 49.6163C68.1872 49.5727 66.4774 49.3211 66.1602 50.0828C66.3584 50.0963 66.557 50.1098 66.7554 50.1233ZM137.377 29.6807C134.948 29.6051 132.434 29.2718 129.997 29.4072C127.206 29.5622 124.321 29.5241 121.569 30.056C118.87 30.5779 116.149 30.844 113.47 31.5153C110.865 32.1678 108.345 32.892 105.847 33.8826C104.625 34.3673 103.428 34.8932 102.248 35.4767C101.096 36.0464 99.8572 36.4782 98.7334 37.0937C97.733 37.6416 96.8658 38.1502 95.9657 38.8603C95.0036 39.6196 94.0619 40.405 93.0992 41.1628C92.2956 41.7949 92.5406 43.6043 92.4721 44.565C92.3771 45.897 92.3302 47.2158 92.3352 48.5509C92.3397 49.8232 92.3376 51.1897 91.9844 52.4165C91.8361 52.9323 91.4323 53.8057 91.5106 54.3475C91.5732 54.7815 92.2849 55.1791 92.6505 55.3617C93.0975 55.5851 93.583 55.5714 94.0368 55.8419C94.5436 56.1442 94.9594 56.4953 95.5129 56.6884C96.1951 56.9265 96.9674 57.1505 97.6869 57.2412C98.3522 57.3249 98.9945 57.6208 99.6426 57.8331C100.697 58.1788 101.743 58.3721 101.52 59.6691C101.262 61.1655 100.512 62.3864 99.9862 63.7733C100.466 63.8306 100.797 63.9013 101.257 63.7832C101.794 63.6455 102.348 63.6579 102.898 63.6364C104.112 63.5887 105.281 63.6665 106.495 63.6885C108.719 63.7287 110.951 64.0221 113.147 64.308C114.259 64.4527 115.457 64.683 116.534 64.9877C117.639 65.3004 118.793 65.551 119.843 66.0231C120.73 66.4213 121.657 66.7313 122.566 67.0982C122.976 67.2635 123.472 67.4171 123.857 67.5932C124.414 67.8486 124.677 68.2824 125.347 68.3533C125.307 67.0887 125.002 65.8836 124.882 64.62C124.757 63.3002 124.337 62.0957 123.868 60.8089C123.659 60.2349 123.525 59.6362 123.327 59.0588C123.106 58.4165 122.753 57.8642 122.467 57.2541C121.88 56.0061 121.24 54.7965 120.667 53.5418C120.167 52.4463 119.574 51.3826 119.011 50.3156C118.392 49.1425 117.45 48.2004 116.719 47.1047C116.411 46.6419 116.116 46.2109 115.761 45.7775C115.433 45.3785 115.002 44.5304 114.44 44.426C114.118 44.366 113.532 44.4821 113.21 44.5434C112.613 44.6572 111.989 44.7033 111.377 44.7929C110.706 44.8911 110.041 45.0435 109.371 45.1329C109.102 45.1685 108.797 45.0999 108.541 45.146C108.274 45.1945 108.047 45.3443 107.755 45.3906C106.315 45.6202 104.878 45.9043 103.432 46.0971C101.943 46.2958 100.44 46.4367 98.9772 46.7951C98.6984 46.8635 98.3731 47.0651 98.1866 46.8849C98.0476 46.7503 97.9881 46.4101 98.0513 46.2233C98.2618 45.6011 99.3081 45.4922 99.8291 45.2946C101.226 44.7648 102.589 44.4366 104.058 44.1389C104.781 43.9926 105.503 43.8304 106.233 43.7164C106.842 43.6213 107.489 43.4144 108.103 43.4017C108.648 43.3903 109.054 43.2241 109.609 43.1002C110.426 42.9177 111.26 42.7872 112.085 42.6465C113.495 42.4057 114.96 42.4086 116.386 42.3045C119.69 42.0634 123.08 42.1499 126.37 42.582C128.029 42.7999 129.773 42.9587 131.382 43.4285C131.77 43.5416 132.604 43.6283 132.834 44.0169C132.958 44.2254 132.845 44.5003 132.857 44.7119C132.879 45.069 133.05 45.2546 133.177 45.5927C133.733 43.9114 134.337 42.273 134.992 40.6291C135.585 39.1414 136.151 37.6221 136.878 36.1723C137.648 34.6383 138.552 33.0224 139.592 31.6586C139.806 31.3778 140.308 30.9511 140.386 30.6179C140.467 30.274 140.012 29.9459 139.682 29.8671C138.941 29.6904 138.118 29.7433 137.377 29.6807ZM150.588 56.2294C151.118 53.8684 152.132 51.4535 152.019 49.0061C151.971 47.9701 151.955 46.9846 151.557 46.007C151.356 45.5127 151.294 45.1598 150.772 45.3748C150.243 45.5924 149.705 46.2216 149.247 46.5688C148.405 47.207 147.525 47.8626 146.556 48.2956C145.793 48.6364 144.331 48.8712 143.905 47.8861C143.5 46.9472 144.326 45.8031 144.901 45.137C145.559 44.375 146.71 43.7338 146.237 42.6403C146.034 42.1697 145.68 42.0104 145.328 41.6755C145.023 41.3855 144.781 41.0282 144.477 40.7338C143.594 39.8805 142.568 39.4375 141.498 38.8824C141.004 38.6259 140.958 38.4347 140.606 38.844C140.224 39.2887 139.965 39.9449 139.667 40.4514C139.069 41.4662 138.447 42.4209 137.721 43.347C136.99 44.2817 136.322 45.2696 135.622 46.2282C135.357 46.5898 135.105 46.9594 134.804 47.2925C134.64 47.4738 134.445 47.6296 134.305 47.8327C134.098 48.1331 134.138 48.4342 133.995 48.7407C133.378 50.0634 132.946 48.0626 132.874 47.5982C132.791 47.0699 132.492 46.6301 132.325 46.1266C132.186 45.7108 132.129 45.1106 131.704 44.8718C131.355 44.6762 130.857 44.8281 130.481 44.8037C129.788 44.759 129.102 44.6205 128.406 44.5812C127.755 44.5443 127.104 44.5295 126.453 44.492C125.802 44.4546 125.169 44.2681 124.523 44.26C123.364 44.2457 122.196 44.0864 121.034 44.1196C119.67 44.1583 118.318 44.2119 116.954 44.2169C117.196 44.8459 117.813 45.1798 118.274 45.6631C118.687 46.0951 118.997 46.5739 119.415 46.9879C119.839 47.4081 120.052 47.9802 120.387 48.4643C120.715 48.9385 121.023 49.34 121.298 49.8595C122.625 52.3681 124.012 54.7972 125.035 57.4595C125.553 58.807 126.03 60.2394 126.325 61.654C126.642 63.1712 126.696 64.7643 126.807 66.3073C126.863 67.0764 126.863 67.72 126.614 68.457C126.55 68.632 126.485 68.8065 126.419 68.9803C126.254 69.1782 126.289 69.3234 126.524 69.4163C126.641 69.6406 126.826 69.7415 126.804 70.0266C126.788 70.2432 126.639 70.4786 126.439 70.578C126.053 70.7698 126.091 70.4531 125.714 70.4793C125.567 70.5377 125.42 70.596 125.273 70.6543C125.213 70.5344 125.151 70.4155 125.087 70.2979C124.879 70.046 124.69 70.0441 124.389 69.953C124.33 71.7725 123.89 73.3507 123.284 75.0602C122.993 75.8822 122.568 76.6701 122.303 77.4967C122.006 78.4201 122.356 78.8986 122.902 79.6033C122.734 79.6669 122.448 79.7234 122.303 79.831C122.073 80.0026 122.123 80.033 122.086 80.3402C122.019 80.9027 121.845 81.4442 121.691 81.9867C121.406 82.9915 121.13 84.0336 120.661 84.9723C119.809 86.6772 118.555 88.4037 117.315 89.847C116.621 90.6547 115.911 91.5816 115.082 92.2511C114.251 92.9228 113.424 93.6022 112.594 94.2765C110.96 95.6038 109.246 96.4509 107.368 97.3665C106.625 97.7293 105.839 98.1302 105.179 98.6135C104.509 99.1045 103.659 99.4029 102.889 99.7259C102.546 99.87 102.285 100.105 101.92 100.213C101.577 100.315 101.344 100.333 101.048 100.485C100.314 100.862 99.5339 101.165 98.7449 101.421C97.7826 101.733 96.8267 102.115 95.8471 102.363C95.4008 102.475 94.978 102.606 94.5419 102.748C94.0698 102.902 93.571 102.98 93.0858 103.146C92.6758 103.286 92.2703 103.348 91.8574 103.453C91.5203 103.539 91.2432 103.71 90.899 103.801C90.1841 103.99 89.5455 104.061 88.8443 104.3C87.9126 104.618 86.8448 104.691 85.8803 104.885C84.8033 105.101 83.6879 105.311 82.5956 105.426C82.1308 105.474 81.7292 105.562 81.2736 105.666C80.9768 105.733 80.6436 105.749 80.3167 105.808C79.4132 105.97 78.5113 106.123 77.608 106.245C75.843 106.483 74.0305 106.805 72.2983 107.208C71.3901 107.419 70.4618 107.692 69.5787 107.994C68.5805 108.334 67.5319 108.474 66.5307 108.81C64.5967 109.458 62.6658 110.132 60.7479 110.826C59.7407 111.19 58.745 111.57 57.7553 111.979C57.3962 112.128 57.0188 112.161 56.6623 112.306C56.196 112.496 55.7947 112.808 55.3181 112.995C53.4812 113.712 51.615 114.372 49.8895 115.352C48.9865 115.865 48.0199 116.385 47.2137 117.045C46.9477 117.262 46.4921 117.594 46.4067 117.945C46.2806 118.465 46.3977 117.987 46.5411 118.334C46.79 118.395 46.8355 118.499 46.6782 118.646C46.6055 118.715 46.5194 118.744 46.4201 118.734C46.0934 118.761 45.5372 118.351 45.2978 118.179C44.8829 117.881 44.6842 117.542 44.4481 117.097C43.9352 116.129 43.4383 115.156 42.9054 114.199C42.4261 113.338 41.9685 112.399 41.4025 111.594C41.0186 111.048 40.9597 111.26 40.4341 111.479C40.043 111.642 39.607 111.679 39.2041 111.829C37.6688 112.399 36.0131 112.757 34.4676 113.097C34.1156 113.175 33.9132 113.34 33.5968 113.468C33.1938 113.63 32.7026 113.674 32.2805 113.773C31.1178 114.046 29.9587 114.335 28.8014 114.63C27.9078 114.858 27.056 115.02 26.3146 115.549C26.0195 115.76 25.6767 115.895 25.3727 116.107C25.0186 116.354 24.5304 116.767 24.1083 116.88L23.84 117.042C23.6878 116.907 23.5354 116.772 23.3826 116.637C23.2312 116.502 23.0796 116.369 22.9285 116.234C22.5491 115.896 22.1732 115.555 21.7968 115.214C20.9431 114.44 20.0826 113.672 19.3042 112.821C17.9215 111.309 16.4722 109.862 15.0091 108.426C13.4735 106.918 11.9875 105.356 10.3845 103.92C8.93157 102.619 7.31366 101.473 5.91634 100.116C5.21301 99.4326 4.51203 98.7459 3.7902 98.0793C3.7509 98.0432 3.15517 97.5711 3.1544 97.5265C3.15266 97.4444 3.38939 97.2588 3.45995 97.1984C3.79408 96.9116 4.15593 96.664 4.48938 96.3735C6.04342 95.0205 7.82973 95.2873 9.73306 95.4419C10.5962 95.512 11.4806 96.0202 12.2644 96.3879C13.2229 96.8375 14.1276 97.4376 15.0415 97.9715C16.9249 99.0719 18.8871 100.054 20.7983 101.093C21.5498 101.502 22.3175 101.749 23.0938 102.061C23.8815 102.378 24.7448 102.268 25.6134 102.388C26.0642 102.45 26.4881 102.528 26.9461 102.556C27.218 102.573 27.5353 102.559 27.8015 102.595C28.0172 102.625 28.2309 102.741 28.4325 102.742C29.3151 102.747 30.2515 102.718 31.1631 102.712C32.0682 102.706 32.995 102.76 33.896 102.689C34.3497 102.653 34.8019 102.58 35.2461 102.48C35.6317 102.393 36.3221 102.325 36.6573 102.097C36.9572 101.892 36.8388 101.875 36.7335 101.47C36.6918 101.311 36.6574 101.072 36.5862 100.914C36.3934 100.487 36.1762 100.335 36.3754 99.8538C36.7263 99.0061 37.6323 98.5464 38.4022 98.2001C40.1365 97.4205 41.7655 96.3493 43.5679 95.7274C47.2818 94.4463 50.7452 92.6195 54.3921 91.161C58.4007 89.5577 62.2484 87.5742 66.299 86.0639C70.0695 84.6582 73.8249 83.2398 77.618 81.8951C79.47 81.2388 81.5425 80.6832 83.2646 79.7384C82.3985 79.5241 81.5337 79.2777 80.6609 79.0942C80.256 79.009 79.8378 78.9932 79.4388 78.8795C78.9924 78.7523 78.5841 78.5166 78.1392 78.3857C77.374 78.1603 76.7038 77.8083 75.934 77.6161C75.1086 77.4099 74.3173 77.0651 73.4835 76.8955C71.7394 76.5407 70.2275 75.7001 68.7814 74.6956C68.4234 74.4468 68.0956 74.5255 67.7458 74.3436C67.5531 74.2437 67.3751 73.9145 67.168 73.7245C66.5975 73.201 66.125 72.6069 65.5905 72.0456C64.0088 74.7007 61.3327 76.3154 58.7716 77.9174C57.4744 78.7286 56.0934 79.3828 54.7861 80.1747C53.7727 80.7887 52.8534 81.3368 51.7951 81.7949C50.779 82.2344 49.7972 82.8747 48.8121 83.4309C48.1443 83.8078 47.3841 84.0618 46.6846 84.3749C46.113 84.6306 45.0146 84.9827 44.7999 85.5447C44.6244 86.0038 44.7894 86.595 44.0943 86.2912C43.472 86.0194 43.0896 85.2454 42.774 84.6946C41.9578 83.2696 41.2122 81.808 40.4713 80.3431C39.8732 81.2336 38.9552 81.8168 38.098 82.4276C37.5772 82.7988 37.0423 83.137 36.4893 83.4577C36.2212 83.6134 35.9507 83.7651 35.6821 83.9203C35.5764 83.9816 35.3429 84.0673 35.2677 84.1624C35.092 84.3851 35.1943 84.2869 35.1826 84.58C35.164 85.0392 35.2728 85.4151 34.9638 85.8203C34.6736 86.2007 34.1267 86.3127 33.7246 86.5481C32.768 87.1087 31.7611 87.7056 30.7258 88.109C30.4909 88.2005 30.2698 88.2777 30.0468 88.3975C29.6747 88.5972 29.727 88.6919 29.4084 88.42C28.9103 87.9943 28.5142 87.3391 28.0778 86.8455C27.1633 85.8111 26.2361 84.7869 25.2935 83.7782C23.4973 81.8557 21.6321 80.0099 19.8643 78.0603C18.1843 76.2076 16.3423 74.5654 14.5921 72.7858C14.1119 72.2977 13.6394 71.8016 13.1672 71.3056C12.7468 70.8642 12.0407 70.3486 11.7546 69.8137C11.3391 69.0369 13.4161 68.2909 14.0249 68.2156C15.0746 68.0859 16.376 68.3871 17.3727 68.7152C18.419 69.0594 19.4243 69.9131 20.3716 70.4832C21.4394 71.1256 22.5362 71.7018 23.6157 72.3169C24.0972 72.5912 24.6143 72.8259 25.0505 73.1701C25.5133 73.5354 25.9175 73.9369 26.4179 74.2567C26.9946 74.6247 27.5975 74.976 28.215 75.2711C28.4948 75.4048 28.7968 75.5416 29.0985 75.6181C29.5256 75.7264 29.4907 75.5191 29.8644 75.4503C30.182 75.3918 30.2248 75.6516 30.4919 75.7543C30.7434 75.8512 30.9452 75.8076 31.1864 75.6947C31.7242 75.4431 32.221 75.067 32.7605 74.8026C33.2609 74.5572 33.8066 74.3373 34.2828 74.0486C34.4951 73.92 34.6635 73.7292 34.8732 73.5978C35.2093 73.3873 35.3192 73.4999 35.6975 73.3724C36.0068 73.2681 36.3032 73.0406 36.6022 72.9021C36.7877 72.8161 37.223 72.7315 37.355 72.5723C37.702 72.1543 37.2397 71.78 36.7761 71.8601C36.7557 71.4609 36.5224 70.4911 36.7148 70.1421C36.8851 69.8333 37.2232 69.9352 37.5341 69.7982C38.7029 69.2827 39.6486 68.2055 40.7605 67.5687C41.8086 66.9683 42.76 66.2158 43.8008 65.6012C44.6923 65.0746 45.6579 64.5719 46.4822 63.9877C47.4568 63.297 48.6568 62.8125 49.6979 62.2164C50.7734 61.6008 51.7889 60.8941 52.8548 60.2689C53.8804 59.6674 54.893 59.032 55.9404 58.4679C56.8817 57.9608 57.8585 57.5118 58.7828 56.9941C59.2891 56.7107 59.834 56.4736 60.3923 56.3145C60.9475 56.1561 61.441 55.9517 61.9857 55.7749C63.0684 55.4235 64.4436 55.2555 65.5755 55.2529C66.82 55.2501 68.0678 55.2632 69.3063 55.4099C69.9661 55.4882 70.5918 55.6905 71.2427 55.8087C71.8408 55.917 72.474 56.1475 73.0746 56.1988C73.3466 56.2221 73.5957 56.1353 73.8536 56.2037C74.0689 56.2608 74.2436 56.416 74.4759 56.4671C74.9929 56.5812 75.5251 56.5925 76.0461 56.7235C77.243 57.0242 78.4336 57.3913 79.6369 57.6602C80.9189 57.9468 82.2024 58.1252 83.4668 58.5011C84.7025 58.8683 85.9451 59.2443 87.1694 59.6445C89.7713 60.495 92.4025 61.3363 94.9314 62.4398C95.5226 62.6977 96.1184 62.947 96.6777 63.2707C96.9491 63.4277 97.2061 63.6094 97.4935 63.7369C97.9051 63.9194 97.9832 63.9793 98.2462 63.6465C98.6989 63.0735 99.0052 62.2807 99.3604 61.641C99.7117 61.0079 100.122 60.3765 100.363 59.7003C99.9128 59.5729 99.3177 59.6452 98.8428 59.6049C98.2622 59.5558 97.6918 59.475 97.1145 59.4026C95.9511 59.2566 95.082 58.8034 94.0235 58.3102C93.1314 57.8944 91.9161 57.5719 91.2912 56.789C90.9561 56.3693 90.8376 56.2883 90.2588 56.2874C89.6748 56.2863 89.0922 56.335 88.5084 56.2849C86.3085 56.0962 84.0815 56.2189 81.8712 56.0319C81.2733 55.9813 79.7502 56.0863 79.9685 55.0861C80.0138 54.8784 80.1962 54.7154 80.2534 54.5029C80.3145 54.2751 80.2848 54.0329 80.2756 53.802C80.2534 53.2558 80.2274 52.7094 80.2055 52.163C78.1213 52.5688 76.0263 52.8492 73.9198 53.1163C73.0464 53.227 71.6255 53.5519 70.7809 53.18C69.9644 52.8204 70.598 51.6829 70.9302 51.1418C69.2008 51.3258 67.33 51.7411 65.596 51.6807C65.0685 51.6624 64.5463 51.7175 64.5002 51.0704C64.4636 50.5547 64.9005 49.9816 65.1387 49.5609C63.8353 49.2858 62.4697 49.1342 62.9196 47.4718C63.3321 45.9464 64.6561 45.7909 66.0604 45.6709C67.7937 45.5226 69.5351 45.612 71.2714 45.5318C72.7822 45.4619 74.4312 45.3798 75.929 45.6849C76.7221 45.8462 77.5259 45.9575 78.3176 46.1273C78.6912 46.2074 79.0474 46.3094 79.4006 46.4563C79.7266 46.5916 80.163 46.9428 80.5081 46.9893C81.0289 47.0598 81.7423 46.428 82.323 46.3316C83.0422 46.2121 83.7956 46.2648 84.5198 46.3009C85.3404 46.3421 86.1594 46.4082 86.9807 46.4393C87.168 46.4464 87.8635 46.576 88.0229 46.4846C88.2549 46.3515 88.2102 45.5211 88.2352 45.1852C88.2582 44.8745 88.3868 44.3027 88.1874 44.156C88.0002 44.0182 87.3962 44.1044 87.1948 44.1125C86.3598 44.1462 85.5832 44.0382 84.771 43.9074C84.3959 43.847 84.0217 43.9044 83.6543 43.8103C83.2602 43.7094 82.8731 43.5263 82.4831 43.4035C81.6384 43.1377 80.8752 42.8412 80.1885 42.2672C79.5857 41.7635 78.8466 41.383 78.5703 40.5938C78.3679 40.0159 78.3849 38.9494 79.1901 38.888C78.7468 38.0498 78.4809 37.1359 78.3037 36.2074C78.2715 36.039 78.2665 35.7906 78.2064 35.6399C77.9942 35.1071 78.1936 35.581 77.8294 35.3346C77.4696 35.0913 77.2118 34.9019 76.9532 34.5225C76.5409 33.9175 76.4203 33.219 76.4451 32.4978C76.479 31.5182 76.4564 30.4065 76.713 29.4585C77.1571 27.8164 78.5261 26.7062 79.8855 25.8433C80.6235 25.3748 81.5332 25.2761 82.3617 25.0372C83.1614 24.8065 84.0522 24.5708 84.8633 24.5912C85.5955 24.6095 86.3296 24.4569 87.0659 24.4479C88.0777 24.4353 89.0691 24.6034 90.075 24.683C90.5379 24.7196 91.0054 24.7094 91.47 24.7145C91.7324 24.7174 92.1668 24.7996 92.4162 24.7251C92.8245 24.6029 92.5726 24.9318 92.7728 24.4328C93.1536 23.4836 93.4788 22.5896 93.9921 21.6844C94.4703 20.841 95.0237 20.0461 95.7119 19.3583C96.3572 18.7133 97.1461 18.2792 97.8789 17.7498C98.4219 17.3576 99.0253 17.0169 99.6268 16.7191C99.9708 16.5488 100.34 16.4786 100.673 16.3319C101.088 16.1499 101.45 16.0177 101.902 15.93C102.872 15.7417 103.838 15.5342 104.828 15.6683C105.896 15.8128 106.999 15.6913 108.003 16.1321C109.867 16.9506 110.564 19.1642 110.301 21.0892C110.983 21.0028 111.599 20.7534 112.303 20.8098C112.951 20.8618 113.712 21.0094 114.331 21.2052C115.534 21.5851 116.718 22.4216 117.327 23.5478C117.909 24.622 117.857 25.9498 117.292 27.0223C117.022 27.5358 116.639 27.9754 116.237 28.3885C115.942 28.6914 115.329 28.9924 115.249 29.4359C120.184 28.5619 125.087 28.1159 130.093 28.0459C132.63 28.0105 135.112 28.4761 137.635 28.5839C138.712 28.63 139.859 28.8824 140.963 29.0185C141.429 29.076 141.799 29.0544 142.173 28.7924C142.552 28.5275 142.87 28.1856 143.216 28.6746C143.305 28.7994 143.293 29.0744 143.42 29.1755C143.574 29.298 144.065 29.2851 144.262 29.321C144.951 29.4464 145.615 29.6453 146.28 29.8626C147.501 30.2614 148.714 30.662 149.912 31.1262C152.193 32.0102 154.446 32.8707 156.679 33.8635C158.959 34.8765 161.242 36.0633 163.283 37.5062C164.272 38.2051 165.242 39.0461 166.129 39.8706C166.541 40.2541 166.904 40.6589 167.249 41.1031C167.619 41.578 168.098 41.9259 168.463 42.4035C169.257 43.4423 170.04 44.5372 170.74 45.6436C171.106 46.2212 171.433 46.8235 171.748 47.4301C171.969 47.8559 172.589 48.6609 172.365 49.1501C172.247 49.4114 171.921 49.5651 171.652 49.4656C171.561 49.4323 171.5 49.3028 171.422 49.2819C171.158 49.2118 171.413 49.1465 171.086 49.2362C170.435 49.4144 170.176 49.897 169.401 49.6876C168.084 49.3317 166.899 48.5468 165.746 47.8482C165.238 49.1406 165.024 50.5176 164.558 51.8312C164.103 53.1128 163.458 54.3096 162.715 55.4462C162.064 56.4435 161.255 57.4926 160.235 58.1392C159.457 58.6325 157.621 59.1416 157.247 57.8489C157.088 57.2998 157.514 56.527 157.672 56.0002C157.883 55.2934 158.107 54.586 158.27 53.8658C158.401 53.2808 158.503 52.6886 158.631 52.1024C158.741 51.5981 159.008 50.5191 158.775 50.0343C158.635 49.7422 158.588 50.0069 158.456 50.266C158.295 50.5802 158.154 50.8941 158.025 51.2221C157.75 51.9189 157.492 52.6229 157.227 53.3235C156.753 54.5752 156.25 55.7949 155.445 56.8751C154.729 57.8344 153.761 58.8648 152.474 58.8823C151.871 58.8904 151.131 58.5264 150.726 58.072C150.271 57.5622 150.511 56.8395 150.588 56.2294Z" fill="black"/>
<path fill-rule="evenodd" clip-rule="evenodd" d="M115.373 105.452C116.085 105.397 116.738 104.91 117.356 104.56C118.145 104.113 118.903 103.614 119.674 103.137C121.126 102.24 122.469 101.225 123.764 100.103C126.319 97.8874 128.401 94.8918 129.564 91.7162C130.153 90.1093 130.868 88.2296 130.85 86.4943C130.843 85.8914 130.739 85.7685 130.166 85.6317C129.907 85.57 129.25 85.4149 129.002 85.49C128.358 85.685 127.891 86.7861 127.641 87.3376C126.903 88.9659 126.378 90.681 125.69 92.3294C125.015 93.9451 124.047 95.5507 123.103 97.0242C121.003 100.303 118.314 102.935 115.373 105.452ZM131.477 87.8883C130.495 92.5772 128.643 96.9351 125.243 100.4C123.627 102.046 121.793 103.428 119.838 104.649C117.82 105.909 115.773 107.079 113.551 107.933C112.96 108.161 112.368 108.387 111.771 108.6C111.441 108.718 110.584 109.196 110.235 109.063C109.955 108.956 109.907 108.723 109.896 108.427C109.873 107.762 110.336 107.487 110.814 107.118C112.734 105.639 114.661 104.155 116.483 102.555C120.08 99.3951 122.972 95.4423 124.843 91.0282C125.42 89.6692 125.954 88.2892 126.562 86.944C126.932 86.1244 127.494 84.654 128.437 84.336C128.942 84.1654 129.474 84.4535 129.993 84.3771C130.48 84.3055 130.824 84.0817 131.174 84.5676C131.788 85.4202 131.64 86.9312 131.477 87.8883Z" fill="black"/>
<path fill-rule="evenodd" clip-rule="evenodd" d="M2.42123 100.214C2.05384 100.297 2.02432 100.419 1.90625 100.036C1.84683 99.8437 1.89875 99.5955 1.94059 99.4075C2.04084 98.9573 2.33048 98.5649 2.57541 98.1844C4.24405 99.9355 6.00173 101.544 7.82542 103.133C9.7758 104.832 11.6109 106.681 13.4276 108.522C15.0544 110.171 16.7079 111.78 18.3137 113.445C19.0883 114.248 20.0018 114.907 20.7314 115.726C21.3209 116.388 22.383 116.78 22.863 117.534C21.9088 117.961 20.6687 118.248 19.7369 117.669C18.709 117.03 17.9531 116.267 17.0666 115.462C16.6099 115.047 16.1293 114.662 15.6632 114.258C15.2536 113.902 14.9914 113.423 14.574 113.086C13.6967 112.376 12.8022 111.603 11.9836 110.815C11.1427 110.006 10.1873 109.328 9.38419 108.478C8.56088 107.607 7.59776 106.98 6.72598 106.173C4.8784 104.461 3.29434 102.595 2.42123 100.214Z" fill="black"/>
<path fill-rule="evenodd" clip-rule="evenodd" d="M66.3182 28.6818C66.2769 28.8141 66.2356 28.9464 66.1943 29.0789C66.2092 29.0842 67.6995 26.8855 67.9338 26.6265C68.7285 25.7484 69.709 25.0559 70.658 24.3566C72.6682 22.8752 74.9474 21.758 76.925 20.2421C77.5757 19.7433 78.7227 19.0069 78.6068 18.0185C78.4917 17.0361 76.5344 16.9993 75.8391 17.1966C74.749 17.5059 73.7974 18.3115 72.9293 19.0087C71.9824 19.7694 71.0299 20.5195 70.1982 21.409C69.3014 22.3681 68.4332 23.4192 67.815 24.5827C67.1223 25.8861 66.7466 27.2757 66.3182 28.6818ZM66.2152 32.922C65.3635 33.0778 66.3729 33.3721 65.9986 33.7735C65.5881 34.2136 65.1722 32.6569 65.117 32.3657C64.792 30.6457 65.2662 28.6598 65.7527 27.0108C65.9982 26.179 66.1944 25.3272 66.4891 24.5105C66.7766 23.7143 67.2827 22.9854 67.7533 22.286C68.6954 20.8867 69.8731 19.6188 71.1666 18.5406C72.4641 17.4588 73.8937 16.3922 75.5033 15.823C76.8333 15.3529 78.7727 16.0207 79.1989 17.445C79.6345 18.9004 78.6421 20.3108 77.5652 21.169C76.1605 22.2883 74.6445 23.3856 73.1062 24.3117C72.3156 24.7878 71.628 25.3955 70.8551 25.8984C70.0325 26.4338 69.3103 26.9849 68.6608 27.7267C68.0316 28.4456 67.3869 29.162 66.9326 30.009C66.4352 30.9366 66.3381 31.8925 66.2152 32.922Z" fill="black"/>
<path fill-rule="evenodd" clip-rule="evenodd" d="M26.2354 88.6717C24.4931 87.2285 22.7267 85.9332 21.2683 84.1838C19.8283 82.4567 18.6167 80.5581 16.9691 79.012C16.1471 78.2406 15.2912 77.5064 14.4877 76.7152C13.7251 75.9643 12.8259 75.2916 12.155 74.4589C11.2608 73.3485 9.58501 71.2837 11.0544 69.9627C12.4313 72.0672 14.4538 73.8379 16.2885 75.5298C18.2229 77.3138 19.953 79.332 21.7623 81.24C23.5051 83.0779 25.2396 84.9299 26.9305 86.8048C27.3745 87.2973 27.7983 87.8096 28.249 88.2958C28.3041 88.3552 28.7847 88.7473 28.7742 88.8351C28.7492 89.0458 28.3304 89.1292 28.1799 89.1707C27.9422 89.2361 27.3019 89.393 27.0542 89.2846C26.9244 89.2276 26.9351 89.1174 26.8458 89.0405C26.8026 88.9283 26.7493 88.8212 26.6865 88.7189C26.536 88.7034 26.3857 88.6877 26.2354 88.6717Z" fill="black"/>
<path fill-rule="evenodd" clip-rule="evenodd" d="M139.895 80.7025C138.554 80.5072 136.506 80.2587 136.361 82.1088C136.29 83.0249 136.703 83.7533 137.016 84.5815C137.343 85.4517 137.558 86.3358 137.573 87.2693C137.634 91.0475 135.845 94.5179 134.209 97.8086C137.096 95.9937 139.351 93.258 140.737 90.1298C141.409 88.6128 141.839 86.6112 141.879 84.9527C141.898 84.1229 141.684 83.3512 141.408 82.5768C141.269 82.1878 141.136 81.7466 140.88 81.4146C140.624 81.082 140.232 80.9345 139.895 80.7025ZM132.854 99.8066C132.156 98.2704 133.776 96.3248 134.39 94.9815C135.125 93.3755 135.826 91.6958 136.262 89.9815C136.72 88.1857 136.58 86.7304 135.928 85.0183C135.345 83.4876 135.126 81.5155 136.147 80.0914C136.558 79.5183 137.066 79.5024 137.689 79.3284C138.452 79.1151 138.714 78.6311 139.597 78.8182C141.174 79.1519 141.731 80.7547 142.17 82.116C143.193 85.2896 142.354 89.1274 140.814 92.0078C139.928 93.6651 138.939 95.3777 137.61 96.7204C136.958 97.3787 136.219 97.9286 135.458 98.4518C134.634 99.0177 133.872 99.7272 132.854 99.8066Z" fill="black"/>
<path fill-rule="evenodd" clip-rule="evenodd" d="M48.0618 36.7064C45.9099 36.8787 43.8789 37.5988 43.2598 39.9249C42.6971 42.039 43.9216 44.203 45.5968 45.424C47.4085 46.7448 49.82 47.2162 51.8988 46.2402C54.0872 45.2127 54.8532 42.7216 53.852 40.5759C52.7348 38.1815 50.4961 37.247 48.0618 36.7064ZM49.5355 35.8359C51.9941 36.502 54.1041 38.5637 54.6601 41.0675C55.2335 43.6486 54.1098 46.2771 51.6471 47.3599C46.6701 49.5484 41.0015 44.2345 42.7509 39.1133C43.1952 37.813 44.1276 36.8763 45.3201 36.2263C46.6367 35.5085 48.107 35.6602 49.5355 35.8359Z" fill="black"/>
<path fill-rule="evenodd" clip-rule="evenodd" d="M141.511 21.2978C138.659 19.5719 135.806 17.846 132.954 16.1201C132.667 17.4748 132.38 18.8294 132.093 20.1841C132.015 20.5506 131.818 21.0384 131.833 21.411C131.848 21.8087 131.72 21.7511 132.235 21.7563C132.892 21.7627 133.563 21.6798 134.219 21.6416C135.399 21.5729 136.635 21.6606 137.802 21.4917C138.397 21.4055 138.952 21.452 139.549 21.4281C140.205 21.4019 140.853 21.2859 141.511 21.2978ZM130.995 22.7277C131.179 21.1851 131.532 19.6836 131.856 18.1649C132.148 16.7985 132.354 15.4875 132.961 14.225C133.29 15.0402 134.418 15.485 135.091 15.9646C136.019 16.6256 137.029 17.1512 137.986 17.7666C138.926 18.371 139.821 19.043 140.762 19.6464C141.24 19.9525 141.727 20.243 142.203 20.5508C142.501 20.7435 143.222 21.0825 143.384 21.3937C143.878 22.3383 141.822 22.1785 141.418 22.2084C140.205 22.2985 138.992 22.2858 137.781 22.3827C136.652 22.4732 135.523 22.5475 134.393 22.6168C133.274 22.6855 132.109 22.8607 130.995 22.7277Z" fill="black"/>
<path fill-rule="evenodd" clip-rule="evenodd" d="M33.4639 49.8196C34.6658 49.8376 35.8693 49.8006 37.0693 49.8246C38.2056 49.8473 39.213 49.8473 40.3005 49.4543C38.9499 48.8637 37.5934 48.2952 36.2261 47.7441C35.548 47.4708 34.8725 47.1866 34.1897 46.9255C33.6615 46.7233 33.1963 46.5877 33.058 45.9672C32.8971 45.2448 33.5621 45.4307 33.9634 45.6573C34.517 45.9697 35.1335 46.1964 35.7131 46.4705C37.0068 47.0821 38.313 47.6585 39.6243 48.2307C40.0319 48.4086 42.4256 49.1722 41.445 49.8858C41.0254 50.1913 40.1595 50.2831 39.6676 50.4798C39.0366 50.7319 38.3762 50.7836 37.7018 50.8334C36.2963 50.9372 34.8585 50.8698 33.4403 50.9361C32.716 50.97 31.9919 51.0039 31.2677 51.0379C30.8434 51.0576 30.6841 51.0317 30.6309 50.5539C30.5922 50.2066 30.7356 49.881 30.8506 49.5629C31.1424 48.7546 31.4554 47.9532 31.766 47.1521C31.8843 46.8465 32.1925 45.4776 32.4913 45.3595C33.1691 45.0915 32.4488 46.9516 32.3735 47.1809C32.089 48.0459 31.7717 48.9006 31.5689 49.7886C32.201 49.8066 32.8317 49.8222 33.4639 49.8196Z" fill="black"/>
<path fill-rule="evenodd" clip-rule="evenodd" d="M49.455 58.8847C49.6198 59.5056 49.2128 59.5915 48.7136 59.7401C48.0661 59.933 47.427 60.1417 46.7714 60.3068C45.3923 60.6536 44.008 60.9634 42.6509 61.3932C40.0626 62.2128 37.4464 62.9841 34.8868 63.887C34.2508 64.1114 33.6144 64.3346 32.9743 64.5475C32.3123 64.7676 31.5342 65.1782 30.8435 65.2667C30.241 65.3439 30.2298 64.9193 30.6223 64.5764C31.1283 64.134 31.8633 63.8463 32.4656 63.5687C34.9445 62.426 37.6029 61.5722 40.2419 60.8975C43.2922 60.1175 46.3449 59.3843 49.455 58.8847Z" fill="black"/>
<path fill-rule="evenodd" clip-rule="evenodd" d="M59.8795 26.0267C60.0101 24.2147 60.4663 22.4365 60.5374 20.6221C57.8099 22.5182 58.6208 26.0484 59.7558 28.5945L59.8795 26.0267ZM60.9593 26.0512C60.8698 26.9333 60.8146 27.819 60.6247 28.6846C60.4253 29.5933 60.7992 30.1182 61.2794 30.8623C60.7451 31.2899 59.7867 30.0298 59.5246 29.6608C58.9849 28.9009 58.6311 27.9347 58.3178 27.0622C57.6505 25.2036 57.271 23.2536 58.2024 21.4116C58.5478 20.729 58.9817 19.7966 59.7199 19.4632C60.5305 19.0972 61.0321 19.8098 61.2668 20.5091C61.84 22.2156 60.9992 24.2977 60.9593 26.0512Z" fill="black"/>
<path fill-rule="evenodd" clip-rule="evenodd" d="M76.3922 118.743C77.5185 118.969 78.628 119.192 79.7566 119.4C79.7468 117.815 79.7368 116.229 79.727 114.644C79.0509 114.718 78.3747 114.792 77.6986 114.866C77.3789 114.901 76.8996 114.863 76.6058 114.986C76.5 114.997 76.394 115.009 76.2884 115.02C76.2614 115.223 76.2349 115.425 76.2088 115.628C76.1295 116.227 76.0407 116.824 75.9444 117.42C75.904 117.67 75.7726 118.027 75.8029 118.283C75.6664 118.522 75.7213 118.637 75.9682 118.628C76.1096 118.667 76.2508 118.705 76.3922 118.743ZM75.4745 119.779C74.6363 119.228 75.0421 117.898 75.1468 117.033C75.2136 116.483 75.3176 115.941 75.3975 115.394C75.4526 115.017 75.4222 114.54 75.5954 114.19C75.9036 113.569 77.0303 113.721 77.6054 113.836C78.0318 113.921 78.3945 113.942 78.8391 113.966C79.0582 113.978 79.2958 114.049 79.5171 114.01C79.5649 114.001 80.0358 113.75 80.0166 113.747C80.7928 113.87 80.5796 115.744 80.5735 116.225C80.5587 117.412 80.5318 118.599 80.4935 119.785C80.4835 120.099 80.5568 120.464 80.2411 120.606C79.9563 120.734 79.2711 120.492 78.9784 120.448C77.7983 120.271 76.6427 119.945 75.4745 119.779Z" fill="black"/>
<path fill-rule="evenodd" clip-rule="evenodd" d="M139.423 56.8193C139.883 57.3455 139.578 57.7954 139.34 58.3557C139.197 58.692 138.503 59.7693 138.618 60.1136C138.751 60.5116 139.575 60.7039 139.918 60.8656C140.515 61.147 141.115 61.4298 141.669 61.7922C141.915 61.9532 142.821 62.3638 142.969 62.627C143.054 62.7778 143.078 62.8909 142.98 63.0607C142.809 63.3587 142.638 63.1698 142.321 63.0636C140.87 62.578 139.442 62.0081 138.139 61.1938C137.648 62.0426 137.213 62.9174 136.778 63.7965C136.651 64.0541 136.487 64.6545 136.119 64.6548C135.671 64.655 135.736 64.0614 135.803 63.745C135.902 63.2831 136.203 62.814 136.402 62.3892C136.565 62.0385 137.078 61.3289 137.071 60.9466C137.066 60.6835 136.907 60.6827 136.638 60.5475C136.385 60.4199 136.131 60.2927 135.877 60.1639C135.471 59.9574 135.066 59.7507 134.675 59.5166C134.46 59.3882 133.999 59.213 133.86 58.983C133.78 58.8496 133.726 58.3973 133.861 58.29C134.176 58.0385 135.955 59.029 136.327 59.1796C136.574 59.2796 136.824 59.3633 137.061 59.484C137.151 59.5299 137.245 59.6838 137.346 59.7011C137.774 59.7744 137.847 59.4468 138.023 59.1071C138.432 58.3176 138.869 57.5146 139.423 56.8193Z" fill="black"/>
<path fill-rule="evenodd" clip-rule="evenodd" d="M30.1931 60.4598C30.031 59.8689 32.5475 59.4788 33.0222 59.343C34.1808 59.0119 35.3963 58.873 36.581 58.6559C37.7459 58.4424 38.9091 58.2018 40.0621 57.9314C40.4187 57.8477 43.0226 56.9409 43.1304 57.1318C43.4875 57.7636 38.1061 58.9717 37.5813 59.0932C35.1443 59.6572 32.6546 60.0164 30.1931 60.4598Z" fill="black"/>
<path fill-rule="evenodd" clip-rule="evenodd" d="M140.193 28.892C139.561 28.823 138.629 28.8937 138.081 28.5679C138.785 28.6759 139.489 28.784 140.193 28.892Z" fill="black"/>
<path fill-rule="evenodd" clip-rule="evenodd" d="M49.5356 35.8358L48.1325 35.6632C48.6139 35.6103 49.0898 35.6004 49.5356 35.8358Z" fill="black"/>
<path fill-rule="evenodd" clip-rule="evenodd" d="M122.676 44.1853C123.007 44.2231 123.339 44.2609 123.668 44.2983C123.336 44.2606 123.006 44.2229 122.676 44.1853Z" fill="black"/>
<path fill-rule="evenodd" clip-rule="evenodd" d="M150.588 56.2294C150.544 56.5841 150.499 56.9388 150.454 57.292C150.498 56.9368 150.543 56.5831 150.588 56.2294Z" fill="black"/>
<path fill-rule="evenodd" clip-rule="evenodd" d="M77.6062 113.836C77.2514 113.819 76.8966 113.803 76.5422 113.786C76.8971 113.803 77.2516 113.819 77.6062 113.836Z" fill="black"/>
<path fill-rule="evenodd" clip-rule="evenodd" d="M87.6571 46.4648C87.2964 46.4512 86.9356 46.4377 86.5753 46.4241C86.9359 46.4376 87.2965 46.4512 87.6571 46.4648Z" fill="black"/>
<path fill-rule="evenodd" clip-rule="evenodd" d="M125.372 44.3889C125.625 44.4186 125.878 44.4483 126.128 44.4777C125.875 44.4481 125.623 44.4186 125.372 44.3889Z" fill="black"/>
<path fill-rule="evenodd" clip-rule="evenodd" d="M73.6861 45.499C73.3686 45.4899 73.0508 45.4807 72.7335 45.4716C73.051 45.4807 73.3686 45.4899 73.6861 45.499Z" fill="black"/>
<path fill-rule="evenodd" clip-rule="evenodd" d="M90.2328 24.7008C89.9183 24.6652 89.6038 24.6296 89.2895 24.594C89.6227 24.465 89.932 24.5455 90.2328 24.7008Z" fill="black"/>
<path fill-rule="evenodd" clip-rule="evenodd" d="M26.423 72.2727C26.1632 72.2275 25.9351 72.3293 25.8174 72.0618C26.0812 71.9021 26.1946 72.1359 26.423 72.2727Z" fill="black"/>
<path fill-rule="evenodd" clip-rule="evenodd" d="M77.3773 57.0451L76.5724 56.8557L77.3773 57.0451Z" fill="black"/>
<path fill-rule="evenodd" clip-rule="evenodd" d="M75.4745 119.779C75.6542 119.804 75.8338 119.83 76.0115 119.855C75.8312 119.829 75.6528 119.804 75.4745 119.779Z" fill="black"/>
<path fill-rule="evenodd" clip-rule="evenodd" d="M128.855 28.0595C128.571 28.0512 128.287 28.0429 128.004 28.0346C128.287 28.0428 128.571 28.0512 128.855 28.0595Z" fill="black"/>
<path fill-rule="evenodd" clip-rule="evenodd" d="M29.7291 102.748C29.4592 102.717 29.1894 102.686 28.9196 102.655C29.1896 102.686 29.4593 102.717 29.7291 102.748Z" fill="black"/>
<path fill-rule="evenodd" clip-rule="evenodd" d="M8.6316 95.3738C8.35922 95.3418 8.08699 95.3098 7.81477 95.2778C8.08715 95.3098 8.35922 95.3418 8.6316 95.3738Z" fill="black"/>
<path fill-rule="evenodd" clip-rule="evenodd" d="M84.2265 46.2833C83.9468 46.2776 83.6672 46.2717 83.3875 46.266C83.6673 46.2717 83.9468 46.2776 84.2265 46.2833Z" fill="black"/>
<path fill-rule="evenodd" clip-rule="evenodd" d="M76.4654 45.8126C76.1971 45.7488 75.929 45.6849 75.6609 45.6211C75.9241 45.706 76.2483 45.5333 76.4654 45.8126Z" fill="black"/>
<path fill-rule="evenodd" clip-rule="evenodd" d="M99.7753 59.6822C99.9469 59.6832 100.192 59.6521 100.363 59.7007C100.328 59.7979 99.8404 59.6896 99.7753 59.6822Z" fill="black"/>
<path fill-rule="evenodd" clip-rule="evenodd" d="M79.9846 78.9863C80.1666 79.0116 80.3488 79.0369 80.529 79.0614C80.3463 79.0363 80.1656 79.0113 79.9846 78.9863Z" fill="black"/>
<path fill-rule="evenodd" clip-rule="evenodd" d="M66.1146 55.2651C65.845 55.2591 65.5756 55.2532 65.3061 55.247C65.5758 55.253 65.845 55.2591 66.1146 55.2651Z" fill="black"/>
<path fill-rule="evenodd" clip-rule="evenodd" d="M36.4109 50.7971C36.5557 50.8184 36.7005 50.8397 36.8434 50.8608C36.6979 50.8394 36.5544 50.8183 36.4109 50.7971Z" fill="black"/>
<path fill-rule="evenodd" clip-rule="evenodd" d="M75.5201 56.5913C75.2928 56.5595 75.0653 56.5277 74.8381 56.4961C75.0655 56.5277 75.2928 56.5595 75.5201 56.5913Z" fill="black"/>
<path fill-rule="evenodd" clip-rule="evenodd" d="M33.4644 49.8198C33.2306 49.8208 32.9968 49.8217 32.7634 49.8226C32.9973 49.8216 33.2308 49.8207 33.4644 49.8198Z" fill="black"/>
<path fill-rule="evenodd" clip-rule="evenodd" d="M65.2787 51.6296C65.4203 51.6523 65.5618 51.675 65.7016 51.698C65.5592 51.6755 65.4189 51.6527 65.2787 51.6296Z" fill="black"/>
<path fill-rule="evenodd" clip-rule="evenodd" d="M73.2656 76.8838C73.4112 76.8915 73.5567 76.8994 73.7004 76.9067C73.5543 76.8988 73.41 76.8913 73.2656 76.8838Z" fill="black"/>
<path fill-rule="evenodd" clip-rule="evenodd" d="M86.5491 59.4407C86.3203 59.384 86.0913 59.3272 85.8628 59.2705C86.0915 59.3272 86.3203 59.384 86.5491 59.4407Z" fill="black"/>
<path fill-rule="evenodd" clip-rule="evenodd" d="M26.2354 88.6718C26.3865 88.6877 26.5375 88.7038 26.6869 88.7191C26.5353 88.7031 26.3852 88.6874 26.2354 88.6718Z" fill="black"/>
<path fill-rule="evenodd" clip-rule="evenodd" d="M16.1029 68.4339C15.8656 68.3809 15.6283 68.3279 15.3909 68.2749C15.6282 68.3278 15.8655 68.3809 16.1029 68.4339Z" fill="black"/>
<path fill-rule="evenodd" clip-rule="evenodd" d="M7.70183 95.2962C7.46249 95.2953 7.22313 95.2946 6.98362 95.2936C7.2233 95.2944 7.46249 95.2953 7.70183 95.2962Z" fill="black"/>
<path fill-rule="evenodd" clip-rule="evenodd" d="M143.944 46.6849C143.901 46.8872 143.858 47.0895 143.814 47.291C143.857 47.0884 143.9 46.8867 143.944 46.6849Z" fill="black"/>
<path fill-rule="evenodd" clip-rule="evenodd" d="M31.1634 102.712C30.9227 102.711 30.6819 102.71 30.4413 102.709C30.6821 102.71 30.9228 102.711 31.1634 102.712Z" fill="black"/>
<path fill-rule="evenodd" clip-rule="evenodd" d="M28.8068 102.67C28.5463 102.81 28.305 102.79 28.0856 102.585C28.326 102.613 28.5664 102.642 28.8068 102.67Z" fill="black"/>
<path fill-rule="evenodd" clip-rule="evenodd" d="M24.2288 102.328C23.9957 102.3 23.7628 102.273 23.5299 102.245C23.763 102.273 23.9959 102.3 24.2288 102.328Z" fill="black"/>
<path fill-rule="evenodd" clip-rule="evenodd" d="M60.9592 26.0517C60.964 25.8421 60.9688 25.6326 60.9735 25.4238C60.9687 25.6337 60.964 25.8427 60.9592 26.0517Z" fill="black"/>
<path fill-rule="evenodd" clip-rule="evenodd" d="M86.9467 24.4635C86.709 24.4645 86.4714 24.4654 86.2339 24.4664C86.4715 24.4655 86.7092 24.4646 86.9467 24.4635Z" fill="black"/>
<path fill-rule="evenodd" clip-rule="evenodd" d="M87.7892 24.4529C87.548 24.4511 87.3066 24.4495 87.0656 24.4479C87.3068 24.4495 87.548 24.4511 87.7892 24.4529Z" fill="black"/>
<path fill-rule="evenodd" clip-rule="evenodd" d="M47.558 47.6353C47.7048 47.6506 47.8516 47.6659 47.9964 47.6809C47.8489 47.6655 47.7036 47.6504 47.558 47.6353Z" fill="black"/>
<path fill-rule="evenodd" clip-rule="evenodd" d="M69.0196 47.871C69.8116 47.8354 70.5933 47.8853 71.3493 48.1486L69.0196 47.871Z" fill="black"/>
<path fill-rule="evenodd" clip-rule="evenodd" d="M90.7763 41.5911C90.9885 41.1871 91.0477 41.033 91.4688 40.861C91.2553 41.2528 91.2032 41.4698 90.7763 41.5911Z" fill="black"/>
<path fill-rule="evenodd" clip-rule="evenodd" d="M104.717 85.7148C104.68 86.1568 104.643 86.5988 104.606 87.0403C104.643 86.5982 104.68 86.1565 104.717 85.7148Z" fill="black"/>
<path fill-rule="evenodd" clip-rule="evenodd" d="M139.946 29.8925C139.593 29.8585 139.241 29.8246 138.89 29.7908C139.243 29.8249 139.594 29.8586 139.946 29.8925Z" fill="black"/>
<path fill-rule="evenodd" clip-rule="evenodd" d="M85.1467 91.3071C85.1153 91.6755 85.0837 92.044 85.0521 92.412C85.0836 92.0433 85.1151 91.6753 85.1467 91.3071Z" fill="black"/>
<path fill-rule="evenodd" clip-rule="evenodd" d="M43.4988 74.4216C43.8536 74.4666 44.2085 74.5115 44.5633 74.5564C44.2083 74.5115 43.8536 74.4666 43.4988 74.4216Z" fill="black"/>
<path fill-rule="evenodd" clip-rule="evenodd" d="M75.9117 59.1892C75.6974 59.1657 75.4834 59.1421 75.2712 59.1195C75.486 59.1432 75.6988 59.1661 75.9117 59.1892Z" fill="black"/>
<path fill-rule="evenodd" clip-rule="evenodd" d="M76.6063 47.4513C76.4311 47.4243 76.2557 47.3973 76.0823 47.3711C76.2583 47.3984 76.4323 47.4248 76.6063 47.4513Z" fill="black"/>
<path fill-rule="evenodd" clip-rule="evenodd" d="M47.8333 74.8268C48.1142 74.8328 48.395 74.8387 48.676 74.8445C48.395 74.8387 48.1142 74.8328 47.8333 74.8268Z" fill="black"/>
<path fill-rule="evenodd" clip-rule="evenodd" d="M41.7725 74.2297C42.045 74.2581 42.3176 74.2863 42.5899 74.3144C42.3176 74.2863 42.045 74.2581 41.7725 74.2297Z" fill="black"/>
<path fill-rule="evenodd" clip-rule="evenodd" d="M44.6753 74.5691C44.9599 74.5781 45.2445 74.5872 45.5292 74.5962C45.2446 74.587 44.9599 74.5781 44.6753 74.5691Z" fill="black"/>
<path fill-rule="evenodd" clip-rule="evenodd" d="M45.6485 75.1389C45.5086 75.1214 45.3686 75.1037 45.2306 75.0864C45.3711 75.1042 45.5098 75.1215 45.6485 75.1389Z" fill="black"/>
<path fill-rule="evenodd" clip-rule="evenodd" d="M105.761 75.9237C105.807 75.7193 105.852 75.5151 105.898 75.3114C105.852 75.516 105.807 75.7198 105.761 75.9237Z" fill="black"/>
<path fill-rule="evenodd" clip-rule="evenodd" d="M66.2309 50.0147C66.4057 50.0508 66.5806 50.087 66.7557 50.1233C66.5572 50.1099 66.3585 50.0963 66.1602 50.0829C66.1661 50.0425 66.1897 50.0197 66.2309 50.0147Z" fill="black"/>
<path fill-rule="evenodd" clip-rule="evenodd" d="M107.434 90.1912C107.446 90.0015 107.457 89.8116 107.468 89.623C107.457 89.8132 107.446 90.0023 107.434 90.1912Z" fill="black"/>
<path fill-rule="evenodd" clip-rule="evenodd" d="M69.4854 49.6748C69.3433 49.6608 69.201 49.6465 69.0607 49.6325C69.2036 49.6467 69.3444 49.6608 69.4854 49.6748Z" fill="black"/>
<path fill-rule="evenodd" clip-rule="evenodd" d="M118.527 79.6267C118.76 79.6827 118.993 79.7386 119.226 79.7944C118.993 79.7386 118.76 79.6827 118.527 79.6267Z" fill="black"/>
<path fill-rule="evenodd" clip-rule="evenodd" d="M71.3254 58.1749C71.1796 58.1598 71.0339 58.1445 70.8899 58.1299C71.0362 58.1452 71.1808 58.1601 71.3254 58.1749Z" fill="black"/>
<path fill-rule="evenodd" clip-rule="evenodd" d="M66.3183 28.6819C66.4612 28.7817 66.3391 29.1312 66.1943 29.0792C66.2356 28.9466 66.277 28.8143 66.3183 28.6819Z" fill="black"/>
<path fill-rule="evenodd" clip-rule="evenodd" d="M139.895 80.7025C139.756 80.6821 139.616 80.6618 139.478 80.6416C139.618 80.6622 139.757 80.6824 139.895 80.7025Z" fill="black"/>
<path fill-rule="evenodd" clip-rule="evenodd" d="M59.8795 26.0275C59.9024 25.7095 59.9254 25.3916 59.9484 25.0745C59.9253 25.3928 59.9025 25.7101 59.8795 26.0275Z" fill="black"/>
<path fill-rule="evenodd" clip-rule="evenodd" d="M75.7562 118.571C75.9686 118.628 76.1808 118.686 76.393 118.743C76.1805 118.686 75.9684 118.628 75.7562 118.571Z" fill="black"/>
<path fill-rule="evenodd" clip-rule="evenodd" d="M84.0414 37.0327C83.2613 37.0988 82.4696 37.0876 81.6985 37.23C81.5061 37.2655 80.8551 37.5471 80.644 37.4273C80.3234 37.2449 80.5377 36.9007 80.7031 36.7231C81.1456 36.2482 81.861 36.0379 82.4843 36.1189C83.1064 36.1999 83.9642 36.2792 84.0414 37.0327Z" fill="black"/>
<path fill-rule="evenodd" clip-rule="evenodd" d="M81.7593 38.1761C82.5274 38.8641 83.1333 39.2302 83.362 37.9172C84.2558 38.1497 83.6736 39.5672 82.9729 39.5957C82.2103 39.6266 81.8005 38.8182 81.7593 38.1761Z" fill="black"/>
</svg>
