<svg width="296" height="11" viewBox="0 0 296 11" fill="none" xmlns="http://www.w3.org/2000/svg">
<path d="M147.73 5.46484V6.00391C147.73 6.64453 147.65 7.21875 147.49 7.72656C147.33 8.23438 147.1 8.66602 146.799 9.02148C146.498 9.37695 146.137 9.64844 145.715 9.83594C145.297 10.0234 144.828 10.1172 144.309 10.1172C143.805 10.1172 143.342 10.0234 142.92 9.83594C142.502 9.64844 142.139 9.37695 141.83 9.02148C141.525 8.66602 141.289 8.23438 141.121 7.72656C140.953 7.21875 140.869 6.64453 140.869 6.00391V5.46484C140.869 4.82422 140.951 4.25195 141.115 3.74805C141.283 3.24023 141.52 2.80859 141.824 2.45312C142.129 2.09375 142.49 1.82031 142.908 1.63281C143.33 1.44531 143.793 1.35156 144.297 1.35156C144.816 1.35156 145.285 1.44531 145.703 1.63281C146.125 1.82031 146.486 2.09375 146.787 2.45312C147.092 2.80859 147.324 3.24023 147.484 3.74805C147.648 4.25195 147.73 4.82422 147.73 5.46484ZM146.611 6.00391V5.45312C146.611 4.94531 146.559 4.49609 146.453 4.10547C146.352 3.71484 146.201 3.38672 146.002 3.12109C145.803 2.85547 145.559 2.6543 145.27 2.51758C144.984 2.38086 144.66 2.3125 144.297 2.3125C143.945 2.3125 143.627 2.38086 143.342 2.51758C143.061 2.6543 142.818 2.85547 142.615 3.12109C142.416 3.38672 142.262 3.71484 142.152 4.10547C142.043 4.49609 141.988 4.94531 141.988 5.45312V6.00391C141.988 6.51562 142.043 6.96875 142.152 7.36328C142.262 7.75391 142.418 8.08398 142.621 8.35352C142.828 8.61914 143.072 8.82031 143.354 8.95703C143.639 9.09375 143.957 9.16211 144.309 9.16211C144.676 9.16211 145.002 9.09375 145.287 8.95703C145.572 8.82031 145.812 8.61914 146.008 8.35352C146.207 8.08398 146.357 7.75391 146.459 7.36328C146.561 6.96875 146.611 6.51562 146.611 6.00391ZM149.424 1.46875H152.248C152.889 1.46875 153.43 1.56641 153.871 1.76172C154.316 1.95703 154.654 2.24609 154.885 2.62891C155.119 3.00781 155.236 3.47461 155.236 4.0293C155.236 4.41992 155.156 4.77734 154.996 5.10156C154.84 5.42188 154.613 5.69531 154.316 5.92188C154.023 6.14453 153.672 6.31055 153.262 6.41992L152.945 6.54297H150.291L150.279 5.62305H152.283C152.689 5.62305 153.027 5.55273 153.297 5.41211C153.566 5.26758 153.77 5.07422 153.906 4.83203C154.043 4.58984 154.111 4.32227 154.111 4.0293C154.111 3.70117 154.047 3.41406 153.918 3.16797C153.789 2.92188 153.586 2.73242 153.309 2.59961C153.035 2.46289 152.682 2.39453 152.248 2.39453H150.555V10H149.424V1.46875ZM154.41 10L152.336 6.13281L153.514 6.12695L155.617 9.92969V10H154.41Z" fill="black" fill-opacity="0.25"/>
<line x1="-4.37114e-08" y1="7.5" x2="129" y2="7.49999" stroke="black" stroke-opacity="0.29"/>
<line x1="167" y1="7.5" x2="296" y2="7.49999" stroke="black" stroke-opacity="0.29"/>
</svg>
