<svg width="174" height="174" viewBox="0 0 174 174" fill="none" xmlns="http://www.w3.org/2000/svg">
<path fill-rule="evenodd" clip-rule="evenodd" d="M87.0619 32.627C128.03 39.509 156.6 62.8923 156.6 100.226C156.6 144.975 121.107 98.4797 96.6336 124.57C72.1599 150.66 20.0182 151.399 17.524 100.226C15.1892 52.3217 46.0938 25.745 87.0619 32.627Z" fill="#EBA06F"/>
<path fill-rule="evenodd" clip-rule="evenodd" d="M66.1202 104.969L76.9574 90.9504L77.2061 91.1474C78.8067 92.4058 80.076 93.2352 81.0139 93.6354L81.2914 93.753C85.7973 95.6482 88.8954 96.292 88.3976 96.7372L87.7811 97.2915C83.7986 100.886 78.3459 106.114 71.4228 112.975C70.4746 113.996 69.1972 114.652 67.8171 114.827L66.3894 114.997C52.3756 116.656 43.3852 116.799 40.0905 116.07C39.4026 115.917 37.2847 116.315 35.6858 117.921C33.2874 120.33 29.8577 126.133 29.2816 126.133C28.4444 126.133 29.2334 122.29 31.6487 114.602L31.9039 113.709C33.0294 109.808 33.8388 107.501 34.3327 106.789C34.8631 106.024 36.6544 107.374 39.707 110.84L39.6242 111.29C40.0205 110.83 40.49 110.341 41.0331 109.823L42.4755 109.651C47.5707 109.032 51.4437 108.466 54.0943 107.953L54.3734 107.899C57.2453 107.33 61.161 106.353 66.1202 104.969Z" fill="white"/>
<path d="M115 31C117 34.5 117.833 39.8332 117 41.9999L118 46.5L121.5 41.5C126.3 44.3 129.5 43.6667 130.5 43C131.7 42.2 131.667 39.6667 131.5 38.5L133 37L132 34.5C133.2 33.3 132.5 28.6667 132 26.5C135.2 24.1 135 21.5 132 18.5C132.4 20.9 130.167 22.5 128.5 22.5C118.5 20.1 115.167 27 115 31Z" fill="white"/>
<path fill-rule="evenodd" clip-rule="evenodd" d="M133.606 90.446L137.635 93.4825C138.409 94.0643 138.976 94.8803 139.252 95.8083L140.015 98.3647C140.375 99.1379 140.061 100.057 139.303 100.448L137.88 101.504C136.965 101.976 135.849 101.465 135.609 100.462L134.808 97.6132C134.808 97.6132 131.412 96.5815 130.96 92.5401L133.606 90.446Z" fill="white"/>
<path fill-rule="evenodd" clip-rule="evenodd" d="M114.185 40.5752C116.938 40.6873 118.322 44.4606 119.222 46.3256C119.528 46.961 117.372 65.7394 116.667 70.5445C115.412 79.1019 111.62 81.8151 109.239 82.3977C109.239 82.3977 109.381 92.1268 108.384 94.5482C106.176 99.9099 78.2237 96.3112 75.4919 87.3497C73.6245 81.2235 80.5643 80.5094 83.169 76.8157C87.9426 70.0464 88.1904 63.7462 93.3327 59.2392C95.2812 57.1036 97.5437 54.9599 99.4953 52.3824L100.289 51.3377C105.252 44.8352 109.032 40.521 113.926 40.5688L114.185 40.5752Z" fill="white"/>
<path fill-rule="evenodd" clip-rule="evenodd" d="M100.379 56.852C99.9233 57.0717 99.2561 57.1402 99.0183 56.6933C98.2717 55.2909 95.9872 55.0981 95.0165 56.3555C95.9482 56.0352 97.034 55.7296 97.8674 56.2558C98.0991 56.4022 98.2993 56.6073 98.4977 56.8105C98.8278 57.1487 99.1524 57.481 99.6069 57.5257C99.9451 57.5589 100.267 57.4165 100.587 57.275C100.931 57.1228 101.273 56.9717 101.631 57.039C102.029 57.114 102.308 57.4304 102.587 57.7468C102.865 58.0626 103.144 58.3781 103.54 58.4547C103.864 58.5173 104.19 58.4011 104.513 58.2858C104.874 58.1568 105.231 58.0292 105.578 58.1545C105.993 58.3039 106.182 58.7312 106.372 59.1588C106.561 59.5843 106.749 60.01 107.16 60.1631C107.403 60.2538 107.666 60.2211 107.926 60.1703L108.183 60.1179C108.789 59.9972 109.445 59.9863 110 60.2594C110.476 60.494 110.852 60.9795 110.883 61.4978C110.895 61.386 110.906 61.2744 110.916 61.163L111.012 60.532C110.461 59.8864 109.597 59.521 108.75 59.5771C108.605 59.5868 108.46 59.608 108.315 59.6293C108.036 59.6699 107.758 59.7107 107.481 59.6685C107.06 59.6045 106.633 59.2465 106.704 58.8273L106.71 58.782C106.788 58.08 105.847 57.6772 105.123 57.7364C104.97 57.7489 104.812 57.7694 104.654 57.79C104.051 57.8682 103.434 57.9485 102.961 57.6016C102.778 57.4678 102.637 57.2803 102.496 57.0947C102.301 56.8349 102.107 56.5785 101.807 56.4773C101.474 56.3657 101.136 56.4829 100.809 56.6383L100.7 56.6915L100.379 56.852ZM95.1346 61.7349C95.4485 62.1562 96.0946 61.9203 96.5934 61.7382L96.6192 61.7287C97.9567 61.2408 99.5684 61.6215 100.546 62.6564C101.082 63.2237 101.875 63.0652 102.696 62.901C103.382 62.7638 104.087 62.6228 104.678 62.8979C104.955 63.0265 105.212 63.2441 105.463 63.4573C105.924 63.848 106.367 64.2238 106.884 64.0111C107.864 63.6074 109.066 63.8227 109.852 64.5291L109.85 64.7516L109.846 65.2425C109.064 64.4593 107.798 64.2057 106.775 64.6273C106.259 64.8402 105.815 64.4642 105.354 64.0735C105.103 63.8603 104.846 63.6429 104.57 63.5141C103.978 63.239 103.273 63.38 102.587 63.5174C101.766 63.6814 100.973 63.8401 100.437 63.2726C99.4793 62.2583 97.9124 61.8725 96.5911 62.3168L96.3276 62.4112C95.8571 62.578 95.3077 62.7295 95.0258 62.3514C94.1373 61.1584 92.3525 60.7401 91.0261 61.4141L91.1976 60.7668L91.276 60.7308C92.5854 60.1541 94.2772 60.584 95.1346 61.7349ZM92.0892 67.0547C91.5978 67.2558 90.9612 67.5164 90.6315 67.1076C90.0306 66.3626 88.6581 66.3083 86.5137 66.9445C86.6778 67.0558 87.1007 67.0447 87.622 67.0313C88.6043 67.0057 89.9364 66.9712 90.5466 67.7275C90.8426 68.0945 91.386 67.9221 91.8495 67.7375L92.1094 67.6328C93.4125 67.1382 94.9929 67.4637 95.9891 68.4404C96.5464 68.9868 97.3328 68.7979 98.1467 68.6024C98.8269 68.439 99.5264 68.2708 100.128 68.5232C100.409 68.6411 100.674 68.8487 100.933 69.052C101.409 69.4248 101.867 69.7835 102.374 69.551L102.445 69.5199C103.021 69.277 104.127 69.6863 105.129 70.0575C105.858 70.3275 106.533 70.5771 106.908 70.5407C104.585 69.1735 103.102 68.6369 102.459 68.9309L102.408 68.9524C101.921 69.1392 101.478 68.7921 101.018 68.4321C100.759 68.2286 100.494 68.021 100.213 67.9031C99.6113 67.6509 98.9118 67.8189 98.2316 67.9825C97.4177 68.178 96.6313 68.3669 96.074 67.8205C95.0576 66.8238 93.4327 66.5053 92.1149 67.0442L92.0892 67.0547ZM96.6445 89.6255C97.234 90.0039 97.9975 90.4939 98.5429 90.225C99.506 89.7501 101.242 90.1714 103.75 91.4894L103.991 91.6177C103.745 91.6629 103.193 91.4931 102.513 91.2841C101.231 90.8899 99.4923 90.3554 98.4835 90.8528C97.9938 91.0943 97.3284 90.724 96.7709 90.3721L96.4589 90.1739C94.9868 89.2705 92.9986 88.9655 91.4574 89.3916C90.9633 89.5974 90.2754 89.3566 89.5193 89.0921C89.0052 88.9121 88.4595 88.7212 87.9217 88.652C87.2592 88.5671 86.9177 88.6182 86.6181 88.6629C86.3175 88.7079 86.0588 88.7465 85.5598 88.6351C85.1739 88.5488 84.5573 88.279 83.7098 87.8259C82.2076 87.1048 79.5459 87.1921 78.145 87.6934L78.0694 87.7194C76.5716 88.2147 76.5841 87.6721 78.0901 87.1074L78.2044 87.0654L78.2944 87.0343C79.895 86.5014 82.8593 86.5596 84.4107 87.5547L84.4413 87.5744C85.0306 87.9528 85.7941 88.4428 86.3395 88.1736L86.3799 88.1558C86.7613 87.9989 87.6536 88.0015 87.9303 88.0198L87.9814 88.0242C88.9126 88.1275 89.1152 88.2117 89.3365 88.3732L89.4952 88.4933L89.5857 88.5281C89.9223 88.6592 90.2793 88.8142 90.6568 88.9933C90.8129 88.9794 90.9925 88.9383 91.2048 88.8625L91.2948 88.8314C92.8951 88.2985 95.0627 88.6107 96.6139 89.6058L96.6445 89.6255ZM89.71 71.7476C90.0589 72.1564 90.7322 71.8958 91.2521 71.6947L91.2793 71.6842C92.6733 71.1453 94.3925 71.4638 95.4678 72.4605C96.0573 73.0069 96.8892 72.818 97.7504 72.6225C98.4699 72.4589 99.2099 72.2909 99.8463 72.5431C100.144 72.661 100.424 72.8686 100.698 73.0721C101.184 73.4321 101.653 73.7792 102.169 73.5924L102.223 73.5709C102.902 73.2769 104.471 73.8135 106.93 75.1807C106.532 75.2171 105.819 74.9675 105.047 74.6975C103.987 74.3263 102.817 73.917 102.208 74.1599L102.133 74.191C101.596 74.4235 101.112 74.0648 100.609 73.692C100.334 73.4887 100.054 73.2811 99.7565 73.1632C99.1202 72.9108 98.3801 73.079 97.6606 73.2424C96.7995 73.4379 95.9675 73.6268 95.378 73.0804C94.324 72.1037 92.652 71.7782 91.2735 72.2728L90.9985 72.3775C90.5081 72.5621 89.9332 72.7345 89.6202 72.3675C88.9748 71.6112 87.5654 71.6457 86.5263 71.6713C85.9746 71.6847 85.5273 71.6958 85.3537 71.5845C87.6225 70.9483 89.0746 71.0026 89.71 71.7476ZM89.3562 76.7987C88.7579 76.9998 87.9832 77.2604 87.5816 76.8516C86.8506 76.1066 85.18 76.0523 82.5697 76.6885C82.7693 76.7998 83.2841 76.7887 83.9188 76.7753C85.1145 76.7497 86.7358 76.7152 87.4784 77.4715C87.8387 77.8385 88.4999 77.6661 89.0644 77.4815L89.3806 77.3768C90.9667 76.8822 92.8905 77.2077 94.1029 78.1844C94.7813 78.7308 95.7383 78.5419 96.7292 78.3464C97.5569 78.183 98.4084 78.0148 99.1406 78.2672C99.4828 78.3851 99.8053 78.5927 100.121 78.796C100.7 79.1688 101.257 79.5275 101.875 79.295L101.961 79.2639C102.662 79.021 104.008 79.4303 105.228 79.8015C106.116 80.0715 106.936 80.3211 107.394 80.2847C104.565 78.9175 102.76 78.3809 101.978 78.6749L101.916 78.6964C101.323 78.8832 100.784 78.5361 100.224 78.1761C99.9085 77.9726 99.5862 77.765 99.244 77.6471C98.5119 77.3949 97.6604 77.5629 96.8326 77.7265C95.8418 77.922 94.8848 78.1109 94.2064 77.5645C92.9691 76.5678 90.9911 76.2493 89.3873 76.7882L89.3562 76.7987ZM84.7106 80.7956C85.1607 81.2044 86.0298 80.9438 86.7007 80.7427L86.7355 80.7322C88.5345 80.1933 90.7526 80.5118 92.1402 81.5085C92.9009 82.0549 93.9742 81.866 95.0854 81.6705C96.0139 81.5069 96.9686 81.3389 97.7899 81.5911C98.1736 81.709 98.5351 81.9166 98.8893 82.1201C99.5166 82.4801 100.121 82.8272 100.787 82.6404L100.857 82.6189C101.733 82.3249 103.758 82.8615 106.93 84.2287C106.417 84.2651 105.496 84.0155 104.501 83.7455C103.133 83.3743 101.623 82.965 100.837 83.2079L100.741 83.239C100.047 83.4715 99.4225 83.1128 98.7733 82.74C98.4193 82.5367 98.0578 82.3291 97.6739 82.2112C96.8528 81.9588 95.8979 82.127 94.9694 82.2904C93.8584 82.4859 92.7849 82.6748 92.0242 82.1284C90.6645 81.1517 88.5069 80.8262 86.7281 81.3208L86.3734 81.4255C85.7405 81.6101 84.9988 81.7825 84.5946 81.4155C83.762 80.6592 81.9436 80.6937 80.6026 80.7193C79.8908 80.7327 79.3136 80.7438 79.0897 80.6325C82.0169 79.9963 83.8907 80.0506 84.7106 80.7956ZM84.6127 84.2227C83.9418 84.4238 83.0727 84.6844 82.6226 84.2756C81.8027 83.5306 79.9289 83.4763 77.0017 84.1125C77.2256 84.2238 77.8028 84.2127 78.5146 84.1993C79.8556 84.1737 81.674 84.1392 82.5066 84.8955C82.9108 85.2625 83.6525 85.0901 84.2854 84.9055L84.6401 84.8008C86.304 84.3382 88.2994 84.5932 89.6634 85.4275C90.0817 85.7615 90.8092 85.7195 91.6089 85.6736C92.1527 85.6425 92.7299 85.6094 93.2659 85.6912C93.9264 85.7922 94.2405 85.9353 94.5161 86.0608C94.7927 86.187 95.0307 86.2954 95.5411 86.3258C96.1332 86.361 97.5423 86.058 97.5423 86.058C99.1851 85.7787 101.72 86.5965 102.928 87.4644L102.994 87.5104C104.329 88.4212 104.441 87.8475 103.044 86.8445L102.966 86.7898C101.574 85.8362 98.7091 85.0753 96.9435 85.6042L96.9087 85.6147C96.2378 85.8158 95.3687 86.0764 94.9186 85.6676C94.605 85.3824 93.5795 85.1047 93.3819 85.0711C92.3369 84.8929 92.1952 84.9488 91.878 85.0734C91.8523 85.0834 91.8256 85.0941 91.7973 85.1047L91.7006 85.1133C91.341 85.1467 90.9549 85.1973 90.5427 85.2653C90.3965 85.2089 90.2353 85.1198 90.0522 84.9885L89.9743 84.9338C88.5825 83.9802 86.4131 83.6833 84.6475 84.2122L84.6127 84.2227Z" fill="#FFB61D"/>
<path fill-rule="evenodd" clip-rule="evenodd" d="M113.297 43.3999C117.211 43.4134 120.3 46.734 120.036 50.6432C120.036 50.6432 115.472 70.4999 117.785 77.5578C118.68 80.2882 131.602 88.7849 131.056 89.6577L129.232 94.0268C128.584 95.0608 108.751 81.7941 108.751 81.7941C106.848 80.2835 106.495 50.2528 106.495 50.2528C106.457 46.4707 109.518 43.3865 113.297 43.3999Z" fill="white"/>
<path d="M133.84 90.4462L131.509 95.2455L131.463 95.3738C131.269 95.871 130.528 96.1754 130.432 96.1998H130.418L129.042 95.3852C128.884 95.253 128.798 94.5096 128.965 93.8185L129.004 93.6733C129.004 93.6733 130.095 89.8402 130.999 88.8723C131.526 88.3078 134.57 88.8723 133.84 90.4462Z" fill="white"/>
<path fill-rule="evenodd" clip-rule="evenodd" d="M100.637 134.706H95.0727C95.0727 134.706 101.603 117.752 101.603 113.302C101.603 111.922 96.4698 114.001 97.2145 111.922C98.2383 109.064 101.782 103.951 100.909 101.385C99.9962 98.7009 96.592 97.7283 93.6273 96.6407C93.0591 96.4321 103.422 97.1518 106.265 94.8907C110.014 91.9081 106.97 85.3214 107.977 87.644C109.192 90.4458 117.086 97.4757 115.521 105.088C113.997 112.504 100.637 134.706 100.637 134.706Z" fill="white"/>
<path fill-rule="evenodd" clip-rule="evenodd" d="M98.7081 137.975L98.1151 137.779C98.0959 137.773 98.0935 137.746 98.1114 137.737L98.6772 137.429V136.727C98.6772 136.707 98.7009 136.696 98.7158 136.71L99.1835 137.121L99.96 136.712C99.9804 136.701 100.002 136.723 99.9911 136.743L99.5514 137.546L100.385 138.417C100.402 138.434 100.385 138.462 100.362 138.455L99.2134 138.124L98.7515 138.938C98.7397 138.958 98.7081 138.95 98.7081 138.926V138.495V137.975Z" fill="#FFB61D"/>
<path fill-rule="evenodd" clip-rule="evenodd" d="M84.6016 100.557C84.3596 100.809 84.1204 101.063 83.8815 101.317H83.8812V101.317H83.881C83.4288 101.797 82.9769 102.278 82.5057 102.739C81.6234 103.601 80.7325 104.459 79.7964 105.261C78.635 106.257 77.4451 107.221 76.228 108.147C74.8506 109.195 73.4403 110.201 72.0237 111.195C71.9843 111.223 71.9448 111.251 71.9054 111.279C71.8708 111.303 71.8365 111.327 71.8019 111.352L71.8012 111.352L71.8003 111.353L71.7984 111.354C71.076 111.867 70.3538 112.379 69.4255 112.537C69.1604 112.583 68.9123 112.715 68.6627 112.849C68.4641 112.956 68.2644 113.063 68.0544 113.127C66.6065 113.566 65.1509 113.984 63.6865 114.363C62.7873 114.596 61.8693 114.762 60.9534 114.921C60.3833 115.021 57.1182 115.54 54.9459 115.855C52.774 116.17 45.5901 116.17 43.7965 116.133C42.7901 116.112 41.7839 116.077 40.7779 116.038C40.7608 116.038 40.7434 116.037 40.726 116.037C40.5211 116.029 40.3033 116.021 40.1251 115.941C39.137 115.493 38.3726 115.981 37.5979 116.475L37.5422 116.51C36.5251 117.158 35.9027 118.133 35.2877 119.131C34.9608 119.661 34.6146 120.18 34.2682 120.698V120.698C33.8957 121.256 33.5231 121.814 33.1748 122.387C32.7136 123.145 32.3025 123.934 31.8916 124.722C31.8179 124.864 31.7439 125.006 31.6699 125.147C31.1267 126.184 30.312 126.787 29.1431 127.01C28.5622 127.121 28.0646 126.949 27.5681 126.777C27.3841 126.713 27.2004 126.649 27.0125 126.6C26.6447 126.504 26.3485 125.51 26.4795 125.117C26.8623 123.97 27.2458 122.823 27.6293 121.675L27.6296 121.675C28.4309 119.277 29.2322 116.88 30.0264 114.481C30.5813 112.805 31.1228 111.125 31.6645 109.444C31.8176 108.97 31.9705 108.495 32.1239 108.021C32.1967 107.795 32.2661 107.568 32.3355 107.341V107.341C32.4505 106.964 32.5654 106.587 32.6969 106.216C32.7401 106.095 32.9182 105.945 33.0396 105.94C33.9161 105.905 34.7575 106.12 35.5568 106.448C37.0683 107.068 38.2313 108.114 39.085 109.507C39.3115 109.876 39.7066 110.009 40.2049 109.921C40.4453 109.879 40.6879 109.847 40.9304 109.815H40.9306H40.9308V109.815H40.9311C41.3013 109.766 41.6711 109.717 42.0326 109.631C42.8369 109.44 43.651 109.434 44.4651 109.427C44.9892 109.423 45.5131 109.419 46.0344 109.366C46.3926 109.329 46.7526 109.308 47.1127 109.287H47.1129C47.5936 109.259 48.0741 109.231 48.5497 109.166C49.4151 109.047 50.2763 108.897 51.1374 108.746C51.5458 108.675 51.9538 108.604 52.3626 108.536C52.6928 108.482 53.0236 108.43 53.3544 108.378H53.3547H53.3551H53.3554L53.3558 108.378H53.3561H53.3565H53.3567C53.9954 108.278 54.6341 108.178 55.2689 108.056C56.0804 107.9 56.8857 107.71 57.6905 107.52H57.6907H57.691L57.6982 107.518C57.7928 107.496 57.8875 107.474 57.9821 107.452C58.8333 107.251 59.6829 107.044 60.5327 106.838C60.8898 106.751 61.2466 106.664 61.6039 106.577C61.6419 106.568 61.68 106.558 61.718 106.549C61.7359 106.544 61.7538 106.539 61.7716 106.535C61.7521 106.525 61.7326 106.515 61.7132 106.504H61.7129C61.6709 106.483 61.6287 106.461 61.5886 106.436C61.4649 106.36 61.3376 106.288 61.2102 106.216C60.9195 106.051 60.6286 105.886 60.381 105.671C59.8247 105.189 60.0149 104.386 60.7221 104.173C61.2612 104.01 61.8171 103.847 62.3737 103.809C63.1237 103.759 63.807 103.51 64.4911 103.26C64.766 103.16 65.041 103.06 65.3203 102.973C65.9796 102.766 66.3754 102.378 66.7065 101.785C66.8659 101.499 67.0995 101.256 67.3343 101.012C67.4995 100.841 67.6651 100.669 67.8059 100.481C68.5351 99.5061 69.2439 98.5157 69.9341 97.5132C70.0809 97.3 70.1988 97.0671 70.3166 96.8339C70.4067 96.6558 70.4969 96.4776 70.6002 96.3078C70.8424 95.9094 71.089 95.5064 71.388 95.1519L71.4272 95.1055V95.1053C72.1135 94.2917 72.8018 93.4755 73.5479 92.7187C73.9549 92.3062 74.404 91.9355 74.8532 91.5648C75.0652 91.3896 75.2775 91.2144 75.4854 91.0346C75.5902 90.9439 75.6909 90.8458 75.7791 90.7391C75.9304 90.5558 75.9928 90.4034 75.7645 90.1869C75.7048 90.1305 75.645 90.0742 75.5851 90.0178C74.9887 89.457 74.3864 88.8909 74.0604 88.1147C74.0263 88.0335 73.9918 87.952 73.9572 87.8706C73.6955 87.2528 73.4312 86.6292 73.2823 85.9824C73.0819 85.1117 73.1628 84.225 73.4224 83.3475C73.7855 82.1198 74.546 81.1895 75.5761 80.5215C76.2113 80.1097 76.8797 79.7497 77.5483 79.3894V79.3892H77.5485H77.5488V79.3889H77.549C78.0446 79.1219 78.5401 78.8549 79.0227 78.5667C79.3955 78.3438 79.7145 78.0194 80.0258 77.7032L80.0565 77.6719C80.076 77.6522 80.0954 77.6325 80.1149 77.6127C81.516 76.1952 82.4922 74.48 83.465 72.7711L83.4659 72.7693C83.569 72.5883 83.672 72.4073 83.7754 72.2269C84.7157 70.5864 85.5593 68.8886 86.4003 67.1934C86.6423 66.7053 86.8499 66.2002 87.0575 65.6949V65.6947V65.6944C87.241 65.2478 87.4248 64.801 87.6322 64.3658C87.7962 64.0217 87.9983 63.6964 88.2008 63.371C88.3493 63.1315 88.4983 62.8923 88.6319 62.6453C88.7757 62.3798 88.9068 62.1072 89.0379 61.8349C89.2365 61.4221 89.4351 61.0097 89.6764 60.6238C89.8487 60.348 90.0991 60.1206 90.3489 59.8937V59.8935H90.3492L90.3494 59.8933C90.4538 59.7984 90.5582 59.7035 90.6568 59.6051C90.7797 59.4826 90.905 59.362 91.0301 59.2414C91.1607 59.1156 91.2913 58.9899 91.4196 58.8618C91.6456 58.6358 91.8688 58.4068 92.0852 58.1718C92.4993 57.7222 92.9158 57.2745 93.3324 56.8269L93.3334 56.8258L93.3343 56.8248L93.3355 56.8237L93.3364 56.8225L93.3373 56.8216L93.3382 56.8204L93.3385 56.8202H93.3387C94.3704 55.7112 95.4023 54.6021 96.4002 53.4632C97.5692 52.1287 98.6814 50.742 99.7737 49.3431C100.208 48.787 100.6 48.1972 100.991 47.6075L100.992 47.6068C101.166 47.3444 101.34 47.082 101.518 46.8224C101.523 46.8145 101.529 46.8059 101.533 46.7973L101.537 46.7908C101.539 46.7857 101.542 46.7806 101.545 46.7758V46.7755C101.556 46.7528 101.568 46.7301 101.585 46.7115C101.868 46.3999 102.148 46.0856 102.428 45.771H102.428V45.7707L102.428 45.7705C103.085 45.0323 103.742 44.2938 104.437 43.5934C105.469 42.5541 106.651 41.6922 107.934 40.9744C108.129 40.8651 108.318 40.7407 108.506 40.6166C108.803 40.4211 109.099 40.2259 109.421 40.0898C109.497 40.0577 109.574 40.0248 109.651 39.9916C110.266 39.7274 110.911 39.4506 111.545 39.4374C112.885 39.41 114.277 39.4253 115.402 40.3721C115.615 40.5514 115.671 40.5092 115.691 40.2691C115.711 40.0401 115.75 39.8042 115.788 39.568C115.879 39.0181 115.97 38.4678 115.812 38.0024C115.716 37.7213 115.683 37.4373 115.65 37.1557C115.613 36.8373 115.575 36.5221 115.449 36.2172C115.028 35.1985 114.651 34.1608 114.275 33.1235V33.1233H114.275L114.275 33.1226L114.272 33.1149L114.189 32.8848C114.161 32.808 114.133 32.7312 114.105 32.6544C113.987 32.3305 113.892 31.9904 113.848 31.6498C113.817 31.4062 113.806 31.1601 113.796 30.9139C113.785 30.6613 113.774 30.4086 113.741 30.1592C113.623 29.2711 113.931 28.4909 114.24 27.7075V27.7072C114.296 27.5643 114.353 27.4214 114.407 27.2776C115.063 25.5248 116.294 24.1991 117.622 22.9543C118.766 21.8825 120.661 21.5453 122.193 21.281C122.759 21.1834 126.732 21.09 128.83 21.0407H128.831C129.515 21.0246 130 21.0132 130.102 21.0079C130.516 20.9863 130.796 20.7938 131.076 20.5871C131.655 20.1605 131.803 19.499 131.949 18.848C131.964 18.7838 131.978 18.7197 131.993 18.656C131.996 18.6405 132 18.6253 132.003 18.6105C132.041 18.4398 132.067 18.3202 132.324 18.3288C133.181 18.3576 133.621 18.9171 134.041 19.5564C134.513 20.2763 134.896 21.027 135.027 21.8851C135.187 22.93 135.101 23.9006 134.358 24.7611C133.754 25.4608 133.051 25.9955 132.256 26.4444C132.15 26.5041 132.084 26.8196 132.142 26.9544C132.741 28.3355 132.786 29.7915 132.727 31.2533C132.713 31.6081 132.656 31.9609 132.598 32.314V32.3143C132.543 32.6486 132.489 32.9831 132.471 33.3193C132.42 34.284 132.618 35.2117 133.004 36.1086C133.267 36.7172 133.083 37.2935 132.643 37.7718C132.567 37.8537 132.473 37.9224 132.38 37.9904C132.249 38.086 132.119 38.1806 132.046 38.3094C131.878 38.601 131.762 38.9518 131.735 39.2861C131.714 39.5418 131.741 39.8009 131.769 40.0605V40.0608V40.061V40.0612C131.786 40.2227 131.803 40.3844 131.809 40.5456C131.83 41.1662 131.594 41.6973 131.276 42.2272C130.7 43.186 129.939 43.8915 128.835 44.1224C127.89 44.3203 126.908 44.3321 125.995 44.0208C124.958 43.6674 123.947 43.2153 122.971 42.7148C122.694 42.5728 122.475 42.3176 122.256 42.0624C122.158 41.9483 122.06 41.8344 121.957 41.7305C121.804 41.5766 121.727 41.5319 121.524 41.7469C120.799 42.5148 120.272 43.3874 119.846 44.3507C119.61 44.8822 119.763 45.3193 119.925 45.7847L119.944 45.8394L119.967 45.9044L119.991 45.9723C120.216 46.6168 120.44 47.2581 120.422 47.9631C120.414 48.3125 120.42 48.6631 120.427 49.0134C120.438 49.567 120.449 50.12 120.398 50.668C120.345 51.2541 120.213 51.8331 120.082 52.412V52.4122C120.029 52.6451 119.976 52.8781 119.928 53.1112C119.877 53.3588 119.827 53.6068 119.778 53.8548V53.855V53.8552L119.777 53.8555C119.627 54.6053 119.477 55.3554 119.297 56.0982C119.214 56.442 119.099 56.7782 118.985 57.1146C118.891 57.3898 118.798 57.6651 118.721 57.9449C118.633 58.2686 118.542 58.5922 118.453 58.9156L118.452 58.917C118.103 60.1768 117.753 61.4368 117.469 62.7116C117.227 63.8032 117.087 64.926 117.005 66.0427C116.954 66.7405 116.962 67.4426 116.97 68.1448V68.145V68.1453V68.1455C116.974 68.5339 116.978 68.9225 116.973 69.3104C116.969 69.6034 116.953 69.8964 116.938 70.1894V70.1899V70.1901V70.1904V70.1906V70.1908V70.1911V70.1913C116.919 70.5634 116.899 70.9355 116.902 71.3074C116.903 71.393 116.904 71.4787 116.905 71.5643L116.906 71.7536C116.912 72.7375 116.919 73.723 117.005 74.7007C117.092 75.676 117.276 76.6478 117.49 77.6048C117.666 78.3911 118.205 78.9985 118.74 79.5683C119.018 79.865 119.327 80.1327 119.636 80.4004L119.636 80.4007L119.636 80.4009L119.637 80.4011L119.637 80.4014H119.637V80.4016L119.637 80.4018C119.853 80.5888 120.069 80.7758 120.274 80.9728C120.415 81.108 120.542 81.2589 120.669 81.4094C120.827 81.5966 120.984 81.7836 121.168 81.9402C121.769 82.4511 122.38 82.9499 122.99 83.4487C123.454 83.8273 123.917 84.2057 124.376 84.5894C124.788 84.9337 125.193 85.2852 125.599 85.6367L125.599 85.6372C126.009 85.9923 126.419 86.3473 126.835 86.6948C127.404 87.17 127.98 87.6388 128.583 88.0692C128.867 88.272 129.164 88.4559 129.461 88.6399C129.768 88.8302 130.075 89.0204 130.368 89.2315C130.719 89.4849 130.991 89.3422 131.262 89.2004C131.355 89.1515 131.448 89.1028 131.544 89.0703C132.324 88.8067 132.942 88.9063 133.234 89.6568C133.293 89.8071 133.383 89.9424 133.473 90.0783C133.636 90.3256 133.802 90.576 133.788 90.9254C133.783 91.0346 134.019 91.165 134.221 91.2766C134.247 91.2905 134.271 91.3042 134.295 91.3174C134.317 91.3295 134.337 91.3413 134.357 91.3529C134.951 91.7037 135.553 92.0424 136.155 92.3802C136.283 92.4521 136.416 92.518 136.549 92.5837C136.804 92.7104 137.06 92.8366 137.281 93.0069C137.508 93.1802 137.713 93.3808 137.918 93.5815C138.124 93.7827 138.33 93.9838 138.556 94.1576C139.023 94.5151 139.288 95.0074 139.551 95.4965C139.648 95.676 139.744 95.8551 139.85 96.0273C140.144 96.5022 140.313 97.085 140.41 97.6422C140.541 98.393 140.595 99.1653 140.592 99.9281C140.59 100.247 140.397 100.589 140.22 100.876C140.028 101.186 139.742 101.23 139.465 100.931C139.443 100.906 139.411 100.89 139.379 100.874L139.372 100.871L139.365 100.867C139.355 100.862 139.345 100.857 139.336 100.851C139.329 100.91 139.324 100.97 139.316 101.028C139.298 101.157 139.284 101.286 139.27 101.415C139.235 101.733 139.2 102.051 139.111 102.353C139.051 102.556 138.791 102.823 138.611 102.832C138.473 102.839 138.327 102.71 138.183 102.582V102.582H138.183C138.125 102.531 138.068 102.48 138.011 102.438C137.955 102.397 137.908 102.344 137.862 102.291L137.847 102.275C137.805 102.228 137.77 102.174 137.731 102.124C137.723 102.141 137.715 102.158 137.707 102.175L137.706 102.179L137.692 102.209C137.685 102.224 137.678 102.239 137.67 102.254C137.663 102.269 137.656 102.284 137.648 102.299C137.639 102.317 137.63 102.335 137.622 102.354C137.606 102.388 137.592 102.424 137.577 102.459V102.46H137.576C137.525 102.583 137.474 102.706 137.386 102.79C137.046 103.113 136.589 102.987 136.448 102.532C136.376 102.296 136.315 102.055 136.255 101.815C136.171 101.482 136.087 101.149 135.97 100.828C135.922 100.695 135.883 100.56 135.843 100.425C135.727 100.029 135.611 99.6332 135.285 99.2999C135.051 99.06 134.907 98.7291 134.764 98.3997C134.709 98.2714 134.653 98.1433 134.592 98.0211C134.227 97.2852 133.623 96.804 132.925 96.4156C132.735 96.3098 132.546 96.1938 132.381 96.0535C132.015 95.7426 131.762 95.912 131.539 96.2284C131.171 96.7516 130.561 96.9444 129.994 96.643C129.125 96.1813 128.415 95.5749 128.179 94.5362C128.135 94.3441 127.851 94.1745 127.643 94.0571C127.017 93.7043 126.388 93.3579 125.758 93.0113L125.758 93.011H125.757L125.757 93.0108L125.757 93.0106L125.756 93.0103L125.756 93.0101H125.756C124.712 92.4359 123.669 91.8619 122.643 91.2583C121.363 90.5047 120.115 89.6939 118.868 88.8835L118.868 88.8833L118.868 88.8831C118.742 88.8014 118.617 88.72 118.491 88.6385C116.525 87.3616 114.566 86.0735 112.607 84.7852C112.224 84.5333 111.841 84.2813 111.458 84.0294C111.028 83.7468 110.601 83.4598 110.174 83.1728C109.876 82.9726 109.578 82.7726 109.28 82.5741C109.16 82.4945 109.034 82.423 108.905 82.3618C108.518 82.1794 108.405 82.2451 108.374 82.6597C108.373 82.675 108.374 82.6905 108.374 82.7061C108.366 83.2842 108.357 83.8624 108.349 84.4407C108.327 86.0455 108.304 87.6502 108.28 89.2552C108.273 89.7668 108.541 90.1588 108.805 90.5451C108.858 90.6235 108.912 90.7015 108.963 90.7804C109.894 92.2227 110.844 93.6527 111.805 95.0761C112.068 95.4663 112.34 95.85 112.613 96.234L112.613 96.2342L112.613 96.2344L112.613 96.2347V96.2349L112.614 96.2351C113.026 96.8149 113.437 97.3947 113.816 97.9953C114.008 98.3002 114.123 98.6537 114.237 99.0071C114.288 99.1623 114.338 99.3175 114.395 99.4685C114.421 99.5374 114.448 99.6059 114.476 99.6745V99.6748C114.549 99.8592 114.623 100.044 114.669 100.236C115.043 101.783 114.875 103.318 114.505 104.837C114.48 104.938 114.456 105.04 114.431 105.142C114.202 106.09 113.971 107.043 113.636 107.955C113.367 108.687 113.032 109.393 112.697 110.1L112.696 110.101V110.102H112.696V110.102C112.535 110.442 112.373 110.782 112.22 111.125C111.95 111.724 111.69 112.328 111.433 112.932C110.997 113.958 110.563 114.984 110.135 116.012C109.979 116.386 109.829 116.761 109.678 117.137C109.377 117.889 109.076 118.641 108.734 119.374C108.241 120.429 107.693 121.459 107.145 122.488C107.066 122.636 106.988 122.784 106.91 122.932C106.568 123.576 106.217 124.216 105.866 124.856L105.866 124.858C105.527 125.477 105.187 126.096 104.856 126.72C104.554 127.289 104.259 127.862 103.965 128.435C103.65 129.048 103.336 129.661 103.011 130.268C102.55 131.131 102.067 131.982 101.57 132.824C101.156 133.525 101.276 133.852 101.755 134.498C102.274 135.198 103.081 135.432 103.881 135.615C106.072 136.115 108.269 136.595 110.465 137.075L110.466 137.075L110.466 137.076L110.467 137.076L110.468 137.076L110.469 137.076H110.47L110.471 137.077L110.584 137.101C110.806 137.15 111.03 137.186 111.254 137.222H111.255C111.507 137.263 111.759 137.303 112.007 137.361C113.245 137.651 113.867 138.563 114.199 139.693C114.411 140.417 114.473 141.193 113.897 141.794C113.68 142.021 113.282 142.189 112.966 142.191C108.893 142.204 104.82 142.207 100.746 142.209H100.709C98.1555 142.21 95.6021 142.212 93.0489 142.216C92.7499 142.216 92.7283 142.127 92.7056 141.864C92.6826 141.596 92.6348 141.329 92.5875 141.063C92.5177 140.671 92.4481 140.281 92.4566 139.891C92.4979 138.018 93.1543 136.341 94.3024 134.868C94.3853 134.762 94.5196 134.691 94.6523 134.622C94.7998 134.545 94.9451 134.469 95.0144 134.346C95.3492 133.754 95.6364 133.124 95.8564 132.48C96.2088 131.448 96.5591 130.406 96.7851 129.342C96.889 128.853 97.0391 128.38 97.1892 127.905C97.3757 127.316 97.5627 126.726 97.6613 126.105C97.7657 125.45 98.0381 124.819 98.3086 124.192C98.3926 123.997 98.4763 123.803 98.555 123.608C98.8232 122.945 99.1002 122.284 99.3772 121.624C99.8076 120.598 100.238 119.572 100.635 118.534C100.918 117.793 101.153 117.035 101.388 116.276L101.388 116.276V116.275V116.275V116.275C101.522 115.842 101.656 115.409 101.799 114.98C102.101 114.07 102.409 113.161 102.756 112.268C102.833 112.068 102.79 112.064 102.68 112.055C102.66 112.054 102.637 112.052 102.613 112.049C101.15 111.855 99.709 111.872 98.3448 112.523C98.0457 112.665 97.8356 112.636 97.6377 112.387C97.4354 112.134 97.5407 111.948 97.7196 111.716C98.7858 110.327 99.448 108.746 99.9558 107.077C100.009 106.902 100.064 106.728 100.119 106.554C100.449 105.502 100.778 104.454 100.769 103.337C100.762 102.491 100.553 101.731 99.9714 101.023C99.8435 100.868 99.7261 100.705 99.6092 100.543L99.609 100.542C99.2598 100.058 98.9155 99.5803 98.3167 99.3305C98.0135 99.2038 97.7145 99.0676 97.4154 98.9312L97.4147 98.931L97.4145 98.9307H97.4142L97.414 98.9305H97.4138H97.4135L97.4133 98.9303H97.4131C97.1024 98.7885 96.7916 98.6468 96.4763 98.5164C96.2362 98.4169 95.9963 98.3164 95.7564 98.2162C94.8112 97.8209 93.8656 97.4251 92.9009 97.0833C92.3154 96.8757 91.7087 96.7272 91.102 96.5787L91.1018 96.5785H91.1015H91.1013L91.1011 96.5783H91.1008H91.1006H91.1004C90.8252 96.5108 90.5501 96.4435 90.2768 96.3706C90.2229 96.3562 90.1698 96.3393 90.1167 96.3224C90.0875 96.3131 90.0585 96.3038 90.0292 96.2948C90.0158 96.2908 90.0023 96.2869 89.9889 96.2829C89.3655 96.105 88.8212 96.1358 88.3978 96.7374C88.2122 97.0012 87.957 97.2163 87.6897 97.4413C87.6366 97.4861 87.583 97.5313 87.5294 97.5773C86.5225 98.5705 85.5602 99.562 84.6016 100.557ZM107.452 83.6993C107.483 83.4784 107.527 83.2591 107.571 83.0399C107.624 82.7713 107.678 82.5026 107.707 82.2312L107.715 82.1553H107.715C107.778 81.5737 107.841 80.9835 107.8 80.4049C107.779 80.1051 107.699 79.8107 107.619 79.5154C107.554 79.2762 107.489 79.0365 107.455 78.7934C107.276 77.5158 107.115 76.2344 106.991 74.9503C106.883 73.8339 106.811 72.7136 106.739 71.5937C106.729 71.4369 106.719 71.2801 106.708 71.1232C106.636 70.0052 106.568 68.8865 106.525 67.7674C106.483 66.6941 106.462 65.6202 106.441 64.5463V64.546C106.438 64.3957 106.435 64.2451 106.433 64.0948C106.431 64.027 106.454 63.9595 106.477 63.8913C106.492 63.8479 106.507 63.8043 106.516 63.7603C106.521 63.7345 106.526 63.7085 106.532 63.6825L106.537 63.6607L106.542 63.6417L106.549 63.6127L106.549 63.6106C106.582 63.4726 106.616 63.3334 106.603 63.199C106.59 63.0513 106.557 62.9039 106.523 62.7571C106.478 62.5578 106.433 62.3594 106.439 62.1613C106.472 60.8493 106.531 59.5378 106.59 58.2266V58.2261C106.599 58.0326 106.607 57.8391 106.616 57.6457C106.629 57.3638 106.665 57.0821 106.708 56.8028C106.829 56.014 106.955 55.2259 107.082 54.4378L107.124 54.1719L107.17 53.8868C107.18 53.8228 107.194 53.7592 107.208 53.6959C107.214 53.6664 107.22 53.6369 107.226 53.6072C107.229 53.6274 107.231 53.6476 107.234 53.6676C107.236 53.6803 107.238 53.6931 107.239 53.7058C107.249 53.7761 107.259 53.8467 107.261 53.9172C107.29 55.3871 107.317 56.8571 107.344 58.327L107.355 58.8887C107.364 59.3831 107.373 59.8773 107.383 60.3717V60.3777C107.405 61.5539 107.428 62.7302 107.446 63.9066C107.459 64.6866 107.468 65.4666 107.478 66.2468C107.495 67.665 107.513 69.0835 107.546 70.5015C107.571 71.5592 107.638 72.6173 107.732 73.6713C107.801 74.4448 107.902 75.2152 108.002 75.986L108.002 75.9871V75.9878V75.9885L108.003 75.9892V75.9899V75.9906C108.035 76.2333 108.066 76.4759 108.097 76.7188C108.14 77.0606 108.187 77.4018 108.234 77.7431L108.234 77.7438C108.316 78.3401 108.399 78.9363 108.46 79.5346C108.538 80.2953 108.904 80.9113 109.431 81.399C109.815 81.7549 110.249 82.0581 110.682 82.3613L110.683 82.3618C110.854 82.4813 111.025 82.6007 111.192 82.7235C111.543 82.9803 111.893 83.2394 112.243 83.4983L112.243 83.4988C113.12 84.1489 113.997 84.7989 114.899 85.4133C115.704 85.9624 116.534 86.4768 117.363 86.9913L117.364 86.9918L117.365 86.9925L117.366 86.993C117.766 87.2414 118.167 87.4899 118.565 87.7425C118.947 87.985 119.328 88.23 119.709 88.475L119.71 88.4757L119.71 88.4761L119.711 88.4766C120.39 88.913 121.069 89.3496 121.755 89.7725L121.885 89.8526C123.144 90.6277 124.403 91.4037 125.692 92.1266C126.305 92.4705 126.954 92.7493 127.603 93.028L127.604 93.0287L127.605 93.0289C127.771 93.1001 127.936 93.1711 128.1 93.2433C128.197 93.2853 128.418 93.237 128.464 93.1604C128.572 92.9788 128.642 92.7737 128.712 92.5698L128.712 92.5693C128.726 92.5287 128.739 92.4883 128.754 92.448C129.024 91.6752 129.367 90.9534 129.952 90.3516C130.393 89.8974 130.331 89.7609 129.718 89.5027C129.684 89.4883 129.649 89.474 129.615 89.4596H129.615L129.615 89.4594H129.614C129.359 89.3524 129.1 89.2448 128.868 89.0981C128.436 88.8253 128.016 88.5295 127.612 88.2158C127.255 87.9388 126.898 87.663 126.54 87.3871L126.538 87.3855L126.536 87.3839L126.534 87.3825V87.3823H126.534V87.382H126.534C125.322 86.4464 124.11 85.5107 122.931 84.5344C121.834 83.6257 120.791 82.6462 119.77 81.6512C119.628 81.5129 119.484 81.3758 119.341 81.2384L119.34 81.2377C118.471 80.4072 117.598 79.5729 117.047 78.4707C116.972 78.3196 116.884 78.1742 116.797 78.0287C116.543 77.6062 116.29 77.184 116.327 76.6291C116.35 76.2899 116.305 75.9451 116.259 75.6013C116.243 75.4769 116.226 75.3526 116.213 75.2287C116.178 74.8932 116.135 74.5582 116.093 74.2232C116.007 73.5386 115.92 72.854 115.891 72.167C115.852 71.239 115.861 70.3089 115.87 69.3791C115.874 68.9786 115.878 68.5782 115.878 68.1782C115.878 68.0843 115.875 67.9898 115.872 67.8956C115.866 67.6899 115.86 67.4841 115.883 67.2815C115.993 66.2951 116.105 65.3084 116.253 64.3275C116.26 64.2832 116.267 64.2389 116.273 64.1945C116.281 64.1423 116.289 64.0904 116.297 64.0382C116.305 63.979 116.314 63.9199 116.323 63.8607L116.337 63.7628L116.339 63.7519V63.7517C116.477 62.8123 116.616 61.8708 116.844 60.953C117.044 60.1529 117.289 59.3643 117.534 58.5755V58.5753L117.534 58.5748V58.5744L117.534 58.5741C117.728 57.9505 117.922 57.3267 118.093 56.697C118.217 56.2444 118.352 55.795 118.488 55.3456V55.3451L118.488 55.3449V55.3447V55.3444L118.488 55.344V55.3438V55.3435H118.488C118.828 54.2167 119.168 53.0899 119.313 51.9113C119.344 51.6545 119.409 51.3986 119.474 51.1436C119.569 50.7685 119.664 50.3954 119.651 50.024C119.603 48.6821 119.229 47.3889 118.853 46.0981C118.291 44.1697 117.316 42.5615 115.629 41.4168C114.655 40.7563 113.635 40.2726 112.428 40.428C111.99 40.4844 111.556 40.5746 111.122 40.6651C110.914 40.7085 110.705 40.7521 110.496 40.7918C109.31 41.0171 108.259 41.5407 107.313 42.2771C106.76 42.7081 106.219 43.1575 105.694 43.6222C105.168 44.0869 104.642 44.5569 104.164 45.0682C103.718 45.5438 103.304 46.0489 102.89 46.5537H102.89C102.799 46.6637 102.709 46.7737 102.619 46.8832C101.907 47.7453 101.197 48.6093 100.501 49.4839C100.196 49.8669 99.8976 50.2553 99.5988 50.6434L99.5985 50.6437L99.5983 50.6439L99.5981 50.6444L99.5978 50.6446L99.5976 50.6448L99.5974 50.6453L99.5971 50.6455C99.1461 51.2313 98.6954 51.8174 98.223 52.3855C97.3658 53.4172 96.4758 54.4232 95.5729 55.4152C94.3321 56.7789 93.0694 58.1226 91.8068 59.4659C91.6994 59.5805 91.5755 59.6803 91.4516 59.7801C91.3034 59.8998 91.1553 60.019 91.0361 60.1631C90.1223 61.2665 89.2611 62.4174 88.6502 63.7173C88.0867 64.9158 87.5438 66.1241 87.0009 67.3324C86.513 68.4183 86.0251 69.5041 85.5222 70.5831C84.7071 72.332 83.81 74.0355 82.7273 75.6437L82.6477 75.7621C82.0677 76.6244 81.4874 77.4875 80.6701 78.1159C79.6045 78.9354 78.4953 79.6979 77.3864 80.4605C77.0968 80.6596 76.8075 80.8586 76.5189 81.0586C75.5835 81.7066 74.8434 82.5246 74.4794 83.6018C74.0326 84.9247 74.2611 86.2385 74.885 87.4442C75.6529 88.9283 76.8683 90.0625 78.1093 91.1434C79.4862 92.3429 81.0866 93.2031 82.8131 93.756C85.0324 94.4668 87.2642 95.1568 89.6114 95.3582C90.2253 95.4108 90.8368 95.4913 91.4484 95.5719C92.1302 95.6614 92.8121 95.7512 93.4969 95.8025C95.0112 95.9154 96.5322 95.9783 98.0508 95.9864C98.7336 95.9904 99.4164 95.9428 100.1 95.8955H100.1H100.1C100.534 95.8653 100.968 95.8352 101.401 95.8182C102.581 95.7718 103.698 95.4619 104.799 95.0705C105.538 94.8076 106.223 94.446 106.493 93.6474C106.65 93.1825 106.728 92.6848 106.793 92.1953L106.81 92.0691C106.946 91.036 107.083 90.0013 107.161 88.9629C107.232 88.0063 107.27 87.0472 107.308 86.0527C107.323 85.678 107.338 85.2984 107.355 84.9119C107.364 84.7878 107.372 84.6632 107.379 84.5389C107.397 84.2579 107.414 83.977 107.452 83.6993ZM68.2196 111.865C68.269 111.909 68.3818 111.938 68.4372 111.913C68.6906 111.798 68.9483 111.689 69.2058 111.58H69.2061C69.8343 111.315 70.463 111.05 71.0294 110.687C72.0402 110.039 73.0266 109.353 74.0129 108.668L74.0133 108.667L74.0138 108.667C74.7877 108.129 75.5617 107.591 76.3477 107.071C78.0622 105.937 79.5653 104.556 81.0687 103.175C81.3617 102.906 81.6545 102.637 81.9489 102.37C82.4059 101.955 82.8358 101.51 83.2655 101.065C83.3585 100.969 83.4516 100.873 83.5448 100.777C84.0564 100.251 84.5631 99.7198 85.0698 99.189C85.2895 98.9588 85.5092 98.7287 85.7291 98.499C85.8871 98.334 86.0456 98.1693 86.204 98.0046C86.7787 97.4074 87.3533 96.81 87.9101 96.1966C87.976 96.1242 87.8937 95.763 87.8185 95.7403C87.5032 95.6447 87.1824 95.5667 86.8615 95.4888H86.8613H86.861L86.8608 95.4886H86.8606H86.8603H86.8601L86.8599 95.4883C86.4522 95.3893 86.0449 95.2904 85.6493 95.1556L85.4479 95.087C83.8116 94.5299 82.173 93.972 80.5717 93.3242C79.105 92.731 77.7464 91.9165 76.5319 90.8829C76.5131 90.8669 76.4259 90.888 76.4166 90.911C76.0658 91.7582 75.413 92.3357 74.7581 92.9152L74.7578 92.9155C74.6084 93.0475 74.459 93.1797 74.3131 93.3152C73.6252 93.9537 72.9429 94.6081 72.3401 95.3245C71.9509 95.7876 71.6193 96.3001 71.2883 96.8121L71.2878 96.8126L71.2876 96.8128L71.2873 96.8133L71.2871 96.8137L71.2869 96.8142L71.2864 96.8147C71.1653 97.0021 71.0442 97.1894 70.9201 97.3743C70.7793 97.584 70.6305 97.7905 70.4818 97.9972C70.1171 98.5039 69.752 99.011 69.5019 99.5694C68.9444 100.815 68.0797 101.808 67.1772 102.775C66.2898 103.725 65.0809 104.079 63.887 104.429C63.7761 104.461 63.665 104.494 63.5545 104.527C63.1158 104.657 62.6646 104.745 62.2131 104.833H62.2127H62.2124H62.2122L62.2117 104.833H62.2115H62.2113L62.2108 104.833C61.9642 104.881 61.7173 104.929 61.4723 104.984C61.4102 104.998 61.354 105.04 61.2979 105.082C61.2721 105.101 61.2461 105.121 61.2195 105.138C61.2482 105.172 61.2779 105.217 61.3074 105.261C61.371 105.357 61.4348 105.452 61.4911 105.449C62.0677 105.408 62.498 105.704 62.9212 105.995H62.9214C63.0342 106.073 63.1465 106.15 63.2608 106.22C63.8188 106.564 64.3668 106.934 64.6918 107.573C64.9025 107.988 65.1862 108.367 65.4688 108.745C65.5555 108.861 65.6423 108.976 65.7268 109.093C66.0743 109.573 66.4374 110.042 66.8332 110.552L66.9169 110.66C67.0155 110.752 67.1141 110.844 67.2125 110.936C67.5466 111.247 67.8806 111.559 68.2196 111.865ZM96.6769 97.4875C97.0298 97.6752 97.4057 97.8183 97.7817 97.9612C98.5223 98.2431 99.2635 98.525 99.8289 99.1495C100.001 99.3393 100.198 99.5047 100.396 99.6704C100.525 99.778 100.654 99.8857 100.775 100C101.178 100.379 101.317 100.885 101.456 101.389C101.464 101.418 101.472 101.447 101.48 101.476C101.492 101.52 101.505 101.564 101.517 101.609C101.898 102.933 101.812 104.302 101.478 105.572L101.448 105.686L101.413 105.818C100.968 107.514 100.517 109.236 99.5716 110.758C99.4619 110.934 99.4046 111.029 99.7057 111.037C100.516 111.061 101.325 111.091 102.135 111.121H102.137C103.03 111.155 103.923 111.188 104.816 111.212C105.376 111.227 105.937 111.224 106.497 111.22C106.884 111.218 107.27 111.215 107.656 111.219C108.668 111.228 109.651 111.082 110.571 110.653C110.608 110.636 110.646 110.619 110.684 110.601L110.684 110.601C110.999 110.457 111.355 110.295 111.497 110.036C111.859 109.379 112.115 108.655 112.349 107.936C112.691 106.884 113.029 105.826 113.267 104.748C113.471 103.828 113.574 102.878 113.637 101.936C113.656 101.653 113.608 101.366 113.56 101.078C113.521 100.849 113.483 100.619 113.478 100.39C113.459 99.4936 113.034 98.763 112.609 98.0322C112.584 97.9895 112.559 97.9468 112.534 97.9039C112.435 97.7329 112.308 97.5787 112.182 97.4241C112.082 97.3035 111.983 97.1826 111.897 97.0536C111.214 96.0326 110.534 95.0097 109.854 93.9866C109.374 93.2646 108.894 92.5426 108.413 91.8211C108.367 91.752 108.308 91.6917 108.248 91.6313C108.22 91.6033 108.193 91.5752 108.166 91.5462C108.139 91.5868 108.108 91.6267 108.077 91.6664V91.6666C108.008 91.7536 107.939 91.8408 107.919 91.938C107.873 92.1635 107.842 92.3921 107.811 92.6208V92.621C107.785 92.8159 107.759 93.0108 107.722 93.2038C107.513 94.3225 106.978 95.1823 105.923 95.7354C104.47 96.498 102.908 96.8235 101.312 97.007C100.392 97.1128 99.4542 97.1297 98.5274 97.0996C97.9701 97.0812 97.4147 97.0126 96.8588 96.9439C96.5579 96.9065 96.257 96.8692 95.9557 96.8402C95.8747 96.8323 95.7902 96.8567 95.706 96.8813C95.6671 96.8924 95.6281 96.9038 95.5893 96.9119C95.613 96.9311 95.6369 96.9504 95.6606 96.9699C95.7197 97.0184 95.7791 97.0669 95.8411 97.1119C95.854 97.1214 95.8689 97.1283 95.887 97.1369C95.916 97.1506 95.9533 97.1682 96.0062 97.2061C96.0768 97.2353 96.1485 97.2629 96.2201 97.2903C96.3756 97.3501 96.531 97.4098 96.6769 97.4875ZM115.89 26.2554C115.303 27.1145 114.948 28.0942 114.769 29.124C114.588 30.1706 114.562 31.229 114.869 32.2507C115.05 32.8537 115.255 33.4497 115.459 34.0457L115.46 34.0459V34.0462C115.697 34.7359 115.934 35.4256 116.134 36.1263C116.258 36.5587 116.538 36.7612 116.847 36.8703C118.306 37.3842 119.891 36.7592 120.797 35.4175C121.043 35.0535 120.901 34.9039 120.651 34.6494C120.313 34.3048 120.017 33.9056 119.765 33.4917C119.389 32.8741 119.548 32.2442 119.979 31.7454C120.41 31.2461 121.057 31.1353 121.659 31.3443C122.347 31.5832 122.843 32.1094 123.195 32.7537C123.212 32.7841 123.224 32.8168 123.236 32.8495L123.24 32.8613C123.244 32.8727 123.248 32.8838 123.253 32.895L123.256 32.8887L123.259 32.8815L123.265 32.8704C123.274 32.853 123.282 32.8356 123.289 32.817C123.34 32.6583 123.391 32.4985 123.441 32.3384V32.3379C123.705 31.4979 123.969 30.6555 124.502 29.9388C124.917 29.3802 125.365 28.8229 125.892 28.377C126.286 28.0436 126.773 27.8116 127.251 27.584C127.321 27.5509 127.39 27.5177 127.459 27.4843C127.622 27.4056 127.785 27.3253 127.948 27.2448L127.948 27.2446C128.632 26.9068 129.319 26.5676 130.039 26.3421C130.16 26.3041 130.221 26.2855 130.25 26.2767L130.264 26.2723L130.269 26.2707C130.271 26.2702 130.271 26.27 130.271 26.27C130.271 26.27 130.27 26.2702 130.268 26.2709H130.267C130.229 26.2793 129.986 26.3335 132.367 25.4749C135.691 24.2759 133.98 20.4993 132.996 19.6684C132.923 19.6066 132.807 19.5401 132.728 19.5572C132.657 19.5725 132.567 19.6959 132.56 19.7783C132.486 20.6039 131.276 21.8851 128.402 21.6862C126.434 21.5501 126.392 21.5579 126.298 21.5752C126.254 21.5831 126.2 21.5931 125.941 21.5919C125.321 21.5891 123.176 21.7889 122.742 21.9115C122.584 21.9561 122.378 21.9992 122.136 22.0498C120.98 22.2913 118.998 22.7055 117.499 24.2759C117.333 24.4778 117.162 24.6764 116.991 24.875C116.606 25.323 116.222 25.7707 115.89 26.2554ZM123.751 34.4526C123.751 34.8702 123.667 35.2811 123.584 35.692V35.6922L123.584 35.6924C123.543 35.8899 123.503 36.0871 123.472 36.285C123.468 36.3163 123.451 36.3457 123.435 36.3752C123.427 36.3889 123.42 36.4026 123.413 36.4165C123.411 36.4088 123.409 36.4012 123.407 36.3938L123.403 36.3766C123.395 36.3481 123.387 36.3195 123.382 36.2905C123.344 36.0884 123.308 35.8857 123.273 35.6831V35.6829V35.6827C123.193 35.2238 123.112 34.7649 123.003 34.313C122.871 33.7715 122.725 33.2195 122.483 32.7228C122.202 32.1484 121.026 31.8772 120.448 32.1786C120.118 32.3505 119.96 32.7623 120.173 33.0615C120.376 33.3446 120.624 33.6339 120.919 33.8023C121.404 34.0789 121.562 34.5403 121.601 34.9925C121.675 35.8428 120.783 37.0383 119.916 37.2533C119.128 37.4487 118.325 37.5846 117.522 37.7206C117.332 37.7526 117.143 37.7846 116.954 37.8175C116.945 37.8189 116.937 37.8203 116.929 37.8217L116.896 37.8273H116.896C116.643 37.869 116.442 37.9022 116.522 38.2723C116.739 39.2771 116.81 40.2893 116.628 41.3115C116.617 41.3734 116.73 41.4708 116.802 41.5323C116.894 41.6107 116.99 41.6848 117.087 41.7585C117.264 41.8945 117.441 42.03 117.588 42.1935C117.829 42.4622 118.054 42.7455 118.278 43.029L118.279 43.0292H118.279V43.0294C118.433 43.2238 118.587 43.4183 118.747 43.6083C118.789 43.6577 118.956 43.6786 118.997 43.64C119.201 43.4445 119.401 43.2433 119.6 43.0422L119.6 43.0417C119.834 42.806 120.068 42.5703 120.31 42.3436C120.895 41.7957 121.494 41.263 122.101 40.7394C122.18 40.6716 122.288 40.6384 122.396 40.6053H122.397C122.447 40.5899 122.496 40.5746 122.544 40.5558C122.533 40.5804 122.522 40.605 122.512 40.6298C122.503 40.6507 122.494 40.6716 122.485 40.6923C122.433 40.8171 122.38 40.9417 122.318 41.0611C122.307 41.082 122.276 41.0906 122.243 41.0994C122.215 41.1071 122.185 41.115 122.167 41.1314C122.157 41.14 122.147 41.1484 122.137 41.1567L122.137 41.157C122.02 41.2567 121.934 41.33 122.193 41.4539C122.468 41.5848 122.722 41.7581 122.977 41.9316C123.083 42.004 123.189 42.0764 123.297 42.1457C124.957 43.2141 126.746 43.7157 128.725 43.3911C129.845 43.2074 130.614 42.6118 130.955 41.5098C131.282 40.454 131.146 40.1471 130.138 39.7227L130.108 39.7104L130.085 39.7007L130.037 39.6805H130.036L130.036 39.6803L130.036 39.68L130.034 39.6796C129.502 39.4585 128.974 39.2385 128.835 38.5866C128.777 38.3184 129.273 38.0296 129.383 38.2808C129.383 38.2825 129.384 38.2841 129.384 38.2857C129.492 38.7773 129.865 38.9472 130.258 39.1244C130.982 39.4501 131.071 39.4044 131.071 38.6616C131.071 37.6888 131.071 37.6888 131.924 37.3858C132.418 37.2104 132.498 37.0387 132.273 36.5587C131.934 35.8337 131.712 35.095 131.806 34.2754C131.922 33.2652 132.018 32.2519 132.082 31.2373C132.123 30.5852 132.162 29.9182 132.069 29.2772C132.009 28.8668 131.862 28.4691 131.716 28.0712H131.716C131.653 27.9 131.59 27.729 131.534 27.5569C131.402 27.1527 131.084 26.9903 130.67 27.1397C130.41 27.2332 130.15 27.3233 129.889 27.4133H129.889C129.163 27.6641 128.437 27.9151 127.745 28.2385C127.016 28.5791 126.279 29.0015 125.712 29.5581C125.203 30.0583 123.751 32.5774 123.751 34.4526ZM63.9146 113.166C64.2215 113.098 64.5289 113.03 64.8361 112.962C65.5047 112.814 66.1734 112.665 66.8406 112.512C66.9366 112.489 67.0264 112.44 67.116 112.39C67.1575 112.367 67.199 112.344 67.2413 112.324C67.2058 112.303 67.1696 112.283 67.1336 112.263C67.0499 112.216 66.9663 112.169 66.8898 112.113C66.8051 112.051 66.7334 111.969 66.6631 111.89L66.6592 111.885C66.4599 111.659 66.2578 111.436 66.0555 111.212L66.0553 111.212L66.0548 111.212L66.0546 111.211L66.0541 111.211L66.0539 111.211L66.0534 111.21C65.559 110.663 65.0646 110.117 64.6132 109.537C64.1666 108.963 63.8116 108.313 63.4615 107.671L63.4527 107.656C63.2803 107.34 63.0843 107.206 62.7525 107.322C61.3413 107.814 59.8804 108.084 58.4195 108.352L58.4192 108.353C57.6571 108.493 56.8952 108.633 56.1403 108.805C54.9028 109.087 48.6734 110.159 48.1309 110.198C47.8672 110.217 47.6034 110.243 47.3396 110.27H47.3394H47.3391H47.3389H47.3387H47.3384C46.825 110.322 46.3118 110.375 45.7991 110.369C44.4888 110.354 43.2044 110.495 41.9212 110.744C41.5166 110.823 41.1062 110.873 40.6958 110.922C40.2274 110.979 39.759 111.036 39.2996 111.136C37.8204 111.456 37.3249 112.719 37.706 113.953C37.7791 114.19 38.0406 114.457 38.2751 114.54C39.3453 114.919 40.4652 115.017 41.5976 115.026C42.1806 115.03 42.7636 115.058 43.3464 115.084H43.3466H43.3469H43.3471H43.3473C43.5696 115.095 43.7919 115.105 44.0141 115.114C44.85 115.148 45.6861 115.183 46.5223 115.218C47.1737 115.245 47.8252 115.272 48.4766 115.299C48.5228 115.301 48.5692 115.3 48.6154 115.299C48.6618 115.299 48.7082 115.298 48.7543 115.3C48.9829 115.309 49.2116 115.325 49.4406 115.341C49.9412 115.375 50.4419 115.409 50.9384 115.378C51.7177 115.33 52.4942 115.238 53.2704 115.146C53.6312 115.103 53.9917 115.06 54.3525 115.022C54.5731 114.998 54.7942 114.979 55.0155 114.96H55.0158H55.016H55.0162L55.0167 114.96H55.0169H55.0172C55.4195 114.925 55.8217 114.89 56.2201 114.83L56.421 114.799C57.4388 114.645 58.4584 114.49 59.4625 114.268C60.2423 114.097 61.0167 113.9 61.808 113.699L61.8085 113.698H61.8087H61.809C62.388 113.551 62.9759 113.402 63.5819 113.258C63.6169 113.248 63.6517 113.238 63.6868 113.228C63.7624 113.205 63.8378 113.183 63.9146 113.166ZM99.2155 134.621C99.6948 133.933 100.148 133.225 100.588 132.51C100.988 131.861 101.361 131.195 101.735 130.529C102.069 129.934 102.416 129.345 102.763 128.757L102.763 128.757C103.569 127.391 104.374 126.025 105.021 124.568C105.393 123.729 105.825 122.916 106.256 122.103H106.256V122.103V122.102L106.256 122.102L106.257 122.102L106.257 122.101L106.257 122.101L106.258 122.1L106.258 122.099L106.258 122.099C106.463 121.712 106.668 121.326 106.867 120.936C106.96 120.754 107.055 120.572 107.15 120.391L107.15 120.39L107.151 120.389L107.152 120.388L107.152 120.387L107.152 120.386L107.153 120.386C107.415 119.883 107.677 119.381 107.903 118.862C108.073 118.47 108.222 118.068 108.372 117.666C108.601 117.048 108.831 116.431 109.135 115.852C109.625 114.923 109.949 113.942 110.274 112.96H110.274C110.38 112.641 110.485 112.322 110.596 112.005C110.613 111.956 110.624 111.905 110.635 111.853L110.641 111.828C110.644 111.813 110.648 111.797 110.651 111.782C110.625 111.787 110.599 111.791 110.572 111.796C110.515 111.806 110.457 111.816 110.401 111.832C110.29 111.865 110.179 111.906 110.068 111.946C109.837 112.03 109.607 112.113 109.372 112.132C108.493 112.201 107.609 112.231 106.727 112.231C106.181 112.231 105.635 112.209 105.09 112.187C104.738 112.174 104.386 112.16 104.034 112.151C103.968 112.15 103.866 112.232 103.84 112.299C103.808 112.378 103.777 112.457 103.746 112.536L103.743 112.543L103.743 112.544C103.522 113.099 103.302 113.656 103.11 114.221C102.63 115.63 102.165 117.044 101.705 118.461C101.122 120.258 100.404 121.993 99.6122 123.714C98.8786 125.31 98.3318 127.009 97.9847 128.759C97.8226 129.575 97.5827 130.377 97.343 131.178C97.3078 131.295 97.2725 131.413 97.2375 131.531C97.2152 131.607 97.1929 131.682 97.1709 131.757C96.9932 132.363 96.7971 132.963 96.6011 133.563C96.5688 133.662 96.5368 133.76 96.5048 133.859C96.4661 133.977 96.4278 134.096 96.3895 134.214C96.2292 134.712 96.3702 135.176 96.7612 135.237C97.1969 135.304 97.6469 135.279 98.1369 135.248C98.5821 135.187 98.964 134.982 99.2155 134.621ZM35.1791 117.522C35.6626 116.726 36.1607 116.006 37.1439 115.791C37.5088 115.711 37.529 115.521 37.287 115.216C37.2339 115.148 37.178 115.082 37.1216 115.015C36.9195 114.774 36.7135 114.528 36.6263 114.249C36.5321 113.947 36.5504 113.607 36.5685 113.272V113.272V113.271C36.5732 113.185 36.5778 113.1 36.5806 113.015C36.6126 112.003 36.8984 111.14 37.9002 110.648C38.1976 110.502 38.376 110.283 38.0779 109.852C37.4058 108.883 36.5154 108.197 35.5336 107.602C35.1487 107.37 34.7942 107.508 34.6413 107.915C34.5747 108.091 34.5074 108.268 34.4402 108.445C34.2277 109.003 34.0149 109.561 33.8263 110.127C33.6193 110.749 33.4221 111.374 33.2252 111.999V111.999C33.0173 112.659 32.8094 113.319 32.5897 113.975C32.4081 114.516 32.2485 115.064 32.0886 115.612C31.7998 116.602 31.5109 117.592 31.0931 118.548C30.1315 120.75 29.3543 123.026 28.9863 125.418C28.9671 125.544 28.994 125.761 29.0689 125.799C29.1826 125.857 29.377 125.836 29.5016 125.775C29.709 125.674 29.9271 125.547 30.0723 125.373C30.5284 124.829 30.9525 124.257 31.3891 123.604C31.7506 123.025 32.1134 122.448 32.4765 121.87V121.87C33.3846 120.425 34.2924 118.98 35.1791 117.522ZM102.991 136.205H102.991C102.185 136.009 101.385 135.815 100.919 134.982C100.698 134.589 100.506 134.619 100.284 135.051C100.091 135.425 99.8523 135.753 99.4721 135.948C99.2696 136.052 99.0552 136.136 98.8404 136.212C97.7738 136.59 96.7366 136.637 95.8014 135.873C95.3455 135.501 95.197 135.535 94.8414 135.999C94.266 136.749 93.9714 137.623 93.6779 138.494L93.6528 138.569C93.3364 139.506 93.5081 139.702 94.505 139.702H112.382C112.42 139.702 112.459 139.706 112.498 139.709C112.587 139.717 112.677 139.724 112.748 139.692C112.84 139.649 112.962 139.449 112.947 139.432C112.881 139.36 112.817 139.284 112.753 139.208C112.556 138.974 112.356 138.738 112.104 138.609C111.599 138.353 111.034 138.202 110.48 138.062C108.438 137.545 106.39 137.05 104.251 136.547C104.147 136.518 104.043 136.489 103.94 136.459C103.712 136.394 103.484 136.329 103.254 136.27C103.232 136.265 103.21 136.259 103.187 136.254L103.162 136.247L103.123 136.238C103.08 136.227 103.037 136.217 102.993 136.206L102.992 136.205H102.991ZM138.216 101.919C138.237 101.997 138.331 102.056 138.425 102.115C138.468 102.142 138.511 102.169 138.547 102.198C138.571 102.165 138.6 102.132 138.629 102.099C138.693 102.027 138.757 101.955 138.76 101.881C138.763 101.82 138.767 101.758 138.771 101.696C138.773 101.658 138.776 101.619 138.778 101.58C138.804 101.19 138.831 100.794 138.754 100.423C138.603 99.6966 138.365 98.982 138.096 98.2893C138.028 98.1162 138.109 98.0336 138.184 97.9561C138.239 97.9 138.291 97.8464 138.283 97.7629C138.331 97.7939 138.383 97.8225 138.435 97.8508C138.553 97.9157 138.672 97.9807 138.749 98.0781C138.818 98.164 138.85 98.2781 138.882 98.3934C138.901 98.4621 138.92 98.531 138.947 98.5948C138.985 98.6841 139.023 98.7739 139.061 98.8635V98.8637C139.245 99.3001 139.429 99.7369 139.643 100.159C139.681 100.234 139.795 100.27 139.908 100.307C139.961 100.323 140.013 100.34 140.058 100.361C140.077 100.318 140.102 100.276 140.126 100.233C140.18 100.14 140.233 100.046 140.232 99.9536C140.228 99.5337 140.195 99.1122 140.145 98.6948C140.137 98.6292 140.13 98.5626 140.123 98.4957C140.092 98.1946 140.06 97.8879 139.944 97.6213C139.59 96.8091 139.214 95.9999 138.763 95.2396C138.478 94.7585 138.09 94.3084 137.659 93.952C137.277 93.6356 136.837 93.3873 136.398 93.1403H136.398V93.14H136.397L136.397 93.1398L136.394 93.1377C136.336 93.1055 136.279 93.0732 136.222 93.0407C136.163 93.0076 136.105 92.9744 136.047 92.9407C135.34 92.5303 134.622 92.1364 133.903 91.7462C133.896 91.742 133.888 91.7376 133.88 91.7329C133.796 91.6849 133.696 91.6283 133.608 91.8216C133.442 92.1851 133.265 92.5443 133.089 92.9032L133.088 92.9036C132.813 93.4641 132.537 94.0244 132.301 94.6009C132.296 94.6132 132.291 94.6262 132.285 94.6397C132.192 94.8598 132.028 95.2489 132.53 95.4637C133.068 95.6946 133.598 96.0261 134.022 96.4284C135.272 97.6118 135.835 99.1936 136.395 100.764V100.765L136.438 100.888C136.546 101.19 136.623 101.503 136.701 101.817V101.817V101.817C136.737 101.966 136.774 102.114 136.814 102.262C136.835 102.34 136.862 102.417 136.886 102.495C136.899 102.485 136.913 102.476 136.928 102.467C136.932 102.465 136.936 102.463 136.939 102.461C136.95 102.454 136.962 102.448 136.973 102.441L136.973 102.441C137.039 102.403 137.105 102.366 137.128 102.31C137.364 101.744 137.435 101.174 137.259 100.558C137.119 100.069 137.069 99.5509 137.019 99.0407V99.0405L137.015 98.9941C137.009 98.9317 137.096 98.8602 137.183 98.7888C137.223 98.7558 137.263 98.7229 137.294 98.6906C137.315 98.7182 137.339 98.7449 137.363 98.7716C137.416 98.8294 137.469 98.8874 137.487 98.9546C137.527 99.0978 137.564 99.2416 137.602 99.3878L137.602 99.3883C137.67 99.6544 137.74 99.9288 137.834 100.222C137.839 100.247 137.845 100.273 137.85 100.298L137.858 100.336L137.876 100.416C137.893 100.5 137.911 100.583 137.928 100.666H137.928V100.667V100.667C138.017 101.086 138.105 101.505 138.216 101.919ZM132.519 92.4545C132.585 92.2939 132.665 92.1403 132.744 91.9865C132.937 91.6139 133.13 91.2411 133.14 90.7713C133.15 90.3416 133.072 90.111 132.725 89.8995C132.358 89.6753 131.94 89.5403 131.613 89.7981C130.871 90.3836 130.186 91.0636 129.789 91.9346C129.539 92.483 129.359 93.0639 129.179 93.6444C129.117 93.8435 129.055 94.0423 128.991 94.2397C128.954 94.3525 128.971 94.4924 128.995 94.6135C129.139 95.338 129.679 95.6962 130.281 95.9999C130.598 96.1602 130.833 96.0806 130.976 95.7667C131.073 95.5526 131.169 95.3375 131.266 95.1208C131.469 94.6682 131.675 94.2075 131.905 93.7265C131.968 93.5964 132.034 93.4669 132.099 93.3377C132.247 93.0463 132.394 92.7551 132.519 92.4545ZM27.9685 125.164C28.2998 124.374 28.6146 123.575 28.8801 122.761C29.0575 122.217 29.2141 121.666 29.3707 121.115C29.5125 120.616 29.6542 120.117 29.8118 119.623C30.0586 118.848 30.3178 118.076 30.5767 117.305L30.5769 117.304C30.8189 116.584 31.0611 115.863 31.2933 115.138C31.7283 113.782 32.1524 112.423 32.5767 111.064V111.064L32.5779 111.06L32.5781 111.059C32.7681 110.45 32.9584 109.841 33.1493 109.232C33.1999 109.071 33.2509 108.91 33.3022 108.75L33.3024 108.75C33.4384 108.323 33.5743 107.897 33.6964 107.466C33.7145 107.402 33.6776 107.323 33.6407 107.243C33.6238 107.206 33.6068 107.17 33.5952 107.134C33.5576 107.159 33.514 107.181 33.4706 107.203H33.4704C33.3762 107.251 33.2818 107.299 33.2475 107.375C32.9213 108.088 32.6025 108.807 32.3211 109.54C32.0619 110.214 31.8306 110.899 31.5996 111.584C31.5608 111.699 31.5221 111.813 31.4833 111.928C31.4402 112.055 31.397 112.182 31.3539 112.309C31.1112 113.022 30.8685 113.736 30.6525 114.457C30.4289 115.204 30.2168 115.954 30.0048 116.705V116.705C29.8496 117.255 29.6944 117.804 29.5345 118.352C29.4758 118.554 29.4178 118.755 29.3596 118.956C29.1153 119.803 28.8708 120.65 28.5861 121.483C28.4089 122.002 28.2214 122.517 28.0333 123.034C27.7706 123.757 27.5064 124.483 27.2667 125.227C27.6145 125.687 27.7474 125.691 27.9685 125.164ZM106.521 141.419C106.732 141.404 106.942 141.389 107.153 141.373H107.155C107.618 141.339 108.082 141.305 108.546 141.282C109.159 141.252 109.773 141.225 110.386 141.198C111.197 141.163 112.008 141.128 112.819 141.085C112.882 141.082 112.943 141.018 113.004 140.954C113.019 140.939 113.034 140.923 113.049 140.908C113.062 140.895 113.076 140.882 113.089 140.871C113.078 140.865 113.067 140.857 113.055 140.85C113.049 140.845 113.042 140.841 113.035 140.836L113.016 140.824C112.961 140.786 112.905 140.749 112.843 140.728C112.796 140.711 112.741 140.715 112.686 140.719L112.667 140.721C112.662 140.721 112.658 140.721 112.654 140.722C112.645 140.722 112.637 140.723 112.629 140.723C112.624 140.723 112.619 140.723 112.614 140.723H94.1957C94.1862 140.723 94.1765 140.723 94.1662 140.722C94.1628 140.722 94.1593 140.721 94.1558 140.721C94.1516 140.721 94.1472 140.72 94.143 140.72C94.1298 140.719 94.1164 140.717 94.1031 140.716C94.0328 140.707 93.9628 140.699 93.924 140.73C93.792 140.837 93.6732 140.973 93.5932 141.121C93.5763 141.152 93.7364 141.34 93.8354 141.362C94.1092 141.423 94.3938 141.461 94.6741 141.461C98.6077 141.467 102.541 141.465 106.521 141.419ZM133.062 142.85L133.062 142.851H133.062L133.061 142.851C131.652 143.405 130.251 143.956 128.869 144.551C127.924 144.957 126.978 145.019 125.995 144.99C125.911 144.988 125.828 144.969 125.745 144.95C125.655 144.93 125.566 144.91 125.477 144.91C125.405 144.91 125.333 144.95 125.261 144.989C125.228 145.007 125.196 145.025 125.164 145.039C125.167 145.044 125.17 145.05 125.174 145.055C125.177 145.06 125.18 145.065 125.183 145.07L125.185 145.074C125.191 145.085 125.196 145.095 125.202 145.106L125.211 145.122H125.212C125.246 145.185 125.28 145.247 125.33 145.291C125.472 145.419 125.62 145.549 125.787 145.637C127.062 146.304 127.798 148.127 127.348 149.494C127.127 150.165 126.859 150.878 126.412 151.4C126.047 151.825 125.412 152.106 124.846 152.253C123.951 152.485 123.017 152.493 122.115 152.165C121.326 151.879 120.76 151.35 120.343 150.635C119.328 148.896 119.744 147.388 120.824 145.985C120.965 145.8 121.194 145.684 121.424 145.567C121.553 145.502 121.682 145.436 121.797 145.358C121.879 145.303 121.942 145.221 122.005 145.138C122.034 145.101 122.063 145.063 122.093 145.028C122.043 145.016 121.992 145.001 121.941 144.986C121.825 144.952 121.709 144.918 121.592 144.912C121.511 144.909 121.429 144.93 121.347 144.951C121.271 144.97 121.195 144.99 121.119 144.99C120.164 144.99 119.209 144.991 118.254 144.992C111.75 144.996 105.246 145 98.742 144.989C97.1716 144.987 95.6014 144.963 94.031 144.94C93.1069 144.926 92.1829 144.912 91.2588 144.903C90.577 144.896 89.8951 144.898 89.213 144.9H89.2098C88.8991 144.9 88.5885 144.901 88.2779 144.901C88.211 144.901 88.144 144.901 88.0772 144.9H88.0762C87.8911 144.899 87.7057 144.898 87.5208 144.905C87.4823 144.907 87.4445 144.933 87.4069 144.96L87.4004 144.964L87.393 144.969C87.3856 144.974 87.3784 144.979 87.371 144.984L87.3677 144.986C87.3656 144.987 87.3635 144.989 87.3615 144.99L87.3577 144.992L87.3547 144.994C87.3645 145.001 87.3744 145.008 87.3842 145.015L87.4044 145.03C87.4401 145.056 87.4758 145.082 87.5132 145.105C87.6689 145.202 87.8322 145.291 87.9957 145.38C88.3468 145.572 88.698 145.764 88.9734 146.033C90.8582 147.872 90.2503 151.508 87.4301 152.236C85.1484 152.826 83.1323 152.067 82.4549 149.358C82.0375 147.687 83.1539 145.695 84.8424 145.173C84.9155 145.151 84.9786 145.096 85.0417 145.041C85.0484 145.035 85.0554 145.029 85.0621 145.023L85.0707 145.016C85.0818 145.006 85.093 144.997 85.1041 144.988C85.1085 144.984 85.1131 144.981 85.1175 144.977C85.122 144.974 85.1264 144.971 85.1305 144.967C85.0997 144.951 85.0686 144.929 85.0375 144.908C84.9709 144.862 84.9043 144.816 84.8375 144.816C82.6115 144.807 80.5251 144.159 78.4791 143.385C75.7308 142.346 73.0587 141.133 70.5846 139.534L70.5375 139.503C70.0802 139.208 69.6086 138.904 69.4473 138.286C69.1453 137.131 69.7295 136.24 70.808 135.947C71.9567 135.635 73.0577 135.964 74.1426 136.312C76.0264 136.916 77.9088 137.525 79.7913 138.133C80.836 138.471 81.8807 138.809 82.9256 139.146L83.0623 139.19C83.63 139.373 84.1977 139.556 84.77 139.723C84.98 139.784 85.2062 139.815 85.4252 139.816C86.3694 139.82 87.3137 139.82 88.2579 139.821C89.1977 139.821 90.1376 139.821 91.0774 139.825C91.2168 139.825 91.4563 139.864 91.4764 139.935C91.5203 140.087 91.5198 140.252 91.5194 140.417C91.5191 140.481 91.5189 140.545 91.5214 140.609C91.5177 140.607 91.514 140.606 91.5103 140.605L91.5043 140.602C91.4992 140.6 91.4941 140.598 91.489 140.596L91.4797 140.591L91.4795 140.591C91.4493 140.578 91.4194 140.564 91.3906 140.567C91.2841 140.576 91.1778 140.589 91.0716 140.602C90.9134 140.622 90.7554 140.641 90.5967 140.649C90.0459 140.678 89.4954 140.704 88.9446 140.729C88.208 140.763 87.4716 140.797 86.7355 140.839C85.4333 140.911 84.2053 140.545 82.9883 140.181L82.9771 140.178C82.0324 139.895 81.0998 139.574 80.1671 139.252H80.1669C79.6398 139.07 79.1127 138.888 78.5833 138.714C77.9218 138.495 77.2583 138.282 76.595 138.069L76.5946 138.069H76.5943L76.5939 138.068H76.5934L76.5932 138.068H76.5927L76.5922 138.068L76.5892 138.067C75.8241 137.821 75.059 137.575 74.2966 137.321C74.1038 137.257 73.9159 137.172 73.7282 137.086C73.4294 136.95 73.132 136.814 72.8195 136.768C72.245 136.682 71.63 136.729 71.0574 136.842C70.8335 136.886 70.5828 137.242 70.5122 137.501C70.418 137.848 70.4821 138.189 70.8874 138.447C72.7687 139.643 74.7518 140.634 76.7883 141.534C78.6385 142.352 80.5485 142.989 82.4997 143.508C82.8124 143.591 83.1511 143.598 83.4785 143.604C84.226 143.619 84.9737 143.628 85.7215 143.637C86.9842 143.653 88.247 143.668 89.5091 143.707C90.9066 143.749 92.3035 143.817 93.7002 143.885C94.3498 143.917 94.9991 143.948 95.6487 143.977C96.2248 144.003 96.8008 144.028 97.3767 144.053H97.3771H97.3774C98.2119 144.089 99.0461 144.125 99.8806 144.164C100.059 144.172 100.238 144.187 100.417 144.202H100.417H100.418H100.419L100.42 144.202H100.421H100.421C100.738 144.228 101.055 144.255 101.371 144.245C101.648 144.236 101.923 144.197 102.199 144.159V144.159C102.438 144.126 102.677 144.093 102.916 144.079C103.078 144.069 103.242 144.093 103.406 144.117H103.406H103.406C103.539 144.137 103.672 144.156 103.804 144.158C103.963 144.16 104.122 144.163 104.281 144.165H104.281H104.282H104.282H104.283H104.283H104.284H104.284H104.285H104.285H104.285H104.285H104.286C105.021 144.177 105.757 144.189 106.491 144.154C107.125 144.124 107.758 144.074 108.391 144.024C109.001 143.976 109.611 143.928 110.222 143.897C110.403 143.888 110.587 143.933 110.771 143.978L110.771 143.978C110.933 144.018 111.095 144.058 111.257 144.061C112.368 144.084 113.48 144.082 114.592 144.066C115.676 144.051 116.76 144.023 117.843 143.971C118.058 143.961 118.274 143.924 118.489 143.887C118.807 143.832 119.124 143.777 119.432 143.81C120.671 143.945 121.914 143.979 123.155 144.013C124.008 144.036 124.86 144.06 125.71 144.116C127.244 144.216 128.603 143.85 129.949 143.3C131.771 142.555 133.577 141.767 135.35 140.913C136.458 140.38 137.516 139.737 138.569 139.097L138.762 138.98C139.434 138.572 139.946 137.997 140.157 137.206C140.263 136.808 140.041 136.502 139.642 136.494C138.401 136.466 137.269 136.897 136.143 137.33C134.506 137.96 132.875 138.609 131.251 139.27C130.593 139.537 129.941 139.817 129.289 140.097C128.801 140.306 128.312 140.515 127.822 140.72C127.651 140.791 127.454 140.831 127.268 140.832C125.717 140.838 124.166 140.837 122.614 140.837L122.023 140.836C121.795 140.836 121.567 140.836 121.338 140.836C120.912 140.836 120.485 140.836 120.059 140.837C118.905 140.837 117.751 140.837 116.597 140.835C116.202 140.835 115.807 140.821 115.412 140.807C115.387 140.806 115.346 140.743 115.344 140.707C115.34 140.655 115.342 140.604 115.344 140.552V140.552C115.347 140.48 115.349 140.407 115.337 140.338C115.283 140.042 115.41 139.996 115.683 139.998C117.629 140.011 119.575 140.017 121.52 140.001C121.714 140 121.908 139.998 122.102 139.997H122.103C123.749 139.985 125.397 139.973 127.04 139.889C127.562 139.863 128.087 139.636 128.586 139.42C128.629 139.402 128.671 139.383 128.714 139.365C131.562 138.143 134.439 136.997 137.404 136.087C137.941 135.922 138.513 135.861 139.079 135.799L139.08 135.799H139.08H139.081H139.081L139.082 135.799C139.142 135.792 139.203 135.786 139.263 135.779C139.309 135.774 139.354 135.769 139.4 135.764C139.786 135.719 140.195 135.691 140.569 135.77C141.164 135.896 141.411 136.467 141.229 137.064C140.899 138.148 140.238 138.972 139.277 139.558C138.591 139.976 137.904 140.39 137.212 140.806L137.21 140.807L137.205 140.81C136.569 141.193 135.93 141.577 135.287 141.968C134.545 142.267 133.803 142.559 133.064 142.85L133.064 142.85L133.063 142.85L133.062 142.85ZM125.812 146.98C124.729 145.801 123.478 145.584 121.986 146.446C121.123 146.945 120.745 148.117 120.817 148.859C120.895 149.658 121.295 150.322 121.906 150.841C122.638 151.463 123.494 151.465 124.376 151.275C126.335 150.854 126.923 148.31 125.812 146.98ZM83.5553 148.273C83.5553 148.357 83.5539 148.442 83.5522 148.526C83.549 148.709 83.5457 148.891 83.5578 149.073C83.6569 150.57 85.3948 151.733 86.9272 151.292C88.0178 150.979 88.6467 150.328 88.8697 149.184C89.2114 147.429 88.1217 146.165 86.6167 145.947C85.1298 145.732 83.9067 146.553 83.5553 148.273ZM95.6357 153.583H98.9106H116.009C116.813 153.583 117.616 153.584 118.419 153.584C122.237 153.584 126.055 153.585 129.873 153.572C130.122 153.571 130.397 153.427 130.602 153.286C130.657 153.248 130.54 152.947 130.426 152.818C130.349 152.731 130.14 152.699 129.989 152.699C117.79 152.695 105.591 152.694 93.3916 152.694C88.6001 152.694 83.8086 152.693 79.0171 152.693C78.8401 152.693 78.6631 152.681 78.4863 152.669H78.4858L78.4304 152.665L78.393 152.663C78.3605 152.661 78.3278 152.658 78.2954 152.657C78.0021 152.639 77.6221 153.03 77.7432 153.254C77.917 153.576 78.274 153.584 78.6234 153.584C84.1195 153.583 89.6156 153.583 95.1365 153.583H95.1388H95.1413H95.1437H95.146H95.6357ZM64.902 153.813H62.591C59.1851 153.813 55.8039 153.813 52.4227 153.811C52.3872 153.811 52.3513 153.812 52.3151 153.814C52.0875 153.821 51.8601 153.829 51.7694 153.532C51.6641 153.189 51.8084 152.939 52.1916 152.894C52.2645 152.886 52.3387 152.888 52.413 152.89C52.4313 152.891 52.4496 152.891 52.4677 152.892C52.4772 152.892 52.4867 152.892 52.4963 152.892H52.5065H52.5151H56.0834C62.0735 152.892 68.0632 152.892 74.0532 152.891H74.0771L74.1122 152.891C74.4228 152.889 74.7168 152.887 74.7035 153.307C74.6926 153.654 74.4866 153.813 74.0073 153.813C71.7502 153.813 69.493 153.813 67.2167 153.813H67.2083H67.2H64.902ZM145.471 153.814H147.94C148.46 153.814 148.978 153.814 149.495 153.814C151.471 153.815 153.426 153.815 155.379 153.811C155.582 153.81 155.788 153.769 155.986 153.723C156.041 153.711 156.095 153.615 156.108 153.551C156.208 153.056 156.047 152.894 155.467 152.894C149.315 152.894 143.162 152.894 137.009 152.894H133.933C133.917 152.894 133.9 152.893 133.883 152.893C133.866 152.893 133.848 152.892 133.831 152.891C133.756 152.888 133.682 152.884 133.61 152.896C133.215 152.964 133.074 153.238 133.231 153.57C133.351 153.825 133.574 153.82 133.799 153.815C133.83 153.814 133.861 153.813 133.892 153.813C137.74 153.814 141.588 153.814 145.461 153.814H145.464H145.468H145.471ZM128.76 30.9158C128.841 30.9077 129.219 30.9666 129.686 31.0392C130.325 31.1385 131.128 31.2635 131.559 31.2775C131.99 31.2914 131.581 31.7535 131.51 31.7565C130.558 31.7969 128.494 31.1682 128.76 30.9158ZM130.151 34.5617C129.747 34.409 129.94 33.1736 130.34 33.1736C130.735 33.1736 130.544 34.7106 130.151 34.5617ZM124.341 147.838C124.69 148.629 124.666 148.953 124.251 149.383C123.967 149.677 123.453 149.726 123.131 149.492C122.788 149.241 122.628 148.647 122.794 148.236C123.086 147.512 123.727 147.335 124.341 147.838ZM86.997 147.899C86.4555 147.397 85.9159 147.425 85.253 148.075C85.0118 148.634 85.1301 149.226 86.0247 149.384C86.5065 149.468 86.7921 149.326 87.0582 149.038C87.3352 148.738 87.2559 148.139 86.997 147.899Z" fill="#00160A"/>
<path fill-rule="evenodd" clip-rule="evenodd" d="M118.43 47.157C117.625 46.9206 117.434 45.6989 116.621 45.4877C115.817 45.2789 115.045 46.2311 114.243 46.0137C113.698 45.8659 113.444 45.2641 113.142 44.7869C112.848 44.3224 112.23 43.9034 111.788 44.2032L111.752 44.2296C111.139 44.7129 110.22 44.4076 109.603 43.9299C108.986 43.4522 108.463 42.8084 107.722 42.5627C108.111 42.1787 108.785 42.4574 109.162 42.8534C109.538 43.2494 109.845 43.7712 110.368 43.9296C111.17 44.1723 112.072 43.4281 112.829 43.7872C113.3 44.0106 113.491 44.5623 113.772 45.0001C114.054 45.4381 114.667 45.8051 115.067 45.4717C116.038 44.6625 117.772 45.1755 118.146 46.3823C118.255 46.7324 118.734 47.2461 118.43 47.157Z" fill="#E7EAEE"/>
<path fill-rule="evenodd" clip-rule="evenodd" d="M70.3781 138.886C72.6162 140.204 79.627 144.088 84.7663 144.217L127.274 144.351C127.274 144.351 149.626 136.49 133.284 139.456C132.359 139.624 129.71 141.208 125.451 141.554C117.666 142.185 84.7663 141.781 84.7663 141.781C84.7663 141.781 69.7893 138.539 70.3781 138.886Z" fill="#E7EAEE"/>
<path fill-rule="evenodd" clip-rule="evenodd" d="M33.872 112.734C33.9244 112.676 33.9878 112.635 34.0272 112.651C34.475 112.836 34.7332 112.675 34.8691 112.233C34.8917 112.159 35.0067 112.114 35.0789 112.056C35.1455 112.145 35.2677 112.233 35.268 112.322C35.2689 112.617 35.3969 112.755 35.677 112.843C35.7964 112.88 35.8672 113.071 35.96 113.193C35.8665 113.214 35.7255 113.206 35.6895 113.264C35.6164 113.38 35.5779 113.53 35.567 113.669C35.5575 113.788 35.6169 113.91 35.6273 114.032C35.641 114.192 35.6153 114.309 35.4264 114.148C35.0496 113.826 34.7225 113.946 34.4007 114.25C34.3228 114.324 34.1854 114.336 34.0752 114.376C34.0954 114.276 34.1015 114.17 34.1381 114.076C34.33 113.585 34.1975 113.163 33.872 112.734Z" fill="#FFB61D"/>
<path d="M126.208 39.208C127.105 39.208 127.832 38.4809 127.832 37.584C127.832 36.6871 127.105 35.96 126.208 35.96C125.311 35.96 124.584 36.6871 124.584 37.584C124.584 38.4809 125.311 39.208 126.208 39.208Z" fill="#FFB61D"/>
<path fill-rule="evenodd" clip-rule="evenodd" d="M102.971 52.0392L103.158 52.3276L103.219 52.4206C103.611 52.9946 104.206 53.559 104.867 53.3918C106.626 52.9466 108.628 53.7238 109.626 55.2394C110.119 55.989 111.215 55.8419 112.111 55.65L112.229 55.6241C113.127 55.425 114.37 55.5187 114.597 56.3892L114.609 56.4393C114.713 56.9407 115.344 57.0929 115.864 57.0799L116.025 57.0738C117.331 57.0738 117.501 57.7921 117.502 57.7183C117.502 57.7183 114.631 57.5007 114.026 56.5268L113.989 56.4648C113.605 55.7906 112.633 55.9004 111.872 56.1296L111.663 56.195L111.558 56.2256C110.816 56.4335 109.916 56.5087 109.543 55.8684C108.688 54.3989 106.908 53.5256 105.222 53.7493C104.788 53.8068 104.338 53.9286 103.923 53.791C102.929 53.4621 102.799 51.9274 101.821 51.5532C100.587 51.081 99.3923 52.8746 98.1151 52.5361C98.8918 51.9436 99.753 51.4618 100.664 51.1096C100.97 50.9917 101.294 50.8866 101.619 50.9261C102.221 50.9989 102.625 51.5165 102.971 52.0392ZM118.649 53.8101C118.526 54.1894 118.435 54.5262 118.375 54.8121C118.249 53.9882 117.431 53.2263 116.659 53.4931L116.614 53.5096C116.124 53.705 115.605 53.2997 115.289 52.8783L115.213 52.7756L115.098 52.6187C114.842 52.2689 114.567 51.9239 114.157 51.8244C113.407 51.6422 112.745 52.3886 111.979 52.4777C110.205 52.6839 109.318 49.5085 107.577 49.9025C107.196 49.9888 106.867 50.2496 106.48 50.3024C105.412 50.4484 104.839 49.0905 103.939 48.4977C103.262 48.0514 102.306 48.0783 101.656 48.5622C101.688 47.7866 102.743 47.4451 103.463 47.7368C104.183 48.0286 104.677 48.6845 105.275 49.18C105.857 49.6635 106.722 49.9953 107.357 49.602L107.405 49.5705C108.169 49.042 109.19 49.7122 109.786 50.424L110.003 50.6834C110.547 51.3311 111.169 52.0042 111.985 51.942C112.734 51.8849 113.371 51.1871 114.115 51.2987C115.198 51.4613 115.64 53.2064 116.728 53.0883C117.428 53.0122 118.156 53.2472 118.679 53.718L118.649 53.8101ZM119.211 50.1588C119.036 50.4036 118.861 50.6003 118.685 50.7488L118.627 50.7966L118.48 50.692C117.768 50.186 116.991 49.6939 116.125 49.7143C115.809 49.7218 115.485 49.7981 115.182 49.709C114.376 49.4726 114.185 48.2509 113.372 48.0398C112.568 47.831 111.796 48.7831 110.995 48.5657C110.449 48.4179 110.195 47.8161 109.893 47.3389C109.6 46.8744 108.981 46.4554 108.54 46.7552L108.503 46.7816C107.89 47.2649 106.972 46.9596 106.355 46.4819C105.737 46.0042 105.214 45.3604 104.474 45.1147C104.862 44.7307 105.536 45.0094 105.913 45.4054C106.29 45.8014 106.596 46.3232 107.119 46.4816C107.921 46.7243 108.824 45.9801 109.58 46.3392C110.051 46.5626 110.242 47.1143 110.524 47.5521C110.805 47.9901 111.418 48.3571 111.818 48.0237C112.789 47.2145 114.523 47.7275 114.897 48.9343C115.006 49.2844 115.472 49.3659 115.832 49.2956C116.192 49.2253 116.562 49.0684 116.912 49.1786C117.356 49.3188 117.584 49.8359 118.013 50.0199C118.458 50.211 118.992 49.9679 119.29 49.5828L119.32 49.5424C119.56 49.2065 119.447 49.8278 119.211 50.1588Z" fill="#FFB61D"/>
<path fill-rule="evenodd" clip-rule="evenodd" d="M109.871 59.363L110.005 59.4025C110.185 59.4575 110.32 59.5384 110.478 59.6721L110.556 59.7407L110.655 59.831C110.703 59.8746 110.741 59.9075 110.78 59.9389C111.042 60.1546 111.34 60.2883 111.837 60.3671C112.17 60.42 112.405 60.3671 112.811 60.1783L112.956 60.1087C113.611 59.7927 113.992 59.7048 114.605 59.8458C115.13 59.9662 115.371 60.1692 115.567 60.5511L115.616 60.6525C115.71 60.8481 116.012 61.0288 116.251 61.1715C116.429 61.2784 116.573 61.364 116.565 61.4186C116.548 61.5455 115.441 61.3401 115.221 60.9007L115.173 60.8024C115.03 60.5073 114.9 60.3894 114.502 60.298C114.035 60.1908 113.752 60.247 113.231 60.4919L113.085 60.5618C112.556 60.8161 112.232 60.8998 111.764 60.8253C111.186 60.7337 110.812 60.5655 110.485 60.2978C110.463 60.2792 110.441 60.2604 110.417 60.2405L110.223 60.0653C110.087 59.944 109.994 59.8843 109.869 59.8463L109.793 59.8231C109.469 59.7282 108.728 59.9744 108.187 60.1537C107.849 60.2662 107.589 60.3525 107.561 60.3119C107.5 60.2245 109.226 59.1897 109.871 59.363ZM109.792 62.8892L109.916 62.924C110.083 62.9723 110.209 63.0435 110.355 63.1609L110.427 63.2212L110.519 63.3005C110.564 63.3388 110.599 63.3676 110.634 63.3954C110.878 63.5847 111.154 63.7024 111.615 63.7717C111.924 63.8181 112.142 63.7715 112.518 63.6059L112.653 63.5446C113.26 63.2669 113.613 63.1894 114.182 63.3135C114.669 63.4193 114.892 63.5977 115.074 63.9334L115.12 64.0223C115.206 64.1944 115.487 64.3531 115.708 64.4786C115.874 64.5726 116.006 64.6478 116 64.6956C115.984 64.8071 114.957 64.6266 114.753 64.2406L114.709 64.1541C114.576 63.8947 114.455 63.7912 114.086 63.7109C113.653 63.6165 113.391 63.6659 112.907 63.8812L112.772 63.9427C112.282 64.1661 111.982 64.2397 111.548 64.1745C111.011 64.0938 110.664 63.946 110.361 63.7107C110.34 63.6945 110.32 63.678 110.299 63.6604L110.119 63.5063C109.992 63.3998 109.906 63.3474 109.79 63.314L109.719 63.2936C109.419 63.2101 108.731 63.4265 108.231 63.584C107.916 63.6829 107.676 63.7587 107.649 63.723C107.593 63.6462 109.193 62.737 109.792 62.8892ZM110.022 66.636L109.904 66.6012C109.34 66.449 107.828 67.3582 107.881 67.435C107.906 67.4707 108.134 67.3949 108.43 67.296C108.903 67.1385 109.552 66.9221 109.836 67.0056L109.903 67.026C110.013 67.0594 110.094 67.1118 110.213 67.2183L110.383 67.3724C110.403 67.39 110.423 67.4065 110.443 67.4227C110.729 67.658 111.057 67.8058 111.563 67.8865C111.973 67.9517 112.256 67.8781 112.72 67.6547L112.847 67.5932C113.304 67.3779 113.551 67.3285 113.96 67.4229C114.309 67.5032 114.423 67.6067 114.549 67.8661L114.59 67.9526C114.783 68.3386 115.753 68.5191 115.768 68.4076C115.774 68.3598 115.649 68.2846 115.492 68.1906C115.283 68.0651 115.018 67.9064 114.937 67.7343L114.893 67.6454C114.722 67.3097 114.511 67.1313 114.051 67.0255C113.514 66.9014 113.181 66.9789 112.607 67.2566L112.479 67.3179C112.124 67.4835 111.919 67.5301 111.627 67.4837C111.192 67.4144 110.931 67.2967 110.7 67.1074C110.667 67.0796 110.634 67.0508 110.592 67.0125L110.505 66.9332L110.437 66.8729C110.298 66.7555 110.18 66.6843 110.022 66.636ZM109.904 71.0092L110.022 71.044C110.18 71.0923 110.298 71.1635 110.437 71.2809L110.505 71.3412L110.592 71.4205C110.634 71.4588 110.667 71.4876 110.7 71.5154C110.931 71.7047 111.192 71.8224 111.627 71.8917C111.919 71.9381 112.124 71.8915 112.479 71.7259L112.607 71.6646C113.181 71.3869 113.514 71.3094 114.051 71.4335C114.511 71.5393 114.722 71.7177 114.893 72.0534L114.937 72.1423C115.018 72.3144 115.283 72.4731 115.492 72.5986C115.649 72.6926 115.774 72.7678 115.768 72.8156C115.753 72.9271 114.783 72.7466 114.59 72.3606L114.549 72.2741C114.423 72.0147 114.309 71.9112 113.96 71.8309C113.551 71.7365 113.304 71.7859 112.847 72.0012L112.72 72.0627C112.256 72.2861 111.973 72.3597 111.563 72.2945C111.057 72.2138 110.729 72.066 110.443 71.8307C110.423 71.8145 110.403 71.798 110.383 71.7804L110.213 71.6263C110.094 71.5198 110.013 71.4674 109.903 71.434L109.836 71.4136C109.552 71.3301 108.903 71.5465 108.43 71.704C108.134 71.8029 107.906 71.8787 107.881 71.843C107.828 71.7662 109.34 70.857 109.904 71.0092ZM110.38 75.452L110.256 75.4172C109.657 75.265 108.057 76.1742 108.113 76.251C108.14 76.2867 108.38 76.2109 108.695 76.112C109.195 75.9545 109.883 75.7381 110.183 75.8216L110.254 75.842C110.37 75.8754 110.456 75.9278 110.583 76.0343L110.763 76.1884C110.784 76.206 110.804 76.2225 110.825 76.2387C111.128 76.474 111.475 76.6218 112.012 76.7025C112.446 76.7677 112.746 76.6941 113.236 76.4707L113.371 76.4092C113.855 76.1939 114.117 76.1445 114.55 76.2389C114.919 76.3192 115.04 76.4227 115.173 76.6821L115.217 76.7686C115.421 77.1546 116.448 77.3351 116.464 77.2236C116.47 77.1758 116.338 77.1006 116.172 77.0066C115.951 76.8811 115.67 76.7224 115.584 76.5503L115.538 76.4614C115.356 76.1257 115.133 75.9473 114.646 75.8415C114.077 75.7174 113.724 75.7949 113.117 76.0726L112.982 76.1339C112.606 76.2995 112.388 76.3461 112.079 76.2997C111.618 76.2304 111.342 76.1127 111.098 75.9234C111.063 75.8956 111.028 75.8668 110.983 75.8285L110.891 75.7492L110.819 75.6889C110.673 75.5715 110.547 75.5003 110.38 75.452ZM111.52 79.496L111.649 79.5085C111.822 79.5271 111.958 79.5753 112.122 79.6656L112.204 79.7125L112.308 79.7746C112.359 79.8048 112.398 79.8271 112.438 79.8482C112.711 79.9922 113.003 80.06 113.469 80.0484C113.782 80.0405 113.988 79.9568 114.33 79.7282L114.452 79.6445C115.002 79.2656 115.336 79.128 115.918 79.1515C116.415 79.1712 116.666 79.3081 116.903 79.6071L116.964 79.6867C117.079 79.841 117.383 79.9489 117.623 80.0338C117.802 80.0976 117.946 80.1486 117.948 80.1969C117.951 80.3094 116.909 80.3101 116.641 79.9653L116.583 79.8876C116.407 79.6554 116.27 79.5746 115.892 79.5596C115.449 79.5417 115.2 79.6359 114.761 79.9319L114.639 80.0159C114.194 80.321 113.911 80.4456 113.473 80.4567C112.931 80.4704 112.563 80.3853 112.224 80.2059L112.153 80.1674L111.95 80.047C111.806 79.9639 111.713 79.9273 111.593 79.9145L111.519 79.9066C111.209 79.8767 110.57 80.2092 110.104 80.4514C109.811 80.6033 109.587 80.7198 109.556 80.6892C109.487 80.6233 110.905 79.4498 111.52 79.496ZM114.447 82.5002L114.344 82.5101C113.852 82.5677 112.874 83.6493 112.936 83.688C112.965 83.7059 113.128 83.5862 113.34 83.4298C113.679 83.1809 114.144 82.8389 114.393 82.815L114.452 82.8097C114.548 82.8015 114.627 82.8148 114.75 82.8549L114.925 82.9138L114.986 82.9321C115.276 83.0145 115.576 83.0229 116.003 82.9319C116.348 82.8586 116.556 82.7238 116.87 82.4315L116.957 82.3508C117.267 82.0659 117.453 81.9589 117.805 81.906C118.105 81.861 118.224 81.9004 118.391 82.0466L118.446 82.0956C118.7 82.3113 119.523 82.1556 119.506 82.0726C119.499 82.0371 119.38 82.0206 119.23 82.0002C119.03 81.9728 118.778 81.938 118.668 81.8408L118.61 81.7907C118.387 81.6042 118.172 81.5402 117.776 81.5993C117.314 81.6689 117.067 81.8206 116.678 82.1835L116.591 82.264C116.349 82.4844 116.197 82.5772 115.951 82.6296C115.584 82.7078 115.345 82.7008 115.111 82.6347C115.078 82.625 115.044 82.6143 115 82.5995L114.91 82.5688L114.84 82.5463C114.699 82.5039 114.586 82.4883 114.447 82.5002ZM116.896 84.5981L116.999 84.5882C117.138 84.5763 117.251 84.5919 117.392 84.6343L117.462 84.6568L117.552 84.6875C117.596 84.7023 117.63 84.713 117.663 84.7227C117.897 84.7888 118.136 84.7958 118.503 84.7176C118.749 84.6652 118.901 84.5724 119.143 84.352L119.23 84.2715C119.619 83.9086 119.866 83.7569 120.328 83.6873C120.724 83.6282 120.939 83.6922 121.162 83.8787L121.22 83.9288C121.33 84.026 121.582 84.0608 121.782 84.0882C121.932 84.1086 122.051 84.1251 122.058 84.1606C122.075 84.2436 121.252 84.3993 120.998 84.1836L120.943 84.1346C120.776 83.9884 120.657 83.949 120.357 83.994C120.005 84.0469 119.819 84.1539 119.509 84.4388L119.422 84.5195C119.108 84.8118 118.9 84.9466 118.555 85.0199C118.128 85.1109 117.828 85.1025 117.538 85.0201L117.477 85.0018L117.302 84.9429C117.179 84.9028 117.1 84.8895 117.004 84.8976L116.945 84.903C116.696 84.9269 116.231 85.2689 115.892 85.5178C115.68 85.6742 115.517 85.7939 115.488 85.776C115.426 85.7373 116.404 84.6557 116.896 84.5981ZM120.265 86.8455L120.184 86.868C119.799 86.9833 119.169 87.9858 119.225 88.0081C119.25 88.0183 119.364 87.8995 119.512 87.7448C119.747 87.4977 120.071 87.159 120.266 87.1049L120.313 87.0924C120.389 87.072 120.453 87.0715 120.557 87.0863L120.706 87.1088L120.757 87.1146C121 87.1397 121.242 87.1042 121.57 86.9715C121.835 86.8641 121.983 86.727 122.193 86.449L122.251 86.3722C122.459 86.1008 122.592 85.989 122.866 85.8971C123.1 85.8189 123.2 85.8338 123.354 85.927L123.405 85.9584C123.638 86.095 124.275 85.8547 124.249 85.7906C124.239 85.763 124.141 85.767 124.018 85.7716C123.855 85.7779 123.648 85.7858 123.546 85.7233L123.493 85.6916C123.288 85.5739 123.107 85.5531 122.8 85.6561C122.44 85.7767 122.263 85.9331 122.004 86.2778L121.946 86.3544C121.784 86.5648 121.674 86.6604 121.485 86.7369C121.203 86.8511 121.011 86.8794 120.815 86.8592C120.787 86.8564 120.758 86.8525 120.721 86.8469L120.645 86.8351L120.586 86.827C120.467 86.813 120.374 86.8165 120.265 86.8455ZM122.763 88.7424L122.844 88.7201C122.953 88.6909 123.046 88.6874 123.164 88.7015L123.224 88.7096L123.3 88.7212C123.337 88.727 123.365 88.7308 123.394 88.7338C123.59 88.754 123.782 88.7257 124.064 88.6115C124.253 88.535 124.362 88.4391 124.525 88.2289L124.583 88.1524C124.842 87.8074 125.018 87.6513 125.378 87.5306C125.686 87.4274 125.867 87.4485 126.072 87.5659L126.125 87.5979C126.226 87.6601 126.434 87.6522 126.597 87.6459C126.719 87.6413 126.817 87.6376 126.828 87.6649C126.853 87.729 126.217 87.9696 125.984 87.8327L125.932 87.8016C125.778 87.7081 125.678 87.6933 125.445 87.7717C125.171 87.8633 125.037 87.9751 124.829 88.2468L124.771 88.3234C124.562 88.6015 124.414 88.7384 124.148 88.8458C123.82 88.9785 123.579 89.0143 123.335 88.9892L123.285 88.9832L123.136 88.9609C123.032 88.9461 122.967 88.9465 122.891 88.9667L122.845 88.9792C122.649 89.0335 122.326 89.3722 122.09 89.6191C121.942 89.7741 121.829 89.8926 121.803 89.8824C121.748 89.8604 122.377 88.8577 122.763 88.7424ZM125.86 90.5761L125.779 90.5984C125.393 90.7137 124.764 91.7164 124.819 91.7384C124.845 91.7486 124.958 91.6301 125.106 91.4751C125.342 91.2282 125.665 90.8895 125.861 90.8352L125.907 90.8227C125.983 90.8025 126.048 90.8021 126.152 90.8169L126.301 90.8392L126.351 90.8452C126.595 90.8703 126.836 90.8345 127.164 90.7018C127.43 90.5944 127.578 90.4575 127.787 90.1794L127.845 90.1028C128.053 89.8311 128.187 89.7193 128.461 89.6277C128.694 89.5493 128.794 89.5641 128.948 89.6576L129 89.6887C129.233 89.8256 129.869 89.585 129.844 89.5209C129.833 89.4936 129.735 89.4973 129.613 89.5019C129.45 89.5082 129.242 89.5161 129.141 89.4539L129.088 89.4219C128.883 89.3045 128.702 89.2834 128.394 89.3866C128.034 89.5073 127.858 89.6634 127.599 90.0084L127.541 90.0849C127.378 90.2951 127.269 90.391 127.08 90.4675C126.798 90.5817 126.606 90.61 126.41 90.5898C126.381 90.5868 126.353 90.583 126.316 90.5772L126.24 90.5656L126.18 90.5575C126.062 90.5434 125.969 90.5469 125.86 90.5761Z" fill="#FFB61D"/>
</svg>
